<svg width="137" height="133" viewBox="0 0 137 133" fill="none" xmlns="http://www.w3.org/2000/svg"><path d="M81.098 119.639c-10.075 3.413-20.085-16.993-31.048-24.273-11.647-7.751-35.502-10.698-36.019-21.808 5.893-24.351 17.419-42.227 38.63-56.221 16.042-2.926 65.792 30.08 67.009 46.041-5.465 23.973-16.231 41.111-38.572 56.261z" fill="#fff"/><path d="M80.745 120.153c-9.134 2.043-20.4-16.536-31.323-23.874-11.608-7.807-34.247-12.523-35.744-22.207 3.265-20.527 18.563-30.685 37.146-40.856 14.748-1.042 52.052 23.665 54.738 37.61-3.012 20.281-5.339 38.343-24.817 49.327z" fill="#FFBC00"/><path d="M81.098 119.639c-10.075 3.413-20.085-16.993-31.048-24.273-11.647-7.751-35.502-10.698-36.019-21.808 5.893-24.351 17.419-42.227 38.63-56.221 16.042-2.926 65.792 30.08 67.009 46.041-5.465 23.973-16.231 41.111-38.572 56.261zM25.066 85.258l-10.393 15.125m52.517 13.818l-10.393 15.125" stroke="#000" stroke-width="8" stroke-miterlimit="10"/></svg>