<svg width="25" height="25" viewBox="0 0 25 25" fill="none" xmlns="http://www.w3.org/2000/svg"><path d="M19.054 25h-.037a19.927 19.927 0 01-13.405-5.654A20.225 20.225 0 010 5.841a2.642 2.642 0 01.765-1.889L4.307.385a1.298 1.298 0 011.845 0l5.22 5.262c.51.513.51 1.346 0 1.86L9.29 9.602a9.891 9.891 0 002.08 3.936 9.743 9.743 0 003.9 2.098l2.088-2.097a1.298 1.298 0 011.846 0l5.22 5.262c.51.513.51 1.346 0 1.86l-3.542 3.568c-.483.492-1.14.77-1.827.771zM5.227 3.176H5.22L2.61 5.812a17.493 17.493 0 004.845 11.673 17.226 17.226 0 0011.58 4.883l2.618-2.637-3.382-3.4-1.688 1.699a1.283 1.283 0 01-1.186.356A13.273 13.273 0 019.524 15.4a13.457 13.457 0 01-2.963-5.92 1.322 1.322 0 01.356-1.202l1.686-1.7-3.376-3.4z" fill="#E7A600"/></svg>