<svg width="98" height="98" viewBox="0 0 98 98" fill="none" xmlns="http://www.w3.org/2000/svg">
<path d="M79.5762 90.6609C79.1112 92.81 77.0333 94.1487 74.8841 93.6837L7.65391 79.1377C5.50475 78.6727 4.16606 76.5947 4.63105 74.4456L19.1771 7.21538C19.6421 5.06622 21.72 3.72752 23.8692 4.19252L91.0994 18.7386C93.2486 19.2036 94.5873 21.2815 94.1223 23.4307L79.5762 90.6609Z" fill="white"/>
<path d="M81.3617 91.7392C80.8967 93.8883 78.8188 95.227 76.6696 94.762L5.85747 79.441C3.70831 78.976 2.36961 76.898 2.83461 74.7489L22.8899 19.3826C23.3548 17.2335 25.4328 15.8948 27.5819 16.3598L82.9642 28.3424C85.1134 28.8074 86.4521 30.8853 85.9871 33.0345L81.3617 91.7392Z" fill="#9EA6A9"/>
<path d="M79.5762 90.6609C79.1112 92.81 77.0333 94.1487 74.8841 93.6837L7.65391 79.1377C5.50475 78.6727 4.16606 76.5947 4.63105 74.4456L19.1771 7.21538C19.6421 5.06622 21.72 3.72752 23.8692 4.19252L91.0994 18.7386C93.2486 19.2036 94.5873 21.2815 94.1223 23.4307L79.5762 90.6609Z" stroke="black" stroke-width="5" stroke-miterlimit="10"/>
<path d="M32.4236 32.3955L27.4747 31.3247L25.6961 34.1672L24.0898 33.8196L31.1564 22.983L32.5194 23.2779L34.4826 36.0682L32.8843 35.7224L32.4236 32.3955ZM28.2226 30.1447L32.2385 31.0136L31.4219 25.0532L28.2226 30.1447ZM36.4459 31.822C36.742 30.4536 37.2936 29.4349 38.1008 28.7659C38.9092 28.0915 39.8353 27.8672 40.8792 28.0931C41.9501 28.3248 42.7038 28.8842 43.1404 29.7713L43.424 28.8136L44.7951 29.1102L42.9415 37.6776C42.6957 38.8134 42.164 39.6354 41.3463 40.1436C40.534 40.653 39.56 40.7848 38.4241 40.539C37.7913 40.4021 37.2013 40.1329 36.654 39.7314C36.1068 39.3299 35.7245 38.8593 35.5072 38.3197L36.4809 37.5877C36.9525 38.522 37.6534 39.0898 38.5837 39.2911C39.3139 39.4491 39.9263 39.3664 40.4209 39.0431C40.9209 38.721 41.2516 38.1868 41.4131 37.4404L41.5764 36.6858C40.8262 37.2483 39.9319 37.4171 38.8934 37.1924C37.8658 36.9701 37.1224 36.3761 36.6632 35.4105C36.2094 34.446 36.137 33.2499 36.4459 31.822ZM37.9181 32.3188C37.7039 33.3086 37.7383 34.1314 38.021 34.7871C38.305 35.4373 38.812 35.8415 39.5422 35.9994C40.4887 36.2042 41.2768 35.9246 41.9064 35.1606L42.7735 31.1527C42.4952 30.2149 41.8963 29.6465 40.9768 29.4476C40.2466 29.2896 39.6145 29.4501 39.0806 29.9291C38.5467 30.4081 38.1592 31.2046 37.9181 32.3188Z" fill="black"/>
</svg>
