<svg width="84" height="84" viewBox="0 0 84 84" fill="none" xmlns="http://www.w3.org/2000/svg"><path d="M68.25 68.25h-52.5A5.25 5.25 0 0110.5 63V26.25A5.25 5.25 0 0115.75 21h10.498l5.25-7.875h21L57.748 21H68.25a5.25 5.25 0 015.25 5.25V63a5.25 5.25 0 01-5.25 5.25z" stroke="#000" stroke-width="2" stroke-linecap="round" stroke-linejoin="round"/><path opacity=".3" d="M62.65 61.53h-52.5a5.25 5.25 0 01-5.25-5.25V19.53a5.25 5.25 0 015.25-5.25h10.498l5.25-7.875h21l5.25 7.875H62.65a5.25 5.25 0 015.25 5.25v36.75a5.25 5.25 0 01-5.25 5.25z" fill="#000"/><path d="M42 55.125c6.524 0 11.813-5.289 11.813-11.813C53.813 36.79 48.523 31.5 42 31.5c-6.524 0-11.813 5.289-11.813 11.813 0 6.523 5.29 11.812 11.813 11.812z" stroke="#000" stroke-width="2" stroke-linecap="round" stroke-linejoin="round"/></svg>