<svg width="43" height="30" viewBox="0 0 43 30" fill="none" xmlns="http://www.w3.org/2000/svg">
<rect x="0.5" y="0.5" width="41.5" height="29" rx="2.5" fill="white" stroke="#D9D9D9"/>
<path fill-rule="evenodd" clip-rule="evenodd" d="M21.179 19.8295C19.9949 20.8275 18.459 21.43 16.7807 21.43C13.0358 21.43 10 18.4303 10 14.73C10 11.0297 13.0358 8.03003 16.7807 8.03003C18.459 8.03003 19.9949 8.63253 21.179 9.63057C22.363 8.63253 23.8989 8.03003 25.5773 8.03003C29.3221 8.03003 32.358 11.0297 32.358 14.73C32.358 18.4303 29.3221 21.43 25.5773 21.43C23.8989 21.43 22.363 20.8275 21.179 19.8295Z" fill="#ED0006"/>
<path fill-rule="evenodd" clip-rule="evenodd" d="M21.179 19.8295C22.6369 18.6006 23.5614 16.772 23.5614 14.73C23.5614 12.6881 22.6369 10.8595 21.179 9.63057C22.363 8.63253 23.8989 8.03003 25.5772 8.03003C29.3221 8.03003 32.3579 11.0297 32.3579 14.73C32.3579 18.4303 29.3221 21.43 25.5772 21.43C23.8989 21.43 22.363 20.8275 21.179 19.8295Z" fill="#F9A000"/>
<path fill-rule="evenodd" clip-rule="evenodd" d="M21.179 19.8295C22.6369 18.6006 23.5614 16.772 23.5614 14.7301C23.5614 12.6881 22.6369 10.8595 21.179 9.63062C19.7211 10.8595 18.7966 12.6881 18.7966 14.7301C18.7966 16.772 19.7211 18.6006 21.179 19.8295Z" fill="#FF5E00"/>
</svg>
