<svg width="43" height="30" viewBox="0 0 43 30" fill="none" xmlns="http://www.w3.org/2000/svg">
<rect x="0.5" y="0.5" width="41.5" height="29" rx="2.5" fill="white" stroke="#D9D9D9"/>
<path fill-rule="evenodd" clip-rule="evenodd" d="M13.7503 18.8583H11.6906L10.146 12.7925C10.0727 12.5134 9.91703 12.2668 9.68806 12.1505C9.11664 11.8583 8.48696 11.6258 7.80005 11.5085V11.275H11.1181C11.5761 11.275 11.9195 11.6258 11.9768 12.0332L12.7782 16.4087L14.8369 11.275H16.8394L13.7503 18.8583ZM17.9843 18.8583H16.039L17.6408 11.275H19.5861L17.9843 18.8583ZM22.1028 13.3758C22.16 12.9674 22.5035 12.7338 22.9042 12.7338C23.5338 12.6752 24.2197 12.7925 24.7922 13.0836L25.1356 11.4509C24.5632 11.2174 23.9335 11.1001 23.3621 11.1001C21.4741 11.1001 20.1003 12.1505 20.1003 13.6083C20.1003 14.7174 21.0734 15.2997 21.7603 15.6505C22.5035 16.0003 22.7897 16.2338 22.7324 16.5836C22.7324 17.1083 22.16 17.3419 21.5886 17.3419C20.9017 17.3419 20.2147 17.167 19.5861 16.8748L19.2426 18.5086C19.9295 18.7997 20.6727 18.917 21.3596 18.917C23.4766 18.9746 24.7922 17.9252 24.7922 16.3501C24.7922 14.3666 22.1028 14.2503 22.1028 13.3758V13.3758ZM31.6001 18.8583L30.0555 11.275H28.3965C28.053 11.275 27.7095 11.5085 27.5951 11.8583L24.7349 18.8583H26.7374L27.1371 17.7503H29.5976L29.8265 18.8583H31.6001ZM28.6827 13.3172L29.2541 16.1752H27.6523L28.6827 13.3172Z" fill="#172B85"/>
</svg>
