<svg width="43" height="30" viewBox="0 0 43 30" fill="none" xmlns="http://www.w3.org/2000/svg">
<rect x="0.5" y="0.5" width="41.5" height="29" rx="2.5" fill="white" stroke="#D9D9D9"/>
<path fill-rule="evenodd" clip-rule="evenodd" d="M25.1091 21.8899C29.0285 19.6774 30.4121 14.7064 28.1995 10.7868C25.987 6.86728 21.016 5.4834 17.0967 7.69587C13.1773 9.90834 11.7936 14.8793 14.0062 18.7989C16.2188 22.7185 21.1897 24.1023 25.1091 21.8899ZM19.422 17L23 17L23 18L19.422 18L19.422 20L18.092 20L18.092 18L17 18L17 17L18.092 17L18.092 10.004L22.474 10.004C23.482 10.004 24.2427 10.2653 24.756 10.788C25.2787 11.3013 25.54 12.0247 25.54 12.958C25.54 13.8913 25.2787 14.6193 24.756 15.142C24.2427 15.6647 23.482 15.9213 22.474 15.912L19.422 15.912L19.422 17ZM19.422 11.124L19.422 14.792L22.026 14.792C22.782 14.8013 23.3327 14.6473 23.678 14.33C24.0327 14.0127 24.21 13.5553 24.21 12.958C24.21 12.3607 24.0327 11.908 23.678 11.6C23.3327 11.2827 22.782 11.124 22.026 11.124L19.422 11.124Z" fill="#8FC258"/>
</svg>
