<svg width="296" height="183" viewBox="0 0 296 183" fill="none" xmlns="http://www.w3.org/2000/svg">
<path opacity="0.71" d="M194.35 30.0011C193.246 30.0011 192.35 30.8966 192.35 32.0011C192.35 33.1057 193.246 34.0011 194.35 34.0011V30.0011ZM274.6 34.0011C275.704 34.0011 276.6 33.1057 276.6 32.0011C276.6 30.8966 275.704 30.0011 274.6 30.0011V34.0011ZM194.35 45.6741C193.246 45.6741 192.35 46.5696 192.35 47.6741C192.35 48.7787 193.246 49.6741 194.35 49.6741V45.6741ZM274.6 49.6741C275.704 49.6741 276.6 48.7787 276.6 47.6741C276.6 46.5696 275.704 45.6741 274.6 45.6741V49.6741ZM194.35 61.3471C193.246 61.3471 192.35 62.2425 192.35 63.3471C192.35 64.4516 193.246 65.3471 194.35 65.3471V61.3471ZM274.6 65.3471C275.704 65.3471 276.6 64.4516 276.6 63.3471C276.6 62.2425 275.704 61.3471 274.6 61.3471V65.3471ZM210.958 77.0201C209.853 77.0201 208.958 77.9155 208.958 79.0201C208.958 80.1246 209.853 81.0201 210.958 81.0201V77.0201ZM257.992 81.0201C259.097 81.0201 259.992 80.1246 259.992 79.0201C259.992 77.9155 259.097 77.0201 257.992 77.0201V81.0201ZM207.105 131.349C206 131.349 205.105 132.245 205.105 133.349C205.105 134.454 206 135.349 207.105 135.349V131.349ZM261.845 135.349C262.95 135.349 263.845 134.454 263.845 133.349C263.845 132.245 262.95 131.349 261.845 131.349V135.349ZM271.603 144.659H197.347V148.659H271.603V144.659ZM197.347 144.659C195.496 144.659 193.958 143.135 193.958 141.21H189.958C189.958 145.303 193.246 148.659 197.347 148.659V144.659ZM193.958 141.21V125.489H189.958V141.21H193.958ZM193.958 125.489C193.958 123.563 195.496 122.04 197.347 122.04V118.04C193.246 118.04 189.958 121.396 189.958 125.489H193.958ZM197.347 122.04H271.603V118.04H197.347V122.04ZM271.603 122.04C273.454 122.04 274.991 123.563 274.991 125.489H278.991C278.991 121.396 275.704 118.04 271.603 118.04V122.04ZM274.991 125.489V141.21H278.991V125.489H274.991ZM274.991 141.21C274.991 143.135 273.454 144.659 271.603 144.659V148.659C275.704 148.659 278.991 145.303 278.991 141.21H274.991ZM285.164 166.312H182.59V170.312H285.164V166.312ZM182.59 166.312C178.836 166.312 175.754 163.227 175.754 159.378H171.754C171.754 165.395 176.586 170.312 182.59 170.312V166.312ZM175.754 159.378V10.934H171.754V159.378H175.754ZM175.754 10.934C175.754 7.08489 178.836 4 182.59 4V0C176.586 0 171.754 4.91743 171.754 10.934H175.754ZM182.59 4H285.164V0H182.59V4ZM285.164 4C288.917 4 292 7.08489 292 10.934H296C296 4.91743 291.168 0 285.164 0V4ZM292 10.934V159.378H296V10.934H292ZM292 159.378C292 163.227 288.917 166.312 285.164 166.312V170.312C291.168 170.312 296 165.395 296 159.378H292ZM194.35 34.0011H274.6V30.0011H194.35V34.0011ZM194.35 49.6741H274.6V45.6741H194.35V49.6741ZM194.35 65.3471H274.6V61.3471H194.35V65.3471ZM210.958 81.0201H257.992V77.0201H210.958V81.0201ZM207.105 135.349H261.845V131.349H207.105V135.349Z" fill="#491919" fill-opacity="0.15"/>
<path d="M106.554 89.4704C103.232 84.7697 66.8259 88.798 60.9809 90.6795C55.1359 92.561 34.1415 129.099 34.1415 129.099H21.3839V179.968C21.3839 179.968 85.7625 182.031 100.575 179.968C114.081 178.087 144.4 164.558 162.425 150.136C168.717 145.101 173.512 139.957 175.567 135.163C176.664 132.606 166.325 136.058 156.589 139.773C148.304 142.933 140.455 146.283 140.455 146.283C140.455 146.283 163.555 130.483 167.536 124.199C168.368 122.885 169.245 121.582 170.139 120.304C171.046 119.007 174.616 114.234 175.454 113.152C177.577 110.411 179.587 107.893 181.212 105.716C183.908 102.104 185.533 99.4296 184.835 98.2175C173.405 100.741 103.632 112.98 103.632 112.98C103.632 112.98 79.3151 112.712 91.0081 109.889C102.701 107.067 109.876 94.1711 106.554 89.4704Z" fill="#C4C4C4"/>
<path d="M209.236 136.79H99.8325C95.9588 136.79 92.7887 133.608 92.7887 129.651V62.3158C92.7887 58.3585 95.9588 55.1772 99.8325 55.1772H209.236C213.109 55.1772 216.279 58.3585 216.279 62.3158V129.651C216.279 133.608 213.109 136.79 209.236 136.79Z" fill="#26293F" fill-opacity="0.3" stroke="black" stroke-width="3"/>
<path d="M209.236 138.29H99.8325C95.1148 138.29 91.2887 134.421 91.2887 129.651V62.3158C91.2887 57.5457 95.1148 53.6772 99.8325 53.6772H209.236C213.953 53.6772 217.779 57.5457 217.779 62.3158V129.651C217.779 134.421 213.953 138.29 209.236 138.29Z" stroke="black" stroke-width="4" stroke-linecap="round" stroke-linejoin="round"/>
<path d="M105.639 69.438H116.536" stroke="black" stroke-width="2" stroke-linecap="round" stroke-linejoin="round"/>
<path d="M105.639 76.2461H131.148" stroke="black" stroke-width="4" stroke-linecap="round" stroke-linejoin="round"/>
<path d="M118.927 106.519H136.641" stroke="black" stroke-width="4" stroke-linecap="round" stroke-linejoin="round"/>
<path d="M145.677 106.519H163.391" stroke="black" stroke-width="4" stroke-linecap="round" stroke-linejoin="round"/>
<path d="M172.427 106.519H190.141" stroke="black" stroke-width="4" stroke-linecap="round" stroke-linejoin="round"/>
<path d="M92.7887 124.183V115.9H216.279V124.183H92.7887Z" fill="#56586B" stroke="black" stroke-width="3"/>
<path d="M204.986 73.6047C204.986 75.6864 203.322 77.3451 201.303 77.3451C199.284 77.3451 197.62 75.6864 197.62 73.6047C197.62 71.5229 199.284 69.8643 201.303 69.8643C203.322 69.8643 204.986 71.5229 204.986 73.6047Z" fill="#F66E62" stroke="black" stroke-width="3"/>
<path d="M8.90964 181H21.9297C25.7468 181 28.8393 177.874 28.8393 174.014V122.907C28.8393 119.05 25.7468 115.92 21.9297 115.92H8.90964C5.09249 115.92 2 119.05 2 122.907V174.014C2 177.874 5.09249 181 8.90964 181Z" stroke="black" stroke-width="4" stroke-linecap="round" stroke-linejoin="round"/>
<path d="M84.2595 87.5565C84.2595 87.5565 109.196 86.0791 113.16 87.3726C117.126 88.6691 116.392 92.9447 114.114 97.175C111.832 101.405 104.458 108.747 97.1066 109.947C89.7556 111.147 86.7437 111.416 86.7437 111.416" fill="#C4C4C4"/>
<path d="M169.671 138.221C155.414 154.443 122.556 168.849 108.03 172.431C93.5044 176.013 28.8395 172.431 28.8395 172.431V121.562H41.5971C41.5971 121.562 62.3201 82.6508 68.4364 83.1423C78.6115 83.9624 100.605 84.3333 115.17 85.0509C120.878 85.3313 110.407 102.421 98.586 104.62C86.7647 106.818 83.9794 106.516 83.9794 106.516L81.7219 114.398C81.7219 114.398 93.9457 122.898 87.3015 148.46" stroke="black" stroke-width="4" stroke-linecap="round" stroke-linejoin="round"/>
<path d="M133.037 74.1013C131.352 74.1013 110.716 62.2938 110.716 51.5326V28.9638L133.037 18.7544L155.359 28.9638V51.5326C155.359 62.7039 134.317 74.1013 133.037 74.1013Z" fill="#C4C4C4" fill-opacity="0.5"/>
<path d="M133.037 74.1013C131.352 74.1013 110.716 62.2938 110.716 51.5326V28.9638L133.037 18.7544L155.359 28.9638V51.5326C155.359 62.7039 134.317 74.1013 133.037 74.1013Z" stroke="#656C7F" stroke-opacity="0.3" stroke-width="4" stroke-linecap="round" stroke-linejoin="round"/>
<path d="M132.564 65.5945C131.389 65.5945 117 57.36 117 49.8582V34.1189L132.564 27L148.128 34.1189V49.8582C148.128 57.6464 133.456 65.5945 132.564 65.5945Z" fill="#868686"/>
<path d="M133.037 65.7248C131.862 65.7248 117.473 57.4904 117.473 49.9886V34.2492L133.037 27.1304L148.601 34.2492V49.9886C148.601 57.7768 133.929 65.7248 133.037 65.7248Z" stroke="black" stroke-opacity="0.25" stroke-width="4" stroke-linecap="round" stroke-linejoin="round"/>
</svg>
