<svg width="24" height="24" viewBox="0 0 24 24" fill="none" xmlns="http://www.w3.org/2000/svg">
<path d="M12 1.99998C17.5203 2.00604 21.9939 6.47965 22 12L22 12.2C21.8901 17.6955 17.3654 22.072 11.8693 21.9991C6.37324 21.9262 1.9663 17.4311 2.00222 11.9346C2.03813 6.43819 6.50343 2.00108 12 1.99998ZM12 20C16.4183 20 20 16.4183 20 12C20 7.5817 16.4183 3.99998 12 3.99998C7.58172 3.99998 4 7.5817 4 12C4.00496 16.4162 7.58378 19.995 12 20ZM12 6.99998L13.41 8.40998L10.83 11L17 11L17 13L10.83 13L13.41 15.59L12 17L7 12L12 6.99998Z" fill="#5F5F5F"/>
</svg>
