<svg width="69" height="67" viewBox="0 0 69 67" fill="none" xmlns="http://www.w3.org/2000/svg">
<path d="M63.9781 33.4009C64.6574 34.5776 64.2387 36.052 63.09 36.7152L24.2888 59.1171C23.1121 59.7964 21.6377 59.3777 20.9745 58.2291L13.5845 37.7301C12.9052 36.5534 13.324 35.079 14.4726 34.4158L46.6062 15.8635C47.7829 15.1841 49.2573 15.6029 49.9205 16.7515L63.9781 33.4009Z" fill="#EEEEEE"/>
<path d="M62.596 31.0068C63.2753 32.1835 62.8566 33.6579 61.7079 34.3211L22.9066 56.723C21.73 57.4023 20.2556 56.9836 19.5924 55.8349L5.2131 30.9293C4.53376 29.7526 4.95252 28.2782 6.10115 27.615L44.8744 5.22926C46.0511 4.54993 47.5255 4.96868 48.1887 6.11731L62.568 31.023L62.596 31.0068Z" stroke="#EEEEEE" stroke-width="5" stroke-miterlimit="10"/>
<path d="M56.553 37.2969L61.4054 45.7015" stroke="#E9E9E9" stroke-width="5" stroke-miterlimit="10"/>
</svg>
