<svg width="45" height="64" viewBox="0 0 45 64" fill="none" xmlns="http://www.w3.org/2000/svg">
<path d="M24.5407 46.0739L0.384796 6.92254L11.7748 0.346537L33.5197 40.8899L24.5407 46.0739ZM40.2236 62.2934C38.2283 63.4454 36.2412 63.7797 34.2625 63.2964C32.3391 62.781 30.8814 61.6642 29.8894 59.946C28.8654 58.1724 28.6111 56.3239 29.1265 54.4006C29.6972 52.4452 30.9803 50.8915 32.9756 49.7395C34.8601 48.6515 36.764 48.3652 38.6874 48.8806C40.6662 49.3639 42.1676 50.4924 43.1916 52.266C44.1836 53.9842 44.3942 55.821 43.8234 57.7764C43.308 59.6997 42.1081 61.2054 40.2236 62.2934Z" fill="#E7A600"/>
</svg>
