<svg width="45" height="102" viewBox="0 0 45 102" fill="none" xmlns="http://www.w3.org/2000/svg">
<path d="M9.81365 67.2018L25.7186 0.0543113L44.7744 5.16029L24.8357 71.2269L9.81365 67.2018ZM9.24442 101.039C5.90618 100.145 3.44399 98.392 1.85785 95.7805C0.364443 93.1938 0.00286088 90.4632 0.773106 87.5886C1.5682 84.6213 3.25908 82.3909 5.84574 80.8975C8.52513 79.4289 11.5339 79.1419 14.8722 80.0364C18.025 80.8812 20.3481 82.5969 21.8415 85.1835C23.4276 87.795 23.8231 90.5845 23.028 93.5518C22.2578 96.4264 20.533 98.598 17.8536 100.067C15.2669 101.56 12.3972 101.884 9.24442 101.039Z" fill="black"/>
</svg>
