<svg width="126" height="126" viewBox="0 0 126 126" fill="none" xmlns="http://www.w3.org/2000/svg">
<path d="M77.9938 81.3405C76.1811 83.1532 73.2993 83.1532 71.4866 81.3405L43.8309 53.6847C42.0182 51.872 42.0182 48.9902 43.8309 47.1775L75.205 26.029C77.0178 24.2163 79.8995 24.2163 81.7123 26.029L99.1423 43.4591C100.955 45.2718 100.955 48.1536 99.1423 49.9663L77.9938 81.3405Z" fill="#AF4CFC"/>
<path d="M75.2049 84.1294L41.042 49.9664L76.5993 14.4091C78.4121 12.5964 82.1305 12.1316 84.501 13.0147C88.3588 14.4556 91.566 16.3613 100.397 25.1925C108.206 33.0012 110.809 37.0914 112.157 40.6704C113.04 43.0409 111.785 47.5495 111.227 48.1072L75.2049 84.1294Z" stroke="black" stroke-width="7" stroke-miterlimit="10" stroke-linecap="round" stroke-linejoin="round"/>
<path d="M32.6755 42.5293L82.6417 92.4955" stroke="black" stroke-width="7" stroke-miterlimit="10" stroke-linecap="round" stroke-linejoin="round"/>
<path d="M57.6819 67.5356L25.0063 100.211" stroke="black" stroke-width="7" stroke-miterlimit="10" stroke-linecap="round" stroke-linejoin="round"/>
<path d="M48.3859 58.2398L11.0623 86.2674" stroke="black" stroke-width="7" stroke-miterlimit="10" stroke-linecap="round" stroke-linejoin="round"/>
<path d="M66.978 76.8315L38.9505 114.155" stroke="black" stroke-width="7" stroke-miterlimit="10" stroke-linecap="round" stroke-linejoin="round"/>
</svg>
