<svg width="111" height="113" viewBox="0 0 111 113" fill="none" xmlns="http://www.w3.org/2000/svg">
<path d="M69.2521 94.758C62.1345 96.9476 52.0408 82.9123 42.9191 77.7731C33.2248 72.3034 14.9733 69.9735 13.1822 62.3861C14.4927 45.9002 25.9943 36.8888 40.1009 27.6635C51.7342 25.9178 82.8638 43.1906 85.8635 54.0845C84.7385 70.3593 84.0179 84.8317 69.2521 94.758Z" fill="#E72A00"/>
<path d="M69.5 94.3286C61.7211 97.6634 52.5091 82.1012 43.3598 77.0097C33.6379 71.5876 14.5324 70.7371 13.4301 61.9567C16.5864 42.2736 24.615 27.3759 40.5675 14.9534C53.1099 11.633 94.6295 34.7135 96.5896 47.2978C93.7491 66.6542 86.277 80.9188 69.5 94.3286Z" stroke="black" stroke-width="8" stroke-miterlimit="10" stroke-linecap="round" stroke-linejoin="round"/>
<path d="M22.9123 70.5488L15.6114 83.1944" stroke="black" stroke-width="8" stroke-miterlimit="10" stroke-linecap="round" stroke-linejoin="round"/>
<path d="M58.129 90.8813L50.8281 103.527" stroke="black" stroke-width="8" stroke-miterlimit="10" stroke-linecap="round" stroke-linejoin="round"/>
</svg>
