<svg width="294" height="181" viewBox="0 0 294 181" fill="none" xmlns="http://www.w3.org/2000/svg"><path opacity=".71" d="M193.35 30.001a1 1 0 000 2v-2zm80.25 2a1 1 0 000-2v2zm-80.25 13.673a1 1 0 000 2v-2zm80.25 2a1 1 0 000-2v2zm-80.25 13.673a1 1 0 000 2v-2zm80.25 2a1 1 0 000-2v2zM209.958 77.02a1 1 0 100 2v-2zm47.034 2a1 1 0 000-2v2zm-50.887 52.329a1 1 0 100 2v-2zm54.74 2a1 1 0 100-2v2zm9.758 11.31h-74.256v2h74.256v-2zm-74.256 0c-2.413 0-4.389-1.982-4.389-4.449h-2c0 3.551 2.85 6.449 6.389 6.449v-2zm-4.389-4.449v-15.721h-2v15.721h2zm0-15.721c0-2.467 1.976-4.449 4.389-4.449v-2c-3.539 0-6.389 2.898-6.389 6.449h2zm4.389-4.449h74.256v-2h-74.256v2zm74.256 0c2.413 0 4.388 1.982 4.388 4.449h2c0-3.551-2.85-6.449-6.388-6.449v2zm4.388 4.449v15.721h2v-15.721h-2zm0 15.721c0 2.467-1.975 4.449-4.388 4.449v2c3.538 0 6.388-2.898 6.388-6.449h-2zm9.173 26.102H181.59v2h102.574v-2zm-102.574 0c-4.316 0-7.836-3.543-7.836-7.934h-2c0 5.475 4.394 9.934 9.836 9.934v-2zm-7.836-7.934V9.934h-2v148.444h2zm0-148.444c0-4.391 3.52-7.934 7.836-7.934V0c-5.442 0-9.836 4.46-9.836 9.934h2zM181.59 2h102.574V0H181.59v2zm102.574 0C288.48 2 292 5.543 292 9.934h2C294 4.459 289.605 0 284.164 0v2zM292 9.934v148.444h2V9.934h-2zm0 148.444c0 4.391-3.52 7.934-7.836 7.934v2c5.441 0 9.836-4.459 9.836-9.934h-2zM193.35 32.001h80.25v-2h-80.25v2zm0 15.673h80.25v-2h-80.25v2zm0 15.673h80.25v-2h-80.25v2zm16.608 15.673h47.034v-2h-47.034v2zm-3.853 54.329h54.74v-2h-54.74v2z" fill="#491919" fill-opacity=".15"/><path d="M105.554 88.47c-3.322-4.7-39.728-.672-45.573 1.21-5.845 1.881-26.84 38.419-26.84 38.419H20.385v50.869s64.379 2.063 79.19 0c13.507-1.881 43.826-15.41 61.851-29.832 6.292-5.035 11.087-10.179 13.142-14.973 1.097-2.557-9.242.895-18.978 4.61-8.285 3.16-16.134 6.51-16.134 6.51s23.1-15.8 27.081-22.084a102.255 102.255 0 012.603-3.895c.907-1.297 4.477-6.07 5.315-7.152 2.123-2.741 4.133-5.259 5.758-7.436 2.696-3.612 4.321-6.286 3.623-7.498-11.43 2.523-81.203 14.762-81.203 14.762s-24.317-.268-12.624-3.091c11.693-2.822 18.868-15.718 15.546-20.419z" fill="#491919" fill-opacity=".15"/><path d="M208.236 136.79H98.833c-4.437 0-8.044-3.64-8.044-8.139V61.316c0-4.5 3.607-8.139 8.043-8.139h109.404c4.436 0 8.043 3.64 8.043 8.139v67.335c0 4.499-3.607 8.139-8.043 8.139z" fill="#26293F" fill-opacity=".3" stroke="#000"/><path d="M208.236 137.29H98.833c-4.718 0-8.544-3.869-8.544-8.639V61.316c0-4.77 3.826-8.639 8.543-8.639h109.404c4.717 0 8.543 3.869 8.543 8.639v67.335c0 4.77-3.826 8.639-8.543 8.639zM104.639 68.438h10.897m-10.897 6.808h25.509m-12.221 30.273h17.714m9.036 0h17.714m9.036 0h17.714" stroke="#000" stroke-width="2" stroke-linecap="round" stroke-linejoin="round"/><path d="M91.289 123.683V114.4h124.49v9.283H91.289z" fill="#56586B" stroke="#000" stroke-width="2"/><path d="M204.486 72.605c0 2.352-1.883 4.24-4.183 4.24s-4.183-1.888-4.183-4.24c0-2.353 1.883-4.24 4.183-4.24s4.183 1.887 4.183 4.24z" fill="#F66E62" stroke="#000" stroke-width="2"/><path d="M7.91 180h13.02c3.817 0 6.91-3.126 6.91-6.986v-51.107c0-3.857-3.093-6.987-6.91-6.987H7.91c-3.818 0-6.91 3.13-6.91 6.987v51.107C1 176.874 4.092 180 7.91 180z" stroke="#000" stroke-width="2" stroke-linecap="round" stroke-linejoin="round"/><path d="M83.26 86.556s24.936-1.477 28.9-.183c3.966 1.296 3.232 5.572.954 9.802-2.282 4.23-9.656 11.572-17.007 12.772-7.351 1.2-10.363 1.469-10.363 1.469" fill="#491919" fill-opacity=".15"/><path d="M168.671 137.221c-14.257 16.222-47.115 30.628-61.641 34.21-14.526 3.582-79.19 0-79.19 0v-50.869h12.757s20.723-38.911 26.84-38.42c10.175.82 32.168 1.191 46.733 1.909 5.708.28-4.763 17.37-16.584 19.569-11.821 2.198-14.607 1.896-14.607 1.896l-2.257 7.882s12.224 8.5 5.58 34.062" stroke="#000" stroke-width="2" stroke-linecap="round" stroke-linejoin="round"/><path d="M132.037 73.101c-1.685 0-22.321-11.807-22.321-22.568v-22.57l22.321-10.209 22.322 10.21v22.569c0 11.17-21.042 22.568-22.322 22.568z" fill="#C4C4C4" fill-opacity=".5"/><path d="M132.037 73.101c-1.685 0-22.321-11.807-22.321-22.568v-22.57l22.321-10.209 22.322 10.21v22.569c0 11.17-21.042 22.568-22.322 22.568z" stroke="#656C7F" stroke-opacity=".3" stroke-width="2" stroke-linecap="round" stroke-linejoin="round"/><path d="M124.582 64.725c-1.175 0-15.564-8.235-15.564-15.736v-15.74l15.564-7.119 15.564 7.12v15.739c0 7.788-14.673 15.736-15.564 15.736z" fill="#868686"/><path d="M132.037 64.725c-1.175 0-15.564-8.235-15.564-15.736v-15.74l15.564-7.119 15.564 7.12v15.739c0 7.788-14.672 15.736-15.564 15.736z" stroke="#000" stroke-opacity=".25" stroke-width="2" stroke-linecap="round" stroke-linejoin="round"/></svg>