<svg width="29" height="28" viewBox="0 0 29 28" fill="none" xmlns="http://www.w3.org/2000/svg">
<path d="M14.5012 19.2068C17.3775 19.2068 19.7091 16.8751 19.7091 13.9989C19.7091 11.1227 17.3775 8.79102 14.5012 8.79102C11.625 8.79102 9.29333 11.1227 9.29333 13.9989C9.29333 16.8751 11.625 19.2068 14.5012 19.2068Z" stroke="#E7A600" stroke-width="3" stroke-linecap="round" stroke-linejoin="round"/>
<path d="M21.4121 24.415C19.0917 25.955 16.3234 26.676 13.5465 26.4636C10.7696 26.2511 8.14324 25.1174 6.08405 23.2424C4.02485 21.3673 2.65082 18.8583 2.17997 16.1134C1.70911 13.3685 2.1684 10.5449 3.48497 8.0908C4.80153 5.63665 6.89996 3.69247 9.44728 2.56672C11.9946 1.44098 14.8449 1.19816 17.546 1.8768C20.247 2.55544 22.644 4.11665 24.3568 6.31273C26.0695 8.50881 26.9998 11.214 27 13.9989C27 16.8752 25.9584 19.2068 23.3545 19.2068C20.7505 19.2068 19.709 16.8752 19.709 13.9989V8.79105" stroke="#E7A600" stroke-width="3" stroke-linecap="round" stroke-linejoin="round"/>
</svg>
