<svg width="21" height="20" viewBox="0 0 21 20" fill="none" xmlns="http://www.w3.org/2000/svg"><path fill-rule="evenodd" clip-rule="evenodd" d="M.454 10c0-5.523 4.477-10 10-10 5.522 0 10 4.477 10 10s-4.478 10-10 10a9.953 9.953 0 01-5.469-1.626c-.485-.406-2.038-.762-4.179 1.374l-.016.017-.05-.05-.051-.051.016-.017c2.136-2.14 1.78-3.693 1.375-4.179A9.953 9.953 0 01.454 10zm10 7.857a7.857 7.857 0 100-15.714 7.857 7.857 0 000 15.714z" fill="#FFB800"/><path d="M12.765 15.286c-.34 0-.68-.06-1.01-.18a10.775 10.775 0 01-3.913-2.494 10.773 10.773 0 01-2.494-3.913A2.924 2.924 0 015.2 7.262a2.993 2.993 0 011.54-2.195 2.944 2.944 0 011.41-.352.33.33 0 01.323.261l.518 2.42a.33.33 0 01-.09.303l-.885.886a8.695 8.695 0 003.854 3.853l.886-.886a.33.33 0 01.302-.09l2.42.52a.33.33 0 01.261.322c0 .501-.118.975-.352 1.41a3.005 3.005 0 01-2.195 1.54 2.79 2.79 0 01-.427.032z" fill="#FFB800"/></svg>