<svg width="20" height="20" viewBox="0 0 20 20" fill="none" xmlns="http://www.w3.org/2000/svg">
<path d="M12.6489 2.11035C13.9204 2.45229 15.0796 3.12231 16.0106 4.05329C16.9416 4.98428 17.6116 6.14354 17.9535 7.41497" stroke="#FF36DF" stroke-width="2" stroke-linecap="round" stroke-linejoin="round"/>
<path d="M11.8723 5.00879C12.6352 5.21395 13.3307 5.61596 13.8893 6.17455C14.4479 6.73314 14.8499 7.4287 15.0551 8.19156" stroke="#FF36DF" stroke-width="2" stroke-linecap="round" stroke-linejoin="round"/>
<path d="M6.37327 10.0618C7.15124 11.6523 8.44049 12.9356 10.0345 13.7064C10.1511 13.7616 10.2802 13.7856 10.4088 13.7758C10.5375 13.7661 10.6615 13.723 10.7685 13.6508L13.1156 12.0857C13.2194 12.0165 13.3388 11.9743 13.463 11.9629C13.5873 11.9515 13.7124 11.9712 13.8271 12.0204L18.2181 13.9022C18.3672 13.9656 18.4917 14.0757 18.5729 14.216C18.654 14.3563 18.6874 14.5191 18.6679 14.68C18.5291 15.766 17.9992 16.7642 17.1775 17.4877C16.3557 18.2111 15.2984 18.6103 14.2036 18.6103C10.8221 18.6103 7.57909 17.267 5.188 14.8759C2.79691 12.4848 1.45361 9.24183 1.45361 5.86032C1.45367 4.76548 1.85279 3.70821 2.57625 2.88646C3.29971 2.0647 4.29789 1.53483 5.38389 1.39604C5.54478 1.37657 5.70764 1.40991 5.84793 1.49105C5.98822 1.57218 6.09835 1.69671 6.16171 1.84587L8.04519 6.24067C8.09391 6.35435 8.11376 6.47831 8.10298 6.60151C8.09219 6.72472 8.05111 6.84334 7.98338 6.94682L6.42372 9.32992C6.35274 9.43713 6.31077 9.56091 6.30193 9.68918C6.29308 9.81745 6.31766 9.94582 6.37327 10.0618Z" stroke="#FF36DF" stroke-width="2" stroke-linecap="round" stroke-linejoin="round"/>
</svg>
