<svg width="25" height="25" viewBox="0 0 25 25" fill="none" xmlns="http://www.w3.org/2000/svg">
<path d="M19.0537 24.012H19.0172C14.0037 23.8951 9.21937 21.9988 5.61192 18.6988C2.12686 15.2847 0.123873 10.7545 0.000144564 6.00677C-0.0072383 5.34169 0.268431 4.70179 0.765041 4.23159L4.30689 0.879031C4.8165 0.396443 5.64259 0.396443 6.1522 0.879031L11.3723 5.82381C11.8818 6.30655 11.8818 7.08906 11.3723 7.57179L9.28949 9.54105C9.67579 10.9082 10.3874 12.1734 11.3697 13.2398C12.4934 14.1706 13.8273 14.8451 15.2691 15.2115L17.3572 13.241C17.8668 12.7584 18.6929 12.7584 19.2025 13.241L24.4226 18.1858C24.9321 18.6685 24.9321 19.451 24.4226 19.9338L20.8807 23.2875C20.3978 23.7498 19.7402 24.0105 19.0537 24.012ZM5.22693 3.50224H5.22041L2.61035 5.97957C2.71677 10.0821 4.44564 13.9972 7.45462 16.9496C10.5716 19.7988 14.7038 21.4364 19.0341 21.5383L21.6533 19.0598L18.2707 15.8642L16.5833 17.4614C16.3419 17.6926 16.0131 17.823 15.6698 17.8236C15.5781 17.8236 15.4867 17.8145 15.397 17.7964C13.2224 17.3407 11.2032 16.3754 9.52439 14.989C8.06074 13.3987 7.04172 11.486 6.56067 9.42609C6.46992 9.01662 6.60399 8.59145 6.91695 8.2962L8.60304 6.6978L5.22693 3.50224Z" fill="black"/>
</svg>
