<svg width="24" height="24" viewBox="0 0 24 24" fill="none" xmlns="http://www.w3.org/2000/svg">
<path d="M14.7417 4.11035C16.0131 4.45229 17.1724 5.12231 18.1034 6.05329C19.0344 6.98428 19.7044 8.14354 20.0463 9.41497" stroke="black" stroke-width="2" stroke-linecap="round" stroke-linejoin="round"/>
<path d="M13.9651 7.00879C14.7279 7.21395 15.4235 7.61596 15.9821 8.17455C16.5407 8.73314 16.9427 9.4287 17.1479 10.1916" stroke="black" stroke-width="2" stroke-linecap="round" stroke-linejoin="round"/>
<path d="M8.46604 12.0618C9.24401 13.6523 10.5333 14.9356 12.1273 15.7064C12.2439 15.7616 12.3729 15.7856 12.5016 15.7758C12.6303 15.7661 12.7542 15.723 12.8612 15.6508L15.2083 14.0857C15.3121 14.0165 15.4316 13.9743 15.5558 13.9629C15.68 13.9515 15.8052 13.9712 15.9199 14.0204L20.3108 15.9022C20.46 15.9656 20.5845 16.0757 20.6657 16.216C20.7468 16.3563 20.7801 16.5191 20.7607 16.68C20.6219 17.766 20.092 18.7642 19.2703 19.4877C18.4485 20.2111 17.3912 20.6103 16.2964 20.6103C12.9149 20.6103 9.67186 19.267 7.28078 16.8759C4.88969 14.4848 3.54639 11.2418 3.54639 7.86032C3.54644 6.76548 3.94557 5.70821 4.66903 4.88646C5.39248 4.0647 6.39066 3.53483 7.47667 3.39604C7.63756 3.37657 7.80041 3.40991 7.9407 3.49105C8.081 3.57218 8.19112 3.69671 8.25448 3.84587L10.138 8.24067C10.1867 8.35435 10.2065 8.47831 10.1958 8.60151C10.185 8.72472 10.1439 8.84334 10.0762 8.94682L8.51649 11.3299C8.44551 11.4371 8.40354 11.5609 8.3947 11.6892C8.38586 11.8175 8.41044 11.9458 8.46604 12.0618Z" stroke="black" stroke-width="2" stroke-linecap="round" stroke-linejoin="round"/>
</svg>
