<svg width="40" height="44" viewBox="0 0 40 44" fill="none" xmlns="http://www.w3.org/2000/svg">
<path fill-rule="evenodd" clip-rule="evenodd" d="M7.39821 11.2792C7.85193 9.9181 9.12572 9 10.5605 9H29.0888C30.5235 9 31.7973 9.9181 32.251 11.2792L36.3202 23.4868C36.4335 23.8267 36.4913 24.1827 36.4913 24.5409V35.6667C36.4913 37.5076 34.9989 39 33.158 39H6.49129C4.65034 39 3.15796 37.5076 3.15796 35.6667V24.5409C3.15796 24.1827 3.21572 23.8267 3.32901 23.4868L7.39821 11.2792ZM10.5605 12.3333H29.0888L32.9777 24H28.158C26.6011 24 25.4034 24.3993 24.4496 25.1146C23.593 25.757 23.0393 26.5891 22.6486 27.176L22.6045 27.2422C22.164 27.9029 21.8936 28.2816 21.533 28.5521C21.2367 28.7743 20.7678 29 19.8246 29C18.8815 29 18.4126 28.7743 18.1163 28.5521C17.7557 28.2816 17.4852 27.9029 17.0447 27.2422L17.0006 27.176C16.61 26.589 16.0562 25.757 15.1996 25.1146C14.2459 24.3993 13.0481 24 11.4913 24H6.6716L10.5605 12.3333ZM6.49129 27.3333V35.6667H33.158V27.3333H28.158C27.2148 27.3333 26.7459 27.5591 26.4496 27.7812C26.089 28.0517 25.8185 28.4304 25.378 29.0912L25.334 29.1574C24.9433 29.7443 24.3896 30.5763 23.533 31.2188C22.5792 31.9341 21.3815 32.3333 19.8246 32.3333C18.2678 32.3333 17.07 31.9341 16.1163 31.2188C15.2597 30.5763 14.7059 29.7443 14.3153 29.1574L14.2712 29.0912C13.8307 28.4304 13.5603 28.0517 13.1996 27.7812C12.9034 27.5591 12.4345 27.3333 11.4913 27.3333H6.49129Z" fill="#252930"/>
<path d="M19.7368 0.315796C20.6815 0.315796 21.4473 1.06199 21.4473 1.98246V21.2921L27.0799 15.804C27.7479 15.1531 28.8309 15.1531 29.4989 15.804C30.167 16.4548 30.167 17.5101 29.4989 18.161L20.9463 26.4943C20.2783 27.1452 19.1953 27.1452 18.5273 26.4943L9.97463 18.161C9.30663 17.5101 9.30663 16.4548 9.97463 15.804C10.6426 15.1531 11.7257 15.1531 12.3937 15.804L18.0263 21.2921V1.98246C18.0263 1.06199 18.7921 0.315796 19.7368 0.315796Z" fill="#252930"/>
</svg>
