<svg width="19" height="24" viewBox="0 0 19 24" fill="none" xmlns="http://www.w3.org/2000/svg">
<path d="M9.37495 23.6052C7.68336 22.1993 6.1154 20.6579 4.68748 18.9973C2.54463 16.5034 1.18347e-06 12.7894 1.18347e-06 9.2502C-0.00189813 5.55385 2.28246 2.22067 5.78712 0.80606C9.29177 -0.608552 13.3259 0.174235 16.0071 2.78914C17.7702 4.49949 18.7578 6.82602 18.75 9.2502C18.75 12.7894 16.2053 16.5034 14.0624 18.9973C12.6345 20.6579 11.0666 22.1993 9.37495 23.6052ZM9.37496 2.7252C5.67847 2.72951 2.68299 5.64833 2.67856 9.2502C2.67856 10.7718 3.38436 13.4066 6.74327 17.3229C7.57113 18.2861 8.44953 19.2069 9.37496 20.0817C10.3005 19.208 11.1793 18.2885 12.008 17.3269C15.3655 13.4053 16.0713 10.7705 16.0713 9.2502C16.0669 5.64833 13.0714 2.72951 9.37496 2.7252ZM9.37496 13.1652C7.15597 13.1652 5.35712 11.4124 5.35712 9.2502C5.35712 7.08801 7.15597 5.3352 9.37496 5.3352C11.5939 5.3352 13.3928 7.08801 13.3928 9.2502C13.3928 10.2885 12.9695 11.2843 12.216 12.0185C11.4625 12.7527 10.4406 13.1652 9.37496 13.1652Z" fill="black"/>
</svg>
