<svg width="20" height="20" viewBox="0 0 20 20" fill="none" xmlns="http://www.w3.org/2000/svg">
<path fill-rule="evenodd" clip-rule="evenodd" d="M0 10C0 4.47715 4.47715 0 10 0C15.5228 0 20 4.47715 20 10C20 15.5228 15.5228 20 10 20C7.98184 20 6.10332 19.4022 4.53186 18.3739C4.04605 17.9682 2.49342 17.6124 0.35261 19.7484L0.336166 19.7649L0.285685 19.7143L0.235151 19.6638L0.251616 19.6474C2.38755 17.5066 2.03185 15.954 1.62609 15.4681C0.597842 13.8967 0 12.0182 0 10ZM10 17.8573C14.3394 17.8573 17.8571 14.3395 17.8571 10.0001C17.8571 5.66073 14.3394 2.14297 10 2.14297C5.66062 2.14297 2.14286 5.66073 2.14286 10.0001C2.14286 14.3395 5.66062 17.8573 10 17.8573Z" fill="black"/>
<path d="M12.312 15.2863C11.9707 15.2863 11.6324 15.2259 11.3015 15.1057C9.84391 14.5762 8.49094 13.7138 7.38882 12.6117C6.28671 11.5097 5.4243 10.1567 4.89482 8.69908C4.72467 8.23065 4.67446 7.74711 4.74563 7.26183C4.81229 6.80728 4.98837 6.366 5.25483 5.9857C5.52247 5.60372 5.87929 5.28601 6.28669 5.06693C6.72113 4.83331 7.19532 4.71484 7.69613 4.71484C7.85188 4.71484 7.9865 4.82367 8.01914 4.97596L8.53766 7.39571C8.56113 7.50528 8.52746 7.61929 8.44824 7.69853L7.56223 8.58451C8.39805 10.2463 9.75428 11.6025 11.416 12.4383L12.302 11.5523C12.3813 11.4731 12.4953 11.4394 12.6048 11.4629L15.0246 11.9814C15.1769 12.014 15.2857 12.1486 15.2857 12.3044C15.2857 12.8052 15.1673 13.2794 14.9336 13.7139C14.7145 14.1213 14.3968 14.4781 14.0148 14.7457C13.6346 15.0122 13.1933 15.1882 12.7387 15.2549C12.5963 15.2758 12.4538 15.2863 12.312 15.2863Z" fill="black"/>
</svg>
