<svg width="26" height="25" viewBox="0 0 26 25" fill="none" xmlns="http://www.w3.org/2000/svg">
<g clip-path="url(#clip0)">
<path d="M21.0861 18.78C19.8145 20.5908 15.861 18.2172 13.2484 18.2661C10.4508 18.315 6.21985 20.6398 4.87888 18.78C3.09863 13.8369 2.98303 9.35869 4.87888 4.39109C7.1909 1.96847 19.0747 1.7727 21.0861 4.39109C22.8895 9.21186 23.0513 13.4943 21.0861 18.78Z" fill="white"/>
<path d="M20.6553 18.9102C19.4495 20.3921 15.7004 18.4581 13.2229 18.4832C10.57 18.5083 6.55786 20.4423 5.28624 18.9102C3.59805 14.8412 4.8916 11.1489 6.68941 7.05483C8.88186 5.07057 17.3447 4.89474 19.2302 7.05483C20.9623 11.0485 22.5189 14.5398 20.6553 18.9102Z" fill="#FFBC00"/>
<path d="M21.0861 18.78C19.8145 20.5908 15.861 18.2172 13.2484 18.2661C10.4508 18.315 6.21985 20.6398 4.87888 18.78C3.09863 13.8369 2.98303 9.35869 4.87888 4.39109C7.1909 1.96847 19.0747 1.7727 21.0861 4.39109C22.8895 9.21186 23.0513 13.4943 21.0861 18.78Z" stroke="black" stroke-width="2" stroke-miterlimit="10"/>
<path d="M7.5 19.5V22.5" stroke="black" stroke-width="2" stroke-miterlimit="10"/>
<path d="M18.5 19.5V22.5" stroke="black" stroke-width="2" stroke-miterlimit="10"/>
</g>
<defs>
<clipPath id="clip0">
<rect width="25" height="25" fill="white" transform="translate(0.5)"/>
</clipPath>
</defs>
</svg>
