<svg width="20" height="20" viewBox="0 0 20 20" fill="none" xmlns="http://www.w3.org/2000/svg"><path fill-rule="evenodd" clip-rule="evenodd" d="M0 10C0 4.477 4.477 0 10 0s10 4.477 10 10-4.477 10-10 10a9.953 9.953 0 01-5.468-1.626c-.486-.406-2.039-.762-4.18 1.374l-.016.017-.05-.05-.05-.051.016-.017c2.136-2.14 1.78-3.693 1.374-4.179A9.953 9.953 0 010 10zm10 7.857a7.857 7.857 0 100-15.714 7.857 7.857 0 000 15.714z" fill="#fff"/><path d="M12.312 15.286c-.341 0-.68-.06-1.01-.18a10.776 10.776 0 01-3.913-2.495A10.774 10.774 0 014.895 8.7a2.924 2.924 0 01-.15-1.438 2.993 2.993 0 011.542-2.195 2.944 2.944 0 011.41-.352.33.33 0 01.322.261l.519 2.42a.33.33 0 01-.09.303l-.886.886a8.695 8.695 0 003.854 3.854l.886-.886a.33.33 0 01.303-.09l2.42.519a.33.33 0 01.26.323c0 .5-.118.975-.351 1.41a3.005 3.005 0 01-2.195 1.54 2.933 2.933 0 01-.427.032z" fill="#fff"/></svg>