<svg width="18" height="24" viewBox="0 0 18 24" fill="none" xmlns="http://www.w3.org/2000/svg"><path d="M9 24a39.039 39.039 0 01-4.5-4.707C2.443 16.746 0 12.952 0 9.336-.002 5.561 2.191 2.156 5.556.711c3.364-1.445 7.237-.646 9.81 2.025C17.06 4.484 18.009 6.86 18 9.336c0 3.616-2.443 7.41-4.5 9.957A39.038 39.038 0 019 24zM9 2.671c-3.549.004-6.424 2.986-6.429 6.665 0 1.555.678 4.246 3.903 8.247A36.767 36.767 0 009 20.4a36.985 36.985 0 002.528-2.814c3.223-4.006 3.9-6.698 3.9-8.25-.004-3.68-2.88-6.662-6.428-6.666zm0 10.665c-2.13 0-3.857-1.791-3.857-4C5.143 7.128 6.87 5.337 9 5.337s3.857 1.79 3.857 4c0 1.06-.406 2.077-1.13 2.827A3.79 3.79 0 019 13.335z" fill="#FFB800"/></svg>