<svg width="20" height="20" viewBox="0 0 20 20" fill="none" xmlns="http://www.w3.org/2000/svg"><path d="M12.649 2.11a7.514 7.514 0 015.304 5.305m-6.081-2.406a4.508 4.508 0 013.183 3.183m-8.682 1.87a7.908 7.908 0 003.661 3.644.743.743 0 00.734-.055l2.348-1.565a.75.75 0 01.711-.066l4.391 1.882a.748.748 0 01.45.778 4.501 4.501 0 01-4.464 3.93A12.75 12.75 0 011.454 5.86a4.5 4.5 0 013.93-4.464.747.747 0 01.778.45L8.045 6.24a.75.75 0 01-.062.706L6.423 9.33a.743.743 0 00-.05.732v0z" stroke="#FFB800" stroke-width="2" stroke-linecap="round" stroke-linejoin="round"/></svg>