<svg width="20" height="20" viewBox="0 0 20 20" fill="none" xmlns="http://www.w3.org/2000/svg">
<path d="M10.0008 13.7484C12.0717 13.7484 13.7505 12.0696 13.7505 9.99871C13.7505 7.92781 12.0717 6.24902 10.0008 6.24902C7.92995 6.24902 6.25116 7.92781 6.25116 9.99871C6.25116 12.0696 7.92995 13.7484 10.0008 13.7484Z" stroke="black" stroke-width="2" stroke-linecap="round" stroke-linejoin="round"/>
<path d="M14.9767 17.4988C13.306 18.6076 11.3128 19.1267 9.31349 18.9738C7.31414 18.8208 5.42313 18.0046 3.94051 16.6545C2.4579 15.3045 1.46859 13.4979 1.12957 11.5216C0.790559 9.5453 1.12125 7.51236 2.06918 5.74537C3.0171 3.97839 4.52797 2.57858 6.36204 1.76804C8.19612 0.957507 10.2483 0.782678 12.1931 1.2713C14.1378 1.75991 15.8637 2.88399 17.0969 4.46517C18.33 6.04634 18.9998 7.99405 19 9.99924C19 12.0701 18.2501 13.7489 16.3752 13.7489C14.5004 13.7489 13.7504 12.0701 13.7504 9.99924V6.24956" stroke="black" stroke-width="2" stroke-linecap="round" stroke-linejoin="round"/>
</svg>
