<svg width="21" height="21" viewBox="0 0 21 21" fill="none" xmlns="http://www.w3.org/2000/svg"><path d="M10.5 6.333c-1.726 0-3.125.933-3.125 2.084 0 1.15 1.399 2.083 3.125 2.083s3.125.932 3.125 2.083c0 1.151-1.399 2.084-3.125 2.084m0-8.334v8.334m0-8.334c1.156 0 2.167.42 2.707 1.042M10.5 6.333V5.292m0 9.375v1.041m0-1.041c-1.156 0-2.167-.42-2.707-1.042M19.875 10.5a9.376 9.376 0 01-18.036 3.588A9.376 9.376 0 1119.875 10.5z" stroke="#000" stroke-width="2" stroke-linecap="round" stroke-linejoin="round"/></svg>