<svg width="29" height="27" viewBox="0 0 29 27" fill="none" xmlns="http://www.w3.org/2000/svg">
<path d="M14.5012 18.3351C17.3774 18.3351 19.7091 16.1438 19.7091 13.4407C19.7091 10.7377 17.3774 8.54639 14.5012 8.54639C11.6249 8.54639 9.29329 10.7377 9.29329 13.4407C9.29329 16.1438 11.6249 18.3351 14.5012 18.3351Z" stroke="black" stroke-width="3" stroke-linecap="round" stroke-linejoin="round"/>
<path d="M21.4121 23.2297C19.0917 24.677 16.3234 25.3546 13.5465 25.155C10.7696 24.9553 8.14324 23.8899 6.08405 22.1277C4.02486 20.3655 2.65082 18.0075 2.17997 15.4279C1.70911 12.8483 2.1684 10.1947 3.48497 7.88833C4.80153 5.58194 6.89996 3.7548 9.44728 2.69684C11.9946 1.63887 14.8449 1.41067 17.546 2.04845C20.247 2.68623 22.6441 4.15345 24.3568 6.21731C26.0695 8.28117 26.9998 10.8235 27 13.4408C27 16.1438 25.9584 18.3351 23.3545 18.3351C20.7505 18.3351 19.709 16.1438 19.709 13.4408V8.54643" stroke="black" stroke-width="3" stroke-linecap="round" stroke-linejoin="round"/>
</svg>
