<svg width="64" height="68" viewBox="0 0 64 68" fill="none" xmlns="http://www.w3.org/2000/svg">
<path d="M57.7734 17H5.97656C4.87631 17 3.98438 17.9514 3.98438 19.125V48.875C3.98438 50.0486 4.87631 51 5.97656 51H57.7734C58.8737 51 59.7656 50.0486 59.7656 48.875V19.125C59.7656 17.9514 58.8737 17 57.7734 17Z" stroke="black" stroke-width="4" stroke-linecap="round" stroke-linejoin="round"/>
<path d="M31.875 42.5C36.276 42.5 39.8438 38.6944 39.8438 34C39.8438 29.3056 36.276 25.5 31.875 25.5C27.474 25.5 23.9062 29.3056 23.9062 34C23.9062 38.6944 27.474 42.5 31.875 42.5Z" stroke="black" stroke-width="4" stroke-linecap="round" stroke-linejoin="round"/>
<path d="M43.8281 17L59.7656 31.875" stroke="black" stroke-width="4" stroke-linecap="round" stroke-linejoin="round"/>
<path d="M43.8281 51L59.7656 36.125" stroke="black" stroke-width="4" stroke-linecap="round" stroke-linejoin="round"/>
<path d="M19.9219 17L3.98438 31.875" stroke="black" stroke-width="4" stroke-linecap="round" stroke-linejoin="round"/>
<path d="M19.9219 51L3.98438 36.125" stroke="black" stroke-width="4" stroke-linecap="round" stroke-linejoin="round"/>
</svg>
