<svg width="36" height="37" viewBox="0 0 36 37" fill="none" xmlns="http://www.w3.org/2000/svg">
<path d="M33.75 37H2.25C1.00736 37 0 36.1087 0 35.0093V15.8128C0.0348551 15.325 0.269188 14.865 0.65925 14.5189L16.4092 0.58385C16.8313 0.21004 17.4039 0 18.0011 0C18.5983 0 19.171 0.21004 19.593 0.58385L35.343 14.5189C35.7654 14.8917 36.002 15.3984 36 15.9263V35.0093C36 36.1087 34.9926 37 33.75 37ZM18 4.80616L4.5 16.7504V33.0186H31.5V16.7504L18 4.80616ZM14.625 30.1499L8.5365 24.775L11.7 21.9522L14.625 24.5242L24.3 15.98L27.477 18.7989L14.625 30.148V30.1499Z" fill="black"/>
</svg>
