<svg width="56" height="32" viewBox="0 0 56 32" fill="none" xmlns="http://www.w3.org/2000/svg">
<path d="M17.2697 18.2373C17.2697 18.9715 16.6632 19.578 15.929 19.578H4.59678C3.86258 19.578 3.25607 18.9715 3.25607 18.2373V3.10634C3.25607 2.37214 3.86258 1.76562 4.59678 1.76562H15.929C16.6632 1.76562 17.2697 2.37214 17.2697 3.10634V18.2373Z" fill="white"/>
<path d="M17.2697 17.0886C17.2697 17.8228 16.6632 18.4293 15.929 18.4293H4.59678C3.86258 18.4293 3.25607 17.8228 3.25607 17.0886L5.3629 6.33095C5.3629 5.59675 5.96942 4.99023 6.70362 4.99023H13.8541C14.5883 4.99023 15.1948 5.59675 15.1948 6.33095L17.2697 17.0886Z" fill="#2C5EFF"/>
<path d="M17.2697 18.2378H3.25607V3.68143C3.25607 2.94723 3.92642 2.08534 4.59678 1.76612C5.68212 1.2873 6.73554 1 10.3427 1C13.5349 1 14.9075 1.2873 15.929 1.76612C16.5994 2.08534 17.2697 3.26645 17.2697 3.4899V18.2378Z" stroke="black" stroke-width="2" stroke-miterlimit="10"/>
<path d="M3.05176e-05 18.4297H20.4938" stroke="black" stroke-width="2" stroke-miterlimit="10"/>
<path d="M10.2469 18.4297V31.8368" stroke="black" stroke-width="2" stroke-miterlimit="10"/>
<path d="M6.44827 18.4297L4.53296 31.8368" stroke="black" stroke-width="2" stroke-miterlimit="10"/>
<path d="M14.0775 18.4297L15.9609 31.8368" stroke="black" stroke-width="2" stroke-miterlimit="10"/>
<path d="M52.7748 24.0357C51.0191 26.3979 45.5605 23.3015 41.9533 23.3654C38.0908 23.4292 32.2491 26.4618 30.3976 24.0357C27.9396 17.5875 27.78 11.7458 30.3976 5.26572C33.5898 2.10546 49.9976 1.85008 52.7748 5.26572C55.2647 11.5543 55.4881 17.1406 52.7748 24.0357Z" fill="white"/>
<path d="M52.7748 24.2267C51.0191 26.1101 45.5605 23.6521 41.9533 23.6841C38.0908 23.716 32.2491 26.174 30.3976 24.2267C27.9396 19.0554 29.823 14.3629 32.4406 9.15964C35.6328 6.63782 47.9546 6.41437 50.6999 9.15964C53.2217 14.2352 55.4882 18.6723 52.7748 24.2267Z" fill="#FFBC00"/>
<path d="M52.7748 24.0357C51.0191 26.3979 45.5605 23.3015 41.9533 23.3654C38.0908 23.4292 32.2491 26.4618 30.3976 24.0357C27.9396 17.5875 27.78 11.7458 30.3976 5.26572C33.5898 2.10546 49.9976 1.85008 52.7748 5.26572C55.2647 11.5543 55.4881 17.1406 52.7748 24.0357Z" stroke="black" stroke-width="2" stroke-miterlimit="10"/>
<path d="M34.707 24.9932V30.0368" stroke="black" stroke-width="2" stroke-miterlimit="10"/>
<path d="M48.7846 24.9932V30.0368" stroke="black" stroke-width="2" stroke-miterlimit="10"/>
</svg>
