<svg width="63" height="64" viewBox="0 0 63 64" fill="none" xmlns="http://www.w3.org/2000/svg">
<path d="M50.9412 51.6028H11.7557C10.7164 51.6028 9.71969 51.1846 8.98481 50.4402C8.24994 49.6957 7.8371 48.6861 7.8371 47.6333V19.8472C7.8371 18.7945 8.24994 17.7848 8.98481 17.0404C9.71969 16.296 10.7164 15.8778 11.7557 15.8778H19.5913L23.5099 9.92361H39.1841L43.1026 15.8778H50.9412C51.9804 15.8778 52.9771 16.296 53.712 17.0404C54.4469 17.7848 54.8597 18.7945 54.8597 19.8472V47.6333C54.8597 48.6861 54.4469 49.6957 53.712 50.4402C52.9771 51.1846 51.9804 51.6028 50.9412 51.6028Z" stroke="black" stroke-width="4" stroke-linecap="round" stroke-linejoin="round"/>
<path opacity="0.3" d="M46.7614 46.5218H7.57584C6.53658 46.5218 5.53988 46.1036 4.80501 45.3592C4.07013 44.6148 3.65729 43.6052 3.65729 42.5524V14.7663C3.65729 13.7135 4.07013 12.7039 4.80501 11.9595C5.53988 11.2151 6.53658 10.7968 7.57584 10.7968H15.4115L19.3301 4.84268H35.0043L38.9228 10.7968H46.7614C47.8006 10.7968 48.7973 11.2151 49.5322 11.9595C50.2671 12.7039 50.6799 13.7135 50.6799 14.7663V42.5524C50.6799 43.6052 50.2671 44.6148 49.5322 45.3592C48.7973 46.1036 47.8006 46.5218 46.7614 46.5218Z" fill="url(#paint0_linear)"/>
<path d="M31.3484 41.6791C36.2178 41.6791 40.1652 37.6805 40.1652 32.7479C40.1652 27.8153 36.2178 23.8167 31.3484 23.8167C26.4791 23.8167 22.5317 27.8153 22.5317 32.7479C22.5317 37.6805 26.4791 41.6791 31.3484 41.6791Z" stroke="black" stroke-width="4" stroke-linecap="round" stroke-linejoin="round"/>
<defs>
<linearGradient id="paint0_linear" x1="3.27807" y1="25.7026" x2="51.1288" y2="25.7026" gradientUnits="userSpaceOnUse">
<stop stop-color="#D1DBDD"/>
<stop offset="1" stop-color="#EAEDF0"/>
</linearGradient>
</defs>
</svg>
