<svg width="58" height="57" viewBox="0 0 58 57" fill="none" xmlns="http://www.w3.org/2000/svg">
<path d="M53.7969 27.1898H39.5138V18.2836H49.0173C49.3742 18.2836 49.7228 18.3902 50.0183 18.5898C50.3138 18.7894 50.5425 19.0727 50.675 19.4033L53.7969 27.1898Z" stroke="black" stroke-width="4" stroke-linecap="round" stroke-linejoin="round"/>
<path d="M3.80606 32.5336H39.5138" stroke="black" stroke-width="4" stroke-linecap="round" stroke-linejoin="round"/>
<path d="M42.1919 48.5648C45.15 48.5648 47.548 46.1723 47.548 43.2211C47.548 40.2698 45.15 37.8773 42.1919 37.8773C39.2337 37.8773 36.8357 40.2698 36.8357 43.2211C36.8357 46.1723 39.2337 48.5648 42.1919 48.5648Z" stroke="black" stroke-width="4" stroke-miterlimit="10" stroke-linejoin="round"/>
<path d="M15.4111 48.5648C18.3692 48.5648 20.7672 46.1723 20.7672 43.2211C20.7672 40.2698 18.3692 37.8773 15.4111 37.8773C12.4529 37.8773 10.0549 40.2698 10.0549 43.2211C10.0549 46.1723 12.4529 48.5648 15.4111 48.5648Z" stroke="black" stroke-width="4" stroke-miterlimit="10" stroke-linejoin="round"/>
<path d="M36.8357 43.2211H20.7672" stroke="black" stroke-width="4" stroke-linecap="round" stroke-linejoin="round"/>
<path d="M10.0549 43.2211H5.59145C5.11793 43.2211 4.66381 43.0334 4.32899 42.6994C3.99416 42.3653 3.80606 41.9122 3.80606 41.4398V16.5023C3.80606 16.0299 3.99416 15.5768 4.32899 15.2428C4.66381 14.9087 5.11793 14.7211 5.59145 14.7211H39.5138V38.5932" stroke="black" stroke-width="4" stroke-linecap="round" stroke-linejoin="round"/>
<path d="M39.5138 38.5932V27.1898H53.7969V41.4398C53.7969 41.9122 53.6088 42.3653 53.2739 42.6994C52.9391 43.0334 52.485 43.2211 52.0115 43.2211H47.548" stroke="black" stroke-width="4" stroke-linecap="round" stroke-linejoin="round"/>
</svg>
