<svg width="105" height="74" viewBox="0 0 105 74" fill="none" xmlns="http://www.w3.org/2000/svg">
<path d="M14.288 55.4397V68.4832H10.5627V58.5565H3.72534V68.4832H0V55.4397H14.288Z" fill="black"/>
<path d="M17.8089 58.7484L18.922 59.3675C19.5807 59.0259 20.2849 58.7697 21.0345 58.5989C21.7841 58.4282 22.6019 58.3428 23.5105 58.3428C24.669 58.3428 25.623 58.4709 26.3954 58.727C27.145 58.9832 27.7583 59.3248 28.2126 59.7731C28.6669 60.2214 28.9849 60.7337 29.1666 61.3315C29.3484 61.9292 29.4392 62.5483 29.4392 63.2314V64C29.4392 64.6831 29.3484 65.3022 29.1666 65.8999C28.9849 66.4977 28.6669 67.01 28.2126 67.4583C27.7583 67.9066 27.145 68.2482 26.3954 68.5044C25.6457 68.7605 24.669 68.8886 23.5105 68.8886C22.8972 68.8886 22.3066 68.8459 21.7841 68.7819C21.2617 68.6965 20.7619 68.5897 20.2622 68.4403V73.3717H16.9684V58.7484H17.8089ZM23.3288 61.182C22.7382 61.182 22.2157 61.2247 21.716 61.2888C21.2162 61.3528 20.7392 61.4596 20.2849 61.609V65.6437C21.1935 65.9213 22.2157 66.0494 23.3288 66.0494C24.0329 66.0494 24.5781 65.9853 24.9416 65.8359C25.305 65.7078 25.6003 65.5157 25.7593 65.3022C25.941 65.0887 26.0319 64.8325 26.0773 64.5337C26.1001 64.2348 26.1228 63.9359 26.1228 63.6157C26.1228 63.2955 26.1001 62.9966 26.0773 62.6977C26.0546 62.3989 25.941 62.1427 25.7593 61.9292C25.5776 61.7157 25.305 61.5236 24.9416 61.3955C24.5781 61.2461 24.0329 61.182 23.3288 61.182Z" fill="black"/>
<path d="M44.4996 58.749V68.4836H41.1831V62.4849L35.368 68.4836H32.0515V58.749H35.368V64.7478L41.1831 58.749H44.4996Z" fill="black"/>
<path d="M53.0179 68.8675C51.8594 68.8675 50.9054 68.7394 50.133 68.4832C49.3834 68.227 48.7701 67.8855 48.3158 67.4372C47.8615 66.9888 47.5435 66.4765 47.3618 65.8788C47.18 65.281 47.0892 64.6619 47.0892 63.9788V63.2316C47.0892 62.5485 47.18 61.9294 47.3618 61.3317C47.5435 60.7339 47.8615 60.2216 48.3158 59.7733C48.7701 59.325 49.3834 58.9834 50.133 58.7272C50.8827 58.471 51.8594 58.343 53.0179 58.343H53.6085C54.7897 58.343 55.7438 58.4283 56.4934 58.5778C57.243 58.7486 57.8109 58.962 58.2425 59.2396C58.6513 59.5171 58.9466 59.8587 59.0829 60.2429C59.2419 60.6272 59.3101 61.0114 59.3101 61.4597V61.6519C59.3101 62.0361 59.2647 62.4204 59.1511 62.762C59.0375 63.1035 58.8104 63.4238 58.4242 63.7013C58.038 63.9788 57.4701 64.1923 56.7205 64.3417C55.9709 64.4911 54.9487 64.5765 53.6539 64.5765C53.0406 64.5765 52.45 64.5552 51.9276 64.4911C51.4051 64.4484 50.9054 64.3417 50.4283 64.2136C50.4511 64.4911 50.4965 64.726 50.5646 64.9608C50.6555 65.1956 50.7918 65.3878 51.0417 65.5372C51.2688 65.6866 51.5868 65.8147 51.9957 65.9001C52.4046 65.9855 52.9725 66.0282 53.6539 66.0282C53.9947 66.0282 54.3581 66.0068 54.767 65.9855C55.1759 65.9641 55.5848 65.9215 56.0391 65.8788C56.4707 65.8361 56.9023 65.772 57.3338 65.708C57.7654 65.6439 58.1516 65.5585 58.515 65.4518V68.3765C58.1516 68.4619 57.7654 68.5259 57.3338 68.5899C56.9023 68.654 56.4707 68.6967 56.0391 68.7394C55.5848 68.7821 55.1532 68.8248 54.6989 68.8461C54.2673 68.8675 53.8357 68.8675 53.4495 68.8675H53.0179V68.8675ZM49.656 55.7172C49.656 55.4183 49.7469 55.1621 49.9513 54.9486C50.1558 54.7352 50.4965 54.6284 51.0189 54.6284H51.178C51.7004 54.6284 52.0639 54.7352 52.2456 54.9486C52.45 55.1621 52.5409 55.4183 52.5409 55.7172V55.952C52.5409 56.2509 52.45 56.507 52.2456 56.7205C52.0411 56.934 51.7004 57.0407 51.178 57.0407H51.0189C50.4965 57.0407 50.133 56.934 49.9513 56.7205C49.7469 56.507 49.656 56.2509 49.656 55.952V55.7172ZM53.6085 60.798C53.0633 60.798 52.5863 60.8193 52.2229 60.8834C51.8594 60.9474 51.5414 61.0328 51.3143 61.1395C51.0871 61.2463 50.9054 61.3957 50.7691 61.5665C50.6555 61.7373 50.5646 61.9294 50.4965 62.1429C50.9054 62.2496 51.337 62.3137 51.7913 62.3564C52.2456 62.3991 52.7908 62.4204 53.4041 62.4204C54.0174 62.4204 54.4944 62.3991 54.8351 62.3564C55.1759 62.3137 55.4257 62.2496 55.6075 62.1856C55.7665 62.1215 55.8801 62.0361 55.9255 61.9507C55.9709 61.8654 55.9936 61.78 55.9936 61.6946C55.9936 61.6092 55.9709 61.5024 55.9482 61.3957C55.9028 61.289 55.8119 61.1822 55.6529 61.0968C55.4939 61.0114 55.2667 60.926 54.9487 60.8834C54.5853 60.8193 54.1537 60.798 53.6085 60.798ZM53.7902 55.7172C53.7902 55.4183 53.8811 55.1621 54.0855 54.9486C54.29 54.7352 54.6307 54.6284 55.1532 54.6284H55.3122C55.8346 54.6284 56.1981 54.7352 56.3798 54.9486C56.5842 55.1621 56.6751 55.4183 56.6751 55.7172V55.952C56.6751 56.2509 56.5842 56.507 56.3798 56.7205C56.1754 56.934 55.8346 57.0407 55.3122 57.0407H55.1532C54.6307 57.0407 54.2673 56.934 54.0855 56.7205C53.8811 56.507 53.7902 56.2509 53.7902 55.952V55.7172Z" fill="black"/>
<path d="M67.8511 66.3275L65.1933 63.168V68.4623H61.8769V58.749H64.8526L68.6007 63.0613L72.3487 58.749H75.3244V68.4836H72.008V63.1894L69.3503 66.3489H67.8511V66.3275Z" fill="black"/>
<path d="M86.8867 68.4836L84.5697 65.0466H81.2532V68.4836H77.9368V58.749L81.2532 58.7704V62.186H84.5697L86.8867 58.749H90.0668V59.5175L87.3183 63.6163L90.0668 67.7151V68.4836H86.8867V68.4836Z" fill="black"/>
<path d="M104.332 68.483H103.514L102.401 67.8853C101.697 68.2269 100.97 68.483 100.198 68.6325C99.4483 68.8033 98.5851 68.8673 97.6311 68.8673C96.518 68.8673 95.5867 68.7819 94.8371 68.6111C94.0874 68.4404 93.4968 68.2055 93.0652 67.8853C92.6337 67.5864 92.3156 67.2235 92.1339 66.8393C91.9522 66.4336 91.8613 66.028 91.8613 65.6011V65.4089C91.8613 65.0033 91.9522 64.6191 92.1339 64.2562C92.3156 63.8932 92.6337 63.573 93.088 63.2955C93.5423 63.018 94.1329 62.8045 94.8598 62.6551C95.5867 62.5056 96.4953 62.4202 97.5629 62.4202C98.9258 62.4202 100.062 62.5483 101.016 62.7831C100.993 62.527 100.97 62.2921 100.902 62.1C100.834 61.9079 100.698 61.7371 100.493 61.5877C100.289 61.4596 99.9708 61.3528 99.5619 61.2674C99.153 61.2034 98.6078 61.1607 97.9264 61.1607C97.5629 61.1607 97.154 61.182 96.7224 61.2034C96.2908 61.2247 95.8592 61.2674 95.4277 61.3101C94.9961 61.3528 94.5645 61.4169 94.1329 61.5023C93.7013 61.5877 93.3151 61.6731 92.9517 61.7584V58.8338C93.3151 58.7484 93.7013 58.6843 94.1329 58.6203C94.5645 58.5563 94.9961 58.5136 95.4277 58.4709C95.882 58.4282 96.3136 58.3855 96.7452 58.3641C97.1767 58.3428 97.6083 58.3428 97.9945 58.3428C99.153 58.3428 100.13 58.4282 100.925 58.6203C101.72 58.8124 102.356 59.0899 102.856 59.4315C103.355 59.7944 103.719 60.2427 103.923 60.7551C104.15 61.2888 104.264 61.9079 104.264 62.6124V68.483H104.332ZM97.9718 66.4336C99.0621 66.4336 100.084 66.3056 101.016 66.028V65.1101C100.539 65.0033 100.039 64.8966 99.5164 64.8539C98.994 64.7899 98.4034 64.7685 97.7446 64.7685C97.1313 64.7685 96.6316 64.7899 96.2908 64.8539C95.9501 64.8966 95.7002 64.982 95.5185 65.0674C95.3595 65.1528 95.2459 65.2382 95.2005 65.3449C95.1551 65.4516 95.1324 65.537 95.1324 65.6438C95.1324 65.7505 95.1551 65.8573 95.2005 65.964C95.2459 66.0707 95.3595 66.1561 95.5412 66.2202C95.723 66.3056 96.0183 66.3483 96.3817 66.3909C96.7906 66.4123 97.313 66.4336 97.9718 66.4336Z" fill="black"/>
<path d="M60.1786 16.4995L48.3455 10.1571L50.8543 8.83008L62.6874 15.231L60.1786 16.4995Z" fill="black"/>
<path d="M53.0622 22.0814L71 12.3379L70.9378 31.728L53 41.4715L53.0622 22.0814Z" fill="#F9E2A0"/>
<path d="M53 41.4715L35 31.2825V12.3379L53 22.0814V41.4715Z" fill="#F7C434"/>
<path d="M63.8999 23.7794L61.4748 25.1649V17.398L63.8999 16.0125V23.7794Z" fill="black"/>
<path d="M35 11.3979L53.0622 21.7357L71 11.3979" stroke="black" stroke-width="3" stroke-miterlimit="10"/>
<path d="M71 11.8974L70.9379 31.574L53.0311 41.4713L35 31.574L35.0621 11.8974L52.9689 2L71 11.8974Z" stroke="black" stroke-width="3" stroke-miterlimit="10"/>
</svg>
