<svg width="154" height="46" viewBox="0 0 154 46" fill="none" xmlns="http://www.w3.org/2000/svg">
<path d="M63.288 15.8633V29.7424H59.5627V19.1797H52.7253V29.7424H49V15.8633H63.288Z" fill="black"/>
<path d="M66.8089 19.3837L67.922 20.0425C68.5807 19.679 69.2849 19.4065 70.0345 19.2247C70.7841 19.043 71.6019 18.9521 72.5105 18.9521C73.669 18.9521 74.623 19.0884 75.3953 19.361C76.145 19.6336 76.7583 19.9971 77.2126 20.4741C77.6669 20.9511 77.9849 21.4963 78.1666 22.1323C78.3484 22.7683 78.4392 23.4271 78.4392 24.154V24.9717C78.4392 25.6986 78.3484 26.3574 78.1666 26.9934C77.9849 27.6295 77.6669 28.1746 77.2126 28.6516C76.7583 29.1287 76.145 29.4921 75.3953 29.7647C74.6457 30.0373 73.669 30.1736 72.5105 30.1736C71.8972 30.1736 71.3066 30.1282 70.7841 30.06C70.2617 29.9691 69.7619 29.8556 69.2622 29.6966V34.9438H65.9684V19.3837H66.8089ZM72.3288 21.9733C71.7382 21.9733 71.2157 22.0187 70.716 22.0869C70.2162 22.155 69.7392 22.2686 69.2849 22.4276V26.7208C70.1935 27.0161 71.2157 27.1524 72.3288 27.1524C73.0329 27.1524 73.5781 27.0843 73.9416 26.9253C74.305 26.789 74.6003 26.5845 74.7593 26.3574C74.941 26.1302 75.0319 25.8576 75.0773 25.5396C75.1 25.2216 75.1228 24.9036 75.1228 24.5629C75.1228 24.2221 75.1 23.9041 75.0773 23.5861C75.0546 23.2681 74.941 22.9955 74.7593 22.7683C74.5776 22.5412 74.305 22.3367 73.9416 22.2005C73.5781 22.0414 73.0329 21.9733 72.3288 21.9733Z" fill="black"/>
<path d="M93.4996 19.3848V29.743H90.1831V23.36L84.368 29.743H81.0515V19.3848H84.368V25.7678L90.1831 19.3848H93.4996Z" fill="black"/>
<path d="M102.018 30.1512C100.859 30.1512 99.9053 30.0149 99.133 29.7423C98.3834 29.4697 97.7701 29.1063 97.3158 28.6293C96.8615 28.1522 96.5435 27.6071 96.3617 26.971C96.18 26.335 96.0891 25.6763 96.0891 24.9494V24.1543C96.0891 23.4274 96.18 22.7687 96.3617 22.1327C96.5435 21.4966 96.8615 20.9515 97.3158 20.4744C97.7701 19.9974 98.3834 19.634 99.133 19.3614C99.8826 19.0888 100.859 18.9525 102.018 18.9525H102.608C103.79 18.9525 104.744 19.0434 105.493 19.2024C106.243 19.3841 106.811 19.6112 107.242 19.9065C107.651 20.2018 107.947 20.5653 108.083 20.9742C108.242 21.383 108.31 21.7919 108.31 22.2689V22.4734C108.31 22.8823 108.265 23.2911 108.151 23.6546C108.037 24.018 107.81 24.3588 107.424 24.6541C107.038 24.9494 106.47 25.1765 105.72 25.3355C104.971 25.4945 103.949 25.5854 102.654 25.5854C102.041 25.5854 101.45 25.5627 100.928 25.4945C100.405 25.4491 99.9053 25.3355 99.4283 25.1992C99.451 25.4945 99.4965 25.7444 99.5646 25.9943C99.6555 26.2442 99.7918 26.4486 100.042 26.6076C100.269 26.7666 100.587 26.9029 100.996 26.9938C101.405 27.0846 101.972 27.1301 102.654 27.1301C102.995 27.1301 103.358 27.1073 103.767 27.0846C104.176 27.0619 104.585 27.0165 105.039 26.971C105.471 26.9256 105.902 26.8575 106.334 26.7893C106.765 26.7212 107.152 26.6303 107.515 26.5167V29.6288C107.152 29.7196 106.765 29.7878 106.334 29.8559C105.902 29.9241 105.471 29.9695 105.039 30.0149C104.585 30.0603 104.153 30.1058 103.699 30.1285C103.267 30.1512 102.836 30.1512 102.449 30.1512H102.018V30.1512ZM98.656 16.1585C98.656 15.8405 98.7469 15.5679 98.9513 15.3407C99.1557 15.1136 99.4965 15 100.019 15H100.178C100.7 15 101.064 15.1136 101.246 15.3407C101.45 15.5679 101.541 15.8405 101.541 16.1585V16.4084C101.541 16.7264 101.45 16.999 101.246 17.2261C101.041 17.4533 100.7 17.5668 100.178 17.5668H100.019C99.4965 17.5668 99.133 17.4533 98.9513 17.2261C98.7469 16.999 98.656 16.7264 98.656 16.4084V16.1585ZM102.608 21.5648C102.063 21.5648 101.586 21.5875 101.223 21.6556C100.859 21.7238 100.541 21.8146 100.314 21.9282C100.087 22.0418 99.9053 22.2008 99.769 22.3825C99.6555 22.5642 99.5646 22.7687 99.4965 22.9958C99.9053 23.1094 100.337 23.1776 100.791 23.223C101.246 23.2684 101.791 23.2911 102.404 23.2911C103.017 23.2911 103.494 23.2684 103.835 23.223C104.176 23.1776 104.426 23.1094 104.607 23.0413C104.766 22.9731 104.88 22.8823 104.925 22.7914C104.971 22.7005 104.994 22.6097 104.994 22.5188C104.994 22.428 104.971 22.3144 104.948 22.2008C104.903 22.0872 104.812 21.9736 104.653 21.8828C104.494 21.7919 104.267 21.7011 103.949 21.6556C103.585 21.5875 103.154 21.5648 102.608 21.5648ZM102.79 16.1585C102.79 15.8405 102.881 15.5679 103.086 15.3407C103.29 15.1136 103.631 15 104.153 15H104.312C104.835 15 105.198 15.1136 105.38 15.3407C105.584 15.5679 105.675 15.8405 105.675 16.1585V16.4084C105.675 16.7264 105.584 16.999 105.38 17.2261C105.175 17.4533 104.835 17.5668 104.312 17.5668H104.153C103.631 17.5668 103.267 17.4533 103.086 17.2261C102.881 16.999 102.79 16.7264 102.79 16.4084V16.1585Z" fill="black"/>
<path d="M116.851 27.4488L114.193 24.0869V29.7203H110.877V19.3848H113.853L117.601 23.9733L121.349 19.3848H124.324V29.743H121.008V24.1096L118.35 27.4715H116.851V27.4488Z" fill="black"/>
<path d="M135.887 29.743L133.57 26.0858H130.253V29.743H126.937V19.3848L130.253 19.4075V23.042H133.57L135.887 19.3848H139.067V20.2025L136.318 24.5639L139.067 28.9253V29.743H135.887V29.743Z" fill="black"/>
<path d="M153.332 29.742H152.514L151.401 29.106C150.697 29.4694 149.97 29.742 149.198 29.901C148.448 30.0827 147.585 30.1509 146.631 30.1509C145.518 30.1509 144.587 30.06 143.837 29.8783C143.087 29.6966 142.497 29.4467 142.065 29.106C141.634 28.7879 141.316 28.4018 141.134 27.9929C140.952 27.5613 140.861 27.1297 140.861 26.6754V26.471C140.861 26.0394 140.952 25.6305 141.134 25.2443C141.316 24.8582 141.634 24.5174 142.088 24.2221C142.542 23.9268 143.133 23.6997 143.86 23.5407C144.587 23.3817 145.495 23.2908 146.563 23.2908C147.926 23.2908 149.062 23.4271 150.016 23.677C149.993 23.4044 149.97 23.1545 149.902 22.9501C149.834 22.7456 149.698 22.5639 149.493 22.4049C149.289 22.2686 148.971 22.155 148.562 22.0642C148.153 21.996 147.608 21.9506 146.926 21.9506C146.563 21.9506 146.154 21.9733 145.722 21.996C145.291 22.0187 144.859 22.0642 144.428 22.1096C143.996 22.155 143.564 22.2232 143.133 22.314C142.701 22.4049 142.315 22.4958 141.952 22.5866V19.4746C142.315 19.3837 142.701 19.3156 143.133 19.2474C143.564 19.1793 143.996 19.1339 144.428 19.0884C144.882 19.043 145.314 18.9976 145.745 18.9749C146.177 18.9521 146.608 18.9521 146.995 18.9521C148.153 18.9521 149.13 19.043 149.925 19.2474C150.72 19.4519 151.356 19.7472 151.856 20.1106C152.355 20.4968 152.719 20.9738 152.923 21.519C153.15 22.0869 153.264 22.7456 153.264 23.4952V29.742H153.332ZM146.972 27.5613C148.062 27.5613 149.084 27.425 150.016 27.1297V26.1529C149.539 26.0394 149.039 25.9258 148.516 25.8804C147.994 25.8122 147.403 25.7895 146.745 25.7895C146.131 25.7895 145.632 25.8122 145.291 25.8804C144.95 25.9258 144.7 26.0167 144.519 26.1075C144.36 26.1984 144.246 26.2892 144.201 26.4028C144.155 26.5164 144.132 26.6073 144.132 26.7208C144.132 26.8344 144.155 26.948 144.201 27.0616C144.246 27.1751 144.36 27.266 144.541 27.3342C144.723 27.425 145.018 27.4704 145.382 27.5159C145.791 27.5386 146.313 27.5613 146.972 27.5613Z" fill="black"/>
<path d="M27.1786 17.4283L15.3455 10.6796L17.8543 9.26758L29.6874 16.0785L27.1786 17.4283Z" fill="black"/>
<path d="M20.0622 23.3677L38 13L37.9378 33.6323L20 44L20.0622 23.3677Z" fill="#F9E2A0"/>
<path d="M20 44L2 33.1582V13L20 23.3677V44Z" fill="#F7C434"/>
<path d="M30.9 25.1747L28.4748 26.649V18.3845L30.9 16.9102V25.1747Z" fill="black"/>
<path d="M2 12L20.0622 23L38 12" stroke="black" stroke-width="3" stroke-miterlimit="10"/>
<path d="M38 12.5314L37.9379 33.4686L20.0311 44L2 33.4686L2.0621 12.5314L19.9689 2L38 12.5314Z" stroke="black" stroke-width="3" stroke-miterlimit="10"/>
</svg>
