<svg width="285" height="91" viewBox="0 0 285 91" fill="none" xmlns="http://www.w3.org/2000/svg">
<g clip-path="url(#clip0)">
<path d="M35.1698 41.3327L67.8114 22.2939L67.6982 60.1823L35.0566 79.221L35.1698 41.3327Z" fill="#F9E2A0"/>
<path d="M35.0565 79.221L2.30176 59.3117V22.2939L35.0565 41.3327V79.221Z" fill="#F7C434"/>
<path d="M48.0377 30.6584L26.6792 18.357L31.2075 15.7832L52.566 28.1982L48.0377 30.6584Z" fill="black"/>
<path d="M2.30176 21.5752L35.1697 40.5761L67.8112 21.5752" stroke="black" stroke-width="6" stroke-miterlimit="10"/>
<path d="M67.8114 21.5749L67.6981 59.4254L35.0566 78.4642L2.18872 59.4254L2.30193 21.5749L34.9434 2.53613L67.8114 21.5749Z" stroke="black" stroke-width="6" stroke-miterlimit="10"/>
<path d="M54.7548 44.7774L50.3774 47.4648V32.4003L54.7548 29.7129V44.7774Z" fill="black"/>
</g>
<path d="M120.218 26.5537V51.8525H113.428V32.5989H100.965V51.8525H94.1743V26.5537H120.218Z" fill="black"/>
<path d="M126.636 32.9722L128.665 34.173C129.866 33.5105 131.149 33.0137 132.516 32.6824C133.882 32.3512 135.373 32.1855 137.029 32.1855C139.141 32.1855 140.88 32.434 142.288 32.9308C143.654 33.4277 144.772 34.0902 145.6 34.9597C146.428 35.8292 147.008 36.823 147.339 37.9823C147.67 39.1417 147.836 40.3424 147.836 41.6674V43.158C147.836 44.483 147.67 45.6838 147.339 46.8431C147.008 48.0025 146.428 48.9962 145.6 49.8657C144.772 50.7352 143.654 51.3977 142.288 51.8946C140.921 52.3914 139.141 52.6399 137.029 52.6399C135.911 52.6399 134.835 52.5571 133.882 52.4329C132.93 52.2672 132.019 52.0602 131.108 51.7704V61.335H125.104V32.9722H126.636ZM136.698 37.6925C135.621 37.6925 134.669 37.7753 133.758 37.8995C132.847 38.0237 131.978 38.2308 131.149 38.5206V46.3462C132.806 46.8845 134.669 47.1329 136.698 47.1329C137.981 47.1329 138.975 47.0087 139.638 46.7189C140.3 46.4705 140.838 46.0978 141.128 45.6837C141.459 45.2697 141.625 44.7728 141.708 44.1932C141.749 43.6135 141.791 43.0338 141.791 42.4127C141.791 41.7916 141.749 41.212 141.708 40.6323C141.666 40.0526 141.459 39.5557 141.128 39.1417C140.797 38.7276 140.3 38.355 139.638 38.1065C138.975 37.8167 137.981 37.6925 136.698 37.6925Z" fill="black"/>
<path d="M175.288 32.9727V51.8536H169.242V40.2186L158.643 51.8536H152.597V32.9727H158.643V44.6076L169.242 32.9727H175.288Z" fill="black"/>
<path d="M190.815 52.598C188.703 52.598 186.964 52.3495 185.556 51.8527C184.19 51.3558 183.072 50.6933 182.244 49.8238C181.416 48.9543 180.836 47.9605 180.505 46.8012C180.174 45.6418 180.008 44.4411 180.008 43.1161V41.6669C180.008 40.3419 180.174 39.1412 180.505 37.9818C180.836 36.8225 181.416 35.8287 182.244 34.9592C183.072 34.0897 184.19 33.4272 185.556 32.9303C186.923 32.4335 188.703 32.185 190.815 32.185H191.891C194.045 32.185 195.784 32.3507 197.15 32.6405C198.516 32.9717 199.551 33.3858 200.338 33.9241C201.083 34.4623 201.622 35.1248 201.87 35.8701C202.16 36.6154 202.284 37.3607 202.284 38.2302V38.6029C202.284 39.3482 202.201 40.0935 201.994 40.756C201.787 41.4185 201.373 42.0396 200.669 42.5778C199.966 43.1161 198.93 43.5302 197.564 43.82C196.198 44.1098 194.334 44.2755 191.974 44.2755C190.856 44.2755 189.78 44.234 188.827 44.1098C187.875 44.027 186.964 43.82 186.095 43.5716C186.136 44.1098 186.219 44.5653 186.343 45.0208C186.509 45.4762 186.757 45.8489 187.213 46.1387C187.627 46.4285 188.206 46.677 188.952 46.8426C189.697 47.0082 190.732 47.091 191.974 47.091C192.595 47.091 193.258 47.0496 194.003 47.0082C194.748 46.9668 195.494 46.884 196.322 46.8012C197.109 46.7184 197.895 46.5942 198.682 46.4699C199.469 46.3457 200.173 46.1801 200.835 45.9731V51.6456C200.173 51.8113 199.469 51.9355 198.682 52.0597C197.895 52.1839 197.109 52.2667 196.322 52.3495C195.494 52.4323 194.707 52.5152 193.879 52.5566C193.092 52.598 192.306 52.598 191.602 52.598H190.815V52.598ZM184.687 27.0922C184.687 26.5125 184.853 26.0156 185.225 25.6016C185.598 25.1875 186.219 24.9805 187.171 24.9805H187.461C188.413 24.9805 189.076 25.1875 189.407 25.6016C189.78 26.0156 189.945 26.5125 189.945 27.0922V27.5476C189.945 28.1273 189.78 28.6242 189.407 29.0382C189.034 29.4523 188.413 29.6593 187.461 29.6593H187.171C186.219 29.6593 185.556 29.4523 185.225 29.0382C184.853 28.6242 184.687 28.1273 184.687 27.5476V27.0922ZM191.891 36.9467C190.898 36.9467 190.028 36.9881 189.366 37.1123C188.703 37.2365 188.124 37.4021 187.709 37.6092C187.295 37.8162 186.964 38.106 186.716 38.4373C186.509 38.7685 186.343 39.1412 186.219 39.5552C186.964 39.7622 187.751 39.8865 188.579 39.9693C189.407 40.0521 190.401 40.0935 191.519 40.0935C192.637 40.0935 193.506 40.0521 194.127 39.9693C194.748 39.8865 195.204 39.7623 195.535 39.638C195.825 39.5138 196.032 39.3482 196.115 39.1826C196.198 39.0169 196.239 38.8513 196.239 38.6857C196.239 38.5201 196.198 38.3131 196.156 38.106C196.073 37.899 195.908 37.692 195.618 37.5263C195.328 37.3607 194.914 37.1951 194.334 37.1123C193.672 36.9881 192.885 36.9467 191.891 36.9467ZM192.223 27.0922C192.223 26.5125 192.388 26.0156 192.761 25.6016C193.134 25.1875 193.755 24.9805 194.707 24.9805H194.997C195.949 24.9805 196.612 25.1875 196.943 25.6016C197.316 26.0156 197.481 26.5125 197.481 27.0922V27.5476C197.481 28.1273 197.316 28.6242 196.943 29.0382C196.57 29.4523 195.949 29.6593 194.997 29.6593H194.707C193.755 29.6593 193.092 29.4523 192.761 29.0382C192.388 28.6242 192.223 28.1273 192.223 27.5476V27.0922Z" fill="black"/>
<path d="M217.853 47.6716L213.008 41.5436V51.8122H206.963V32.9727H212.387L219.219 41.3366L226.051 32.9727H231.475V51.8536H225.43V41.585L220.585 47.713H217.853V47.6716Z" fill="black"/>
<path d="M252.551 51.8536L248.327 45.1873H242.282V51.8536H236.237V32.9727L242.282 33.0141V39.639H248.327L252.551 32.9727H258.347V34.4633L253.337 42.4131L258.347 50.363V51.8536H252.551V51.8536Z" fill="black"/>
<path d="M284.35 51.8532H282.859L280.831 50.6938C279.547 51.3563 278.222 51.8532 276.814 52.143C275.448 52.4743 273.874 52.5985 272.135 52.5985C270.107 52.5985 268.409 52.4329 267.043 52.1016C265.676 51.7704 264.6 51.3149 263.813 50.6938C263.026 50.1141 262.447 49.4102 262.115 48.6649C261.784 47.8782 261.618 47.0915 261.618 46.2634V45.8908C261.618 45.1041 261.784 44.3588 262.115 43.6549C262.447 42.951 263.026 42.3299 263.854 41.7916C264.682 41.2534 265.759 40.8393 267.084 40.5495C268.409 40.2596 270.065 40.094 272.011 40.094C274.496 40.094 276.566 40.3424 278.305 40.7979C278.263 40.301 278.222 39.8456 278.098 39.4729C277.974 39.1003 277.725 38.769 277.353 38.4792C276.98 38.2308 276.4 38.0237 275.655 37.8581C274.91 37.7339 273.916 37.6511 272.674 37.6511C272.011 37.6511 271.266 37.6925 270.479 37.7339C269.692 37.7753 268.906 37.8581 268.119 37.9409C267.332 38.0237 266.546 38.1479 265.759 38.3136C264.972 38.4792 264.268 38.6448 263.606 38.8104V33.1379C264.268 32.9722 264.972 32.848 265.759 32.7238C266.546 32.5996 267.332 32.5168 268.119 32.434C268.947 32.3512 269.734 32.2684 270.521 32.2269C271.307 32.1855 272.094 32.1855 272.798 32.1855C274.91 32.1855 276.69 32.3512 278.139 32.7238C279.588 33.0965 280.748 33.6347 281.659 34.2972C282.57 35.0011 283.232 35.8706 283.605 36.8644C284.019 37.8995 284.226 39.1003 284.226 40.4667V51.8532H284.35ZM272.756 47.8782C274.744 47.8782 276.607 47.6298 278.305 47.0915V45.3111C277.435 45.1041 276.524 44.897 275.572 44.8142C274.62 44.69 273.543 44.6486 272.342 44.6486C271.224 44.6486 270.314 44.69 269.692 44.8142C269.071 44.897 268.616 45.0627 268.285 45.2283C267.995 45.3939 267.788 45.5595 267.705 45.7666C267.622 45.9736 267.581 46.1392 267.581 46.3462C267.581 46.5533 267.622 46.7603 267.705 46.9673C267.788 47.1744 267.995 47.34 268.326 47.4642C268.657 47.6298 269.196 47.7126 269.858 47.7954C270.603 47.8368 271.556 47.8782 272.756 47.8782Z" fill="black"/>
<path d="M100.976 72.264H103.6L100.144 76.456L103.904 81H101.2L97.632 76.568V81H95.248V72.264H97.632V76.504L100.976 72.264ZM103.906 72.264H106.514L108.162 77.176C108.248 77.4107 108.312 77.656 108.354 77.912C108.397 78.1573 108.429 78.4187 108.45 78.696H108.498C108.53 78.4187 108.573 78.1573 108.626 77.912C108.69 77.656 108.76 77.4107 108.834 77.176L110.45 72.264H113.01L109.314 82.12C108.984 83.0267 108.498 83.704 107.858 84.152C107.229 84.6107 106.498 84.84 105.666 84.84C105.4 84.84 105.165 84.824 104.962 84.792C104.77 84.7707 104.6 84.744 104.45 84.712V82.824C104.568 82.8453 104.706 82.8667 104.866 82.888C105.037 82.9093 105.213 82.92 105.394 82.92C105.896 82.92 106.29 82.7653 106.578 82.456C106.877 82.1573 107.096 81.7947 107.234 81.368L107.378 80.936L103.906 72.264ZM122.2 72.264V81H119.816V74.056H116.648V81H114.264V72.264H122.2ZM127.005 75.72C127.005 75.9013 126.994 76.1253 126.973 76.392C126.962 76.6587 126.946 76.9307 126.925 77.208C126.914 77.4853 126.898 77.7307 126.877 77.944C126.856 78.1573 126.84 78.3067 126.829 78.392L130.861 72.264H133.725V81H131.421V77.512C131.421 77.224 131.432 76.9093 131.453 76.568C131.474 76.216 131.496 75.8907 131.517 75.592C131.549 75.2827 131.57 75.048 131.581 74.888L127.565 81H124.701V72.264H127.005V75.72ZM147.225 72.264V81H145.001V76.712C145.001 76.2853 145.006 75.8693 145.017 75.464C145.038 75.0587 145.065 74.6853 145.097 74.344H145.049L142.633 81H140.841L138.393 74.328H138.329C138.371 74.68 138.398 75.0587 138.409 75.464C138.43 75.8587 138.441 76.296 138.441 76.776V81H136.217V72.264H139.593L141.769 78.184L143.977 72.264H147.225ZM161.273 74.552C161.273 75.0213 161.124 75.4213 160.825 75.752C160.537 76.0827 160.105 76.296 159.529 76.392V76.456C160.137 76.5307 160.623 76.7387 160.985 77.08C161.359 77.4213 161.545 77.8587 161.545 78.392C161.545 78.8933 161.412 79.3413 161.145 79.736C160.889 80.1307 160.479 80.44 159.913 80.664C159.348 80.888 158.607 81 157.689 81H153.529V72.264H157.689C158.372 72.264 158.98 72.3387 159.513 72.488C160.057 72.6267 160.484 72.8613 160.793 73.192C161.113 73.5227 161.273 73.976 161.273 74.552ZM158.857 74.744C158.857 74.2107 158.436 73.944 157.593 73.944H155.913V75.672H157.321C157.823 75.672 158.201 75.6027 158.457 75.464C158.724 75.3147 158.857 75.0747 158.857 74.744ZM159.081 78.264C159.081 77.9227 158.948 77.6773 158.681 77.528C158.415 77.368 158.015 77.288 157.481 77.288H155.913V79.352H157.529C157.977 79.352 158.345 79.272 158.633 79.112C158.932 78.9413 159.081 78.6587 159.081 78.264ZM167.176 72.088C168.349 72.088 169.245 72.344 169.864 72.856C170.493 73.3573 170.808 74.1307 170.808 75.176V81H169.144L168.68 79.816H168.616C168.242 80.2853 167.848 80.6267 167.432 80.84C167.016 81.0533 166.445 81.16 165.72 81.16C164.941 81.16 164.296 80.936 163.784 80.488C163.272 80.0293 163.016 79.3307 163.016 78.392C163.016 77.464 163.341 76.7813 163.992 76.344C164.642 75.896 165.618 75.6507 166.92 75.608L168.44 75.56V75.176C168.44 74.7173 168.317 74.3813 168.072 74.168C167.837 73.9547 167.506 73.848 167.08 73.848C166.653 73.848 166.237 73.912 165.832 74.04C165.426 74.1573 165.021 74.3067 164.616 74.488L163.832 72.872C164.301 72.6267 164.818 72.4347 165.384 72.296C165.96 72.1573 166.557 72.088 167.176 72.088ZM167.512 76.984C166.744 77.0053 166.21 77.144 165.912 77.4C165.613 77.656 165.464 77.992 165.464 78.408C165.464 78.7707 165.57 79.032 165.784 79.192C165.997 79.3413 166.274 79.416 166.616 79.416C167.128 79.416 167.56 79.2667 167.912 78.968C168.264 78.6587 168.44 78.2267 168.44 77.672V76.952L167.512 76.984ZM186.256 72.264V81H173.248V72.264H175.632V79.208H178.56V72.264H180.944V79.208H183.872V72.264H186.256ZM197.425 72.104C198.406 72.104 199.201 72.488 199.809 73.256C200.417 74.0133 200.72 75.1333 200.72 76.616C200.72 78.0987 200.406 79.2293 199.777 80.008C199.147 80.776 198.342 81.16 197.361 81.16C196.731 81.16 196.23 81.048 195.857 80.824C195.483 80.5893 195.179 80.328 194.945 80.04H194.817C194.902 80.488 194.945 80.9147 194.945 81.32V84.84H192.561V72.264H194.497L194.833 73.4H194.945C195.179 73.048 195.494 72.744 195.889 72.488C196.283 72.232 196.795 72.104 197.425 72.104ZM196.657 74.008C196.038 74.008 195.601 74.2 195.345 74.584C195.099 74.968 194.966 75.5547 194.945 76.344V76.6C194.945 77.4427 195.067 78.0933 195.312 78.552C195.569 79 196.027 79.224 196.689 79.224C197.233 79.224 197.633 79 197.889 78.552C198.155 78.0933 198.289 77.4373 198.289 76.584C198.289 74.8667 197.745 74.008 196.657 74.008ZM206.27 72.088C207.443 72.088 208.339 72.344 208.958 72.856C209.587 73.3573 209.902 74.1307 209.902 75.176V81H208.238L207.774 79.816H207.71C207.336 80.2853 206.942 80.6267 206.526 80.84C206.11 81.0533 205.539 81.16 204.814 81.16C204.035 81.16 203.39 80.936 202.878 80.488C202.366 80.0293 202.11 79.3307 202.11 78.392C202.11 77.464 202.435 76.7813 203.086 76.344C203.736 75.896 204.712 75.6507 206.014 75.608L207.534 75.56V75.176C207.534 74.7173 207.411 74.3813 207.166 74.168C206.931 73.9547 206.6 73.848 206.174 73.848C205.747 73.848 205.331 73.912 204.926 74.04C204.52 74.1573 204.115 74.3067 203.71 74.488L202.926 72.872C203.395 72.6267 203.912 72.4347 204.478 72.296C205.054 72.1573 205.651 72.088 206.27 72.088ZM206.606 76.984C205.838 77.0053 205.304 77.144 205.006 77.4C204.707 77.656 204.558 77.992 204.558 78.408C204.558 78.7707 204.664 79.032 204.878 79.192C205.091 79.3413 205.368 79.416 205.71 79.416C206.222 79.416 206.654 79.2667 207.006 78.968C207.358 78.6587 207.534 78.2267 207.534 77.672V76.952L206.606 76.984ZM220.198 72.264V79.256H221.478V84.136H219.334V81H213.462V84.136H211.318V79.256H212.054C212.438 78.6693 212.763 78.0027 213.03 77.256C213.296 76.4987 213.51 75.6933 213.67 74.84C213.83 73.9867 213.947 73.128 214.022 72.264H220.198ZM216.022 74.056C215.894 75.0267 215.718 75.9493 215.494 76.824C215.27 77.688 214.955 78.4987 214.55 79.256H217.814V74.056H216.022ZM225.271 75.72C225.271 75.9013 225.26 76.1253 225.239 76.392C225.228 76.6587 225.212 76.9307 225.191 77.208C225.18 77.4853 225.164 77.7307 225.143 77.944C225.121 78.1573 225.105 78.3067 225.095 78.392L229.127 72.264H231.991V81H229.687V77.512C229.687 77.224 229.697 76.9093 229.719 76.568C229.74 76.216 229.761 75.8907 229.783 75.592C229.815 75.2827 229.836 75.048 229.847 74.888L225.831 81H222.967V72.264H225.271V75.72ZM242.418 76.616C242.418 78.0667 242.034 79.1867 241.266 79.976C240.509 80.7653 239.474 81.16 238.162 81.16C237.352 81.16 236.626 80.984 235.986 80.632C235.357 80.28 234.861 79.768 234.498 79.096C234.136 78.4133 233.954 77.5867 233.954 76.616C233.954 75.1653 234.333 74.0507 235.09 73.272C235.848 72.4933 236.888 72.104 238.21 72.104C239.032 72.104 239.757 72.28 240.386 72.632C241.016 72.984 241.512 73.496 241.874 74.168C242.237 74.8293 242.418 75.6453 242.418 76.616ZM236.386 76.616C236.386 77.48 236.525 78.136 236.802 78.584C237.09 79.0213 237.554 79.24 238.194 79.24C238.824 79.24 239.277 79.0213 239.554 78.584C239.842 78.136 239.986 77.48 239.986 76.616C239.986 75.752 239.842 75.1067 239.554 74.68C239.277 74.2427 238.818 74.024 238.178 74.024C237.549 74.024 237.09 74.2427 236.802 74.68C236.525 75.1067 236.386 75.752 236.386 76.616ZM252.213 81H249.829V74.056H247.637C247.498 75.7627 247.311 77.1387 247.077 78.184C246.853 79.2187 246.538 79.976 246.133 80.456C245.727 80.9253 245.183 81.16 244.501 81.16C243.946 81.16 243.493 81.0747 243.141 80.904V79C243.386 79.1067 243.642 79.16 243.909 79.16C244.101 79.16 244.277 79.064 244.437 78.872C244.597 78.68 244.746 78.3333 244.885 77.832C245.034 77.3307 245.167 76.632 245.285 75.736C245.402 74.8293 245.509 73.672 245.605 72.264H252.213V81ZM262.637 76.616C262.637 78.0667 262.253 79.1867 261.485 79.976C260.728 80.7653 259.693 81.16 258.381 81.16C257.57 81.16 256.845 80.984 256.205 80.632C255.576 80.28 255.08 79.768 254.717 79.096C254.354 78.4133 254.173 77.5867 254.173 76.616C254.173 75.1653 254.552 74.0507 255.309 73.272C256.066 72.4933 257.106 72.104 258.429 72.104C259.25 72.104 259.976 72.28 260.605 72.632C261.234 72.984 261.73 73.496 262.093 74.168C262.456 74.8293 262.637 75.6453 262.637 76.616ZM256.605 76.616C256.605 77.48 256.744 78.136 257.021 78.584C257.309 79.0213 257.773 79.24 258.413 79.24C259.042 79.24 259.496 79.0213 259.773 78.584C260.061 78.136 260.205 77.48 260.205 76.616C260.205 75.752 260.061 75.1067 259.773 74.68C259.496 74.2427 259.037 74.024 258.397 74.024C257.768 74.024 257.309 74.2427 257.021 74.68C256.744 75.1067 256.605 75.752 256.605 76.616ZM275.615 72.264V81H273.391V76.712C273.391 76.2853 273.397 75.8693 273.407 75.464C273.429 75.0587 273.455 74.6853 273.487 74.344H273.439L271.023 81H269.231L266.783 74.328H266.719C266.762 74.68 266.789 75.0587 266.799 75.464C266.821 75.8587 266.831 76.296 266.831 76.776V81H264.607V72.264H267.983L270.159 78.184L272.367 72.264H275.615Z" fill="black"/>
<defs>
<clipPath id="clip0">
<rect width="70" height="81" fill="white"/>
</clipPath>
</defs>
</svg>
