<svg width="290" height="70" viewBox="0 0 290 70" fill="none" xmlns="http://www.w3.org/2000/svg"><path d="M60.126 47.942V22.058a2.188 2.188 0 00-1.112-1.905L36.046 7.171a2.188 2.188 0 00-2.153 0L10.924 20.153a2.187 2.187 0 00-1.111 1.905v25.884a2.187 2.187 0 001.111 1.905l22.969 12.982a2.187 2.187 0 002.153 0l22.968-12.982a2.187 2.187 0 001.111-1.905z" fill="#FFB800" stroke="#000" stroke-width="3" stroke-linecap="round" stroke-linejoin="round"/><path d="M59.826 20.952L35.26 35 10.115 20.95" stroke="#000" stroke-width="3" stroke-linecap="round" stroke-linejoin="round"/><path d="M48.404 40.608V27.483L23.035 13.308M35.26 35l-.29 28.112" stroke="#000" stroke-width="3" stroke-linecap="round" stroke-linejoin="round"/><path d="M100.16 46V28.864h13.56V46h-3.624V31.888h-6.312V46h-3.624zm24.891-13.344c1.472 0 2.664.576 3.576 1.728.912 1.136 1.368 2.816 1.368 5.04s-.472 3.92-1.416 5.088c-.944 1.152-2.152 1.728-3.624 1.728-.944 0-1.696-.168-2.256-.504-.56-.352-1.016-.744-1.368-1.176h-.192c.128.672.192 1.312.192 1.92v5.28h-3.576V32.896h2.904l.504 1.704h.168a4.827 4.827 0 011.416-1.368c.592-.384 1.36-.576 2.304-.576zm-1.152 2.856c-.928 0-1.584.288-1.968.864-.368.576-.568 1.456-.6 2.64v.384c0 1.264.184 2.24.552 2.928.384.672 1.072 1.008 2.064 1.008.816 0 1.416-.336 1.8-1.008.4-.688.6-1.672.6-2.952 0-2.576-.816-3.864-2.448-3.864zm12.499 2.568c0 .272-.016.608-.048 1.008-.016.4-.04.808-.072 1.224-.016.416-.04.784-.072 1.104-.032.32-.056.544-.072.672l6.048-9.192h4.296V46h-3.456v-5.232c0-.432.016-.904.048-1.416.032-.528.064-1.016.096-1.464.048-.464.08-.816.096-1.056L137.238 46h-4.296V32.896h3.456v5.184zm19.218-5.424c1.808 0 3.24.52 4.296 1.56 1.056 1.024 1.584 2.488 1.584 4.392v1.728h-8.448c.032 1.008.328 1.8.888 2.376.576.576 1.368.864 2.376.864.848 0 1.616-.08 2.304-.24.688-.176 1.4-.44 2.136-.792v2.76c-.64.32-1.32.552-2.04.696-.704.16-1.56.24-2.568.24-1.312 0-2.472-.24-3.48-.72a5.512 5.512 0 01-2.376-2.232c-.576-.992-.864-2.24-.864-3.744 0-1.536.256-2.808.768-3.816.528-1.024 1.256-1.792 2.184-2.304.928-.512 2.008-.768 3.24-.768zm.024 2.544c-.688 0-1.264.224-1.728.672-.448.448-.712 1.144-.792 2.088h5.016c-.016-.8-.224-1.456-.624-1.968-.4-.528-1.024-.792-1.872-.792zm-4.224-5.664c0-.56.16-.96.48-1.2.32-.256.704-.384 1.152-.384.448 0 .832.128 1.152.384.336.24.504.64.504 1.2 0 .528-.168.92-.504 1.176-.32.256-.704.384-1.152.384-.448 0-.832-.128-1.152-.384-.32-.256-.48-.648-.48-1.176zm4.728 0c0-.56.16-.96.48-1.2.32-.256.712-.384 1.176-.384.448 0 .832.128 1.152.384.336.24.504.64.504 1.2 0 .528-.168.92-.504 1.176-.32.256-.704.384-1.152.384-.464 0-.856-.128-1.176-.384-.32-.256-.48-.648-.48-1.176zm24.763 3.36V46h-3.336v-6.432c0-.64.008-1.264.024-1.872.032-.608.072-1.168.12-1.68h-.072L174.019 46h-2.688l-3.672-10.008h-.096c.064.528.104 1.096.12 1.704.032.592.048 1.248.048 1.968V46h-3.336V32.896h5.064l3.264 8.88 3.312-8.88h4.872zm12.33 0h3.936l-5.184 6.288 5.64 6.816h-4.056l-5.352-6.648V46h-3.576V32.896h3.576v6.36l5.016-6.36zm11.644-.264c1.76 0 3.104.384 4.032 1.152.944.752 1.416 1.912 1.416 3.48V46h-2.496l-.696-1.776h-.096c-.56.704-1.152 1.216-1.776 1.536-.624.32-1.48.48-2.568.48-1.168 0-2.136-.336-2.904-1.008-.768-.688-1.152-1.736-1.152-3.144 0-1.392.488-2.416 1.464-3.072.976-.672 2.44-1.04 4.392-1.104l2.28-.072v-.576c0-.688-.184-1.192-.552-1.512-.352-.32-.848-.48-1.488-.48a6.18 6.18 0 00-1.872.288c-.608.176-1.216.4-1.824.672l-1.176-2.424c.704-.368 1.48-.656 2.328-.864.864-.208 1.76-.312 2.688-.312zm.504 7.344c-1.152.032-1.952.24-2.4.624-.448.384-.672.888-.672 1.512 0 .544.16.936.48 1.176.32.224.736.336 1.248.336.768 0 1.416-.224 1.944-.672.528-.464.792-1.112.792-1.944v-1.08l-1.392.048zm8.94.72l-.336-11.496h3.288l-.36 11.496h-2.592zm1.368 5.472c-.576 0-1.048-.176-1.416-.528a1.734 1.734 0 01-.528-1.272c0-.512.176-.944.528-1.296.368-.352.84-.528 1.416-.528.544 0 .992.176 1.344.528.368.352.552.784.552 1.296 0 .496-.184.92-.552 1.272-.352.352-.8.528-1.344.528z" fill="#000"/></svg>