<svg width="25" height="25" viewBox="0 0 25 25" fill="none" xmlns="http://www.w3.org/2000/svg">
<path d="M19.0537 25H19.0172C14.0037 24.8756 9.21937 22.8579 5.61192 19.3465C2.12686 15.7136 0.123873 10.8932 0.000144564 5.84136C-0.0072383 5.13368 0.268431 4.45278 0.765041 3.95246L4.30689 0.385128C4.8165 -0.128376 5.64259 -0.128376 6.1522 0.385128L11.3723 5.64668C11.8818 6.16034 11.8818 6.99298 11.3723 7.50664L9.28949 9.60206C9.67579 11.0568 10.3874 12.403 11.3697 13.5377C12.4934 14.5282 13.8273 15.2459 15.2691 15.6357L17.3572 13.539C17.8668 13.0255 18.6929 13.0255 19.2025 13.539L24.4226 18.8006C24.9321 19.3142 24.9321 20.1469 24.4226 20.6605L20.8807 24.2292C20.3978 24.721 19.7402 24.9984 19.0537 25ZM5.22693 3.17638H5.22041L2.61035 5.81242C2.71677 10.1777 4.44564 14.3436 7.45462 17.4852C10.5716 20.517 14.7038 22.2594 19.0341 22.3679L21.6533 19.7306L18.2707 16.3303L16.5833 18.0298C16.3419 18.2758 16.0131 18.4145 15.6698 18.4152C15.5781 18.4152 15.4867 18.4055 15.397 18.3862C13.2224 17.9014 11.2032 16.8742 9.52439 15.399C8.06074 13.7069 7.04172 11.6716 6.56067 9.47973C6.46992 9.04402 6.60399 8.59162 6.91695 8.27746L8.60304 6.57666L5.22693 3.17638Z" fill="#E7A600"/>
</svg>
