<svg width="21" height="20" viewBox="0 0 21 20" fill="none" xmlns="http://www.w3.org/2000/svg"><path d="M15.863 20h-.03a16.13 16.13 0 01-10.808-4.523A16.115 16.115 0 01.5 4.673a2.105 2.105 0 01.617-1.511L3.973.308c.41-.41 1.077-.41 1.488 0l4.208 4.21a1.05 1.05 0 010 1.487L7.99 7.682a7.893 7.893 0 001.677 3.148 7.877 7.877 0 003.145 1.679l1.683-1.678a1.054 1.054 0 011.488 0l4.209 4.21c.41.41.41 1.076 0 1.487l-2.856 2.855c-.39.394-.92.616-1.473.617zM4.714 2.541H4.71L2.605 4.65a13.938 13.938 0 003.906 9.338 13.944 13.944 0 009.336 3.906l2.112-2.11-2.727-2.72-1.36 1.36a1.039 1.039 0 01-.957.285 10.733 10.733 0 01-4.735-2.39 10.734 10.734 0 01-2.39-4.735c-.073-.349.035-.71.287-.962l1.36-1.36-2.723-2.72z" fill="#000"/></svg>