<svg width="67" height="105" viewBox="0 0 67 105" fill="none" xmlns="http://www.w3.org/2000/svg"><path d="M15.728 71.817l-.576-23.76h6.624c4.896 0 9.36-.432 13.392-1.296 4.032-.864 7.248-2.544 9.648-5.04 2.4-2.496 3.6-6.144 3.6-10.944 0-4.608-1.392-8.208-4.176-10.8-2.784-2.688-6.48-4.032-11.088-4.032-4.8 0-8.544 1.344-11.232 4.032-2.688 2.592-4.032 6.144-4.032 10.656H.464c-.096-5.76 1.152-10.896 3.744-15.408C6.8 10.713 10.544 7.161 15.44 4.569 20.432 1.977 26.384.681 33.296.681c6.432 0 12.096 1.2 16.992 3.6 4.992 2.4 8.88 5.856 11.664 10.368 2.88 4.416 4.32 9.84 4.32 16.272 0 6.624-1.488 12.096-4.464 16.416-2.88 4.32-6.864 7.536-11.952 9.648-4.992 2.112-10.8 3.216-17.424 3.312L32 71.817H15.728zm8.208 32.4c-3.36 0-6.144-1.056-8.352-3.168-2.112-2.112-3.168-4.656-3.168-7.632 0-3.072 1.056-5.664 3.168-7.776 2.208-2.112 4.992-3.168 8.352-3.168 3.36 0 6.096 1.056 8.208 3.168s3.168 4.704 3.168 7.776c0 2.976-1.056 5.52-3.168 7.632s-4.848 3.168-8.208 3.168z" fill="#000"/></svg>