<svg width="133" height="209" viewBox="0 0 133 209" fill="none" xmlns="http://www.w3.org/2000/svg">
<path d="M31.456 143.216L30.304 95.696H43.552C53.344 95.696 62.272 94.832 70.336 93.104C78.4 91.376 84.832 88.016 89.632 83.024C94.432 78.032 96.832 70.736 96.832 61.136C96.832 51.92 94.048 44.72 88.48 39.536C82.912 34.16 75.52 31.472 66.304 31.472C56.704 31.472 49.216 34.16 43.84 39.536C38.464 44.72 35.776 51.824 35.776 60.848H0.928C0.736 49.328 3.232 39.056 8.416 30.032C13.6 21.008 21.088 13.904 30.88 8.71998C40.864 3.53599 52.768 0.943996 66.592 0.943996C79.456 0.943996 90.784 3.34399 100.576 8.14399C110.56 12.944 118.336 19.856 123.904 28.88C129.664 37.712 132.544 48.56 132.544 61.424C132.544 74.672 129.568 85.616 123.616 94.256C117.856 102.896 109.888 109.328 99.712 113.552C89.728 117.776 78.112 119.984 64.864 120.176L64 143.216H31.456ZM47.872 208.016C41.152 208.016 35.584 205.904 31.168 201.68C26.944 197.456 24.832 192.368 24.832 186.416C24.832 180.272 26.944 175.088 31.168 170.864C35.584 166.64 41.152 164.528 47.872 164.528C54.592 164.528 60.064 166.64 64.288 170.864C68.512 175.088 70.624 180.272 70.624 186.416C70.624 192.368 68.512 197.456 64.288 201.68C60.064 205.904 54.592 208.016 47.872 208.016Z" fill="white"/>
</svg>
