<svg width="255" height="205" viewBox="0 0 255 205" fill="none" xmlns="http://www.w3.org/2000/svg">
<path d="M203 1H254V52" stroke="#C4C4C4" stroke-width="2" stroke-linecap="round" stroke-linejoin="round"/>
<path d="M52 204H1V153" stroke="#C4C4C4" stroke-width="2" stroke-linecap="round" stroke-linejoin="round"/>
<path d="M254 153V204H203" stroke="#C4C4C4" stroke-width="2" stroke-linecap="round" stroke-linejoin="round"/>
<path d="M1 52V1H52" stroke="#C4C4C4" stroke-width="2" stroke-linecap="round" stroke-linejoin="round"/>
<path d="M179.938 151.938H83.0625C80.4932 151.938 78.0292 150.917 76.2124 149.1C74.3956 147.283 73.375 144.819 73.375 142.25V74.4375C73.375 71.8682 74.3956 69.4042 76.2124 67.5874C78.0292 65.7706 80.4932 64.75 83.0625 64.75H102.434L112.121 50.2188H150.871L160.559 64.75H179.938C182.507 64.75 184.971 65.7706 186.788 67.5874C188.604 69.4042 189.625 71.8682 189.625 74.4375V142.25C189.625 144.819 188.604 147.283 186.788 149.1C184.971 150.917 182.507 151.938 179.938 151.938Z" stroke="black" stroke-width="5" stroke-linecap="round" stroke-linejoin="round"/>
<path opacity="0.3" d="M169.604 139.538H72.7292C70.16 139.538 67.6959 138.517 65.8792 136.7C64.0624 134.883 63.0417 132.419 63.0417 129.85V62.0376C63.0417 59.4683 64.0624 57.0043 65.8792 55.1875C67.6959 53.3707 70.16 52.3501 72.7292 52.3501H92.1007L101.788 37.8188H140.538L150.226 52.3501H169.604C172.174 52.3501 174.638 53.3707 176.454 55.1875C178.271 57.0043 179.292 59.4683 179.292 62.0376V129.85C179.292 132.419 178.271 134.883 176.454 136.7C174.638 138.517 172.174 139.538 169.604 139.538Z" fill="#5F5F5F"/>
<path d="M131.5 127.719C143.538 127.719 153.297 117.96 153.297 105.922C153.297 93.8838 143.538 84.125 131.5 84.125C119.462 84.125 109.703 93.8838 109.703 105.922C109.703 117.96 119.462 127.719 131.5 127.719Z" stroke="black" stroke-width="8" stroke-linecap="round" stroke-linejoin="round"/>
<path d="M230.419 102.042L235.64 96.8062L233.583 94.75L224.833 103.5L233.583 112.25L235.64 110.194L230.419 104.958H248.167V102.042H230.419Z" fill="#E7A600"/>
</svg>
