<svg width="258" height="499" viewBox="0 0 258 499" fill="none" xmlns="http://www.w3.org/2000/svg">
<path d="M122.599 197.381L112.476 319.946" stroke="#19141E" stroke-width="16" stroke-linecap="round"/>
<path d="M112.476 331.016L116.685 471.911" stroke="#19141E" stroke-width="16" stroke-linecap="round"/>
<path d="M162.836 196.489L163.394 318.742" stroke="#19141E" stroke-width="16" stroke-linecap="round"/>
<path d="M163.394 323.971L178.415 475.874" stroke="#19141E" stroke-width="16" stroke-linecap="round"/>
<path fill-rule="evenodd" clip-rule="evenodd" d="M167.948 192.232C167.948 196.991 164.402 200.885 160.068 200.885H124.565C120.231 200.885 116.685 196.991 116.685 192.232C116.685 187.473 120.231 183.579 124.565 183.579H160.068C164.402 183.579 167.948 187.473 167.948 192.232ZM160.671 306.076C160.646 306.076 160.621 306.076 160.595 306.076C154.656 306.076 149.842 312.835 149.842 321.172C149.842 329.509 154.656 336.268 160.595 336.268L166.509 336.268V336.262C172.312 336.044 176.969 329.372 176.969 321.172C176.969 312.972 172.312 306.299 166.509 306.081V306.076H166.292C166.266 306.076 166.241 306.076 166.216 306.076C166.19 306.076 166.165 306.076 166.14 306.076H160.671ZM110.318 306.076L110.285 306.076L110.242 306.076C104.303 306.076 99.4883 312.835 99.4883 321.172C99.4883 329.51 104.303 336.268 110.242 336.268L116.156 336.268V336.262C121.959 336.044 126.616 329.372 126.616 321.172C126.616 312.973 121.959 306.3 116.156 306.081V306.076H115.938C115.913 306.076 115.887 306.076 115.862 306.076C115.837 306.076 115.811 306.076 115.786 306.076H110.318ZM145.281 486.897H189.87L182.825 467.084L145.281 486.897ZM125.38 486.897H80.7902L118.335 467.084L125.38 486.897Z" fill="url(#paint0_linear)"/>
<path d="M160.671 306.076V307.576H160.664L160.657 307.576L160.671 306.076ZM160.595 336.268L160.595 337.768H160.595L160.595 336.268ZM166.509 336.268H168.009V337.768L166.509 337.768L166.509 336.268ZM166.509 336.262H165.009V334.818L166.452 334.763L166.509 336.262ZM166.509 306.081L166.452 307.58L165.009 307.526V306.081H166.509ZM166.509 306.076V304.576H168.009V306.076H166.509ZM166.292 306.076V307.576H166.284L166.277 307.576L166.292 306.076ZM166.14 306.076L166.154 307.576L166.147 307.576H166.14V306.076ZM110.285 306.076L110.289 304.576L110.296 304.576L110.285 306.076ZM110.318 306.076V307.576L110.307 307.576L110.318 306.076ZM110.242 306.076V304.576L110.246 304.576L110.242 306.076ZM110.242 336.268L110.242 334.768H110.242L110.242 336.268ZM116.156 336.268H117.656V337.768L116.156 337.768L116.156 336.268ZM116.156 336.262H114.656V334.818L116.099 334.763L116.156 336.262ZM116.156 306.081L116.099 307.58L114.656 307.526V306.081H116.156ZM116.156 306.076V304.576H117.656V306.076H116.156ZM115.938 306.076V307.576H115.931L115.923 307.576L115.938 306.076ZM115.786 306.076L115.801 307.576L115.793 307.576H115.786V306.076ZM189.87 486.897L191.283 486.395L191.995 488.397H189.87V486.897ZM145.281 486.897V488.397L144.581 485.571L145.281 486.897ZM182.825 467.084L182.125 465.757L183.658 464.948L184.239 466.581L182.825 467.084ZM80.7902 486.897V488.397L80.0901 485.571L80.7902 486.897ZM125.38 486.897L126.793 486.395L127.505 488.397H125.38V486.897ZM118.335 467.084L117.635 465.757L119.168 464.948L119.748 466.581L118.335 467.084ZM160.068 199.385C163.444 199.385 166.448 196.298 166.448 192.232H169.448C169.448 197.685 165.36 202.385 160.068 202.385V199.385ZM124.565 199.385H160.068V202.385H124.565V199.385ZM118.185 192.232C118.185 196.298 121.189 199.385 124.565 199.385V202.385C119.274 202.385 115.185 197.685 115.185 192.232H118.185ZM124.565 185.079C121.189 185.079 118.185 188.166 118.185 192.232H115.185C115.185 186.78 119.274 182.079 124.565 182.079V185.079ZM160.068 185.079H124.565V182.079H160.068V185.079ZM166.448 192.232C166.448 188.166 163.444 185.079 160.068 185.079V182.079C165.36 182.079 169.448 186.78 169.448 192.232H166.448ZM160.595 304.576C160.626 304.576 160.656 304.576 160.686 304.576L160.657 307.576C160.636 307.576 160.616 307.576 160.595 307.576V304.576ZM148.342 321.172C148.342 316.728 149.622 312.641 151.769 309.627C153.914 306.616 157.014 304.576 160.595 304.576V307.576C158.238 307.576 155.96 308.915 154.213 311.368C152.468 313.818 151.342 317.279 151.342 321.172H148.342ZM160.595 337.768C157.013 337.768 153.914 335.727 151.769 332.717C149.622 329.703 148.342 325.616 148.342 321.172H151.342C151.342 325.065 152.468 328.526 154.213 330.976C155.96 333.429 158.237 334.768 160.595 334.768L160.595 337.768ZM166.509 337.768L160.595 337.768L160.595 334.768L166.509 334.768L166.509 337.768ZM168.009 336.262V336.268H165.009V336.262H168.009ZM178.469 321.172C178.469 325.544 177.23 329.568 175.147 332.566C173.068 335.56 170.062 337.63 166.565 337.761L166.452 334.763C168.76 334.677 170.983 333.302 172.683 330.855C174.38 328.412 175.469 325 175.469 321.172H178.469ZM166.565 304.582C170.062 304.714 173.068 306.784 175.147 309.778C177.23 312.776 178.469 316.801 178.469 321.172H175.469C175.469 317.344 174.38 313.932 172.683 311.489C170.983 309.042 168.759 307.667 166.452 307.58L166.565 304.582ZM168.009 306.076V306.081H165.009V306.076H168.009ZM166.292 304.576H166.509V307.576H166.292V304.576ZM166.216 304.576C166.246 304.576 166.276 304.576 166.306 304.576L166.277 307.576C166.257 307.576 166.236 307.576 166.216 307.576V304.576ZM166.125 304.576C166.155 304.576 166.185 304.576 166.216 304.576V307.576C166.195 307.576 166.175 307.576 166.154 307.576L166.125 304.576ZM160.671 304.576H166.14V307.576H160.671V304.576ZM110.296 304.576L110.329 304.576L110.307 307.576L110.274 307.576L110.296 304.576ZM110.246 304.576L110.289 304.576L110.281 307.576L110.238 307.576L110.246 304.576ZM97.9883 321.172C97.9883 316.728 99.2693 312.641 101.416 309.627C103.561 306.616 106.661 304.576 110.242 304.576V307.576C107.885 307.576 105.607 308.915 103.86 311.368C102.115 313.818 100.988 317.279 100.988 321.172H97.9883ZM110.242 337.768C106.66 337.768 103.561 335.728 101.416 332.717C99.2693 329.703 97.9883 325.617 97.9883 321.172H100.988C100.988 325.065 102.115 328.527 103.86 330.976C105.607 333.429 107.884 334.768 110.242 334.768L110.242 337.768ZM116.156 337.768L110.242 337.768L110.242 334.768L116.156 334.768L116.156 337.768ZM117.656 336.262V336.268H114.656V336.262H117.656ZM128.116 321.172C128.116 325.544 126.877 329.568 124.794 332.566C122.715 335.559 119.708 337.63 116.212 337.761L116.099 334.763C118.406 334.677 120.63 333.302 122.33 330.854C124.027 328.412 125.116 325 125.116 321.172H128.116ZM116.212 304.582C119.709 304.714 122.715 306.785 124.794 309.778C126.877 312.777 128.116 316.801 128.116 321.172H125.116C125.116 317.344 124.027 313.932 122.33 311.49C120.63 309.042 118.406 307.667 116.099 307.58L116.212 304.582ZM117.656 306.076V306.081H114.656V306.076H117.656ZM115.938 304.576H116.156V307.576H115.938V304.576ZM115.862 304.576C115.892 304.576 115.922 304.576 115.952 304.576L115.923 307.576C115.903 307.576 115.883 307.576 115.862 307.576V304.576ZM115.772 304.576C115.802 304.576 115.832 304.576 115.862 304.576V307.576C115.842 307.576 115.821 307.576 115.801 307.576L115.772 304.576ZM110.318 304.576H115.786V307.576H110.318V304.576ZM189.87 488.397H145.281V485.397H189.87V488.397ZM184.239 466.581L191.283 486.395L188.457 487.4L181.412 467.586L184.239 466.581ZM144.581 485.571L182.125 465.757L183.525 468.41L145.981 488.224L144.581 485.571ZM80.7902 485.397H125.38V488.397H80.7902V485.397ZM119.035 468.41L81.4903 488.224L80.0901 485.571L117.635 465.757L119.035 468.41ZM123.966 487.4L116.921 467.586L119.748 466.581L126.793 486.395L123.966 487.4Z" fill="black"/>
<g opacity="0.403041">
<path fill-rule="evenodd" clip-rule="evenodd" d="M116.306 336.174C122.109 335.956 126.766 329.284 126.766 321.084C126.766 312.885 122.109 306.212 116.306 305.993V305.988H116.088C116.063 305.988 116.038 305.988 116.012 305.988C115.987 305.988 115.962 305.988 115.936 305.988H110.468C110.443 305.988 110.418 305.988 110.392 305.988C104.453 305.988 99.6384 312.747 99.6384 321.084C99.6384 329.421 104.453 336.18 110.392 336.18L116.306 336.18V336.174ZM123.065 321.084C123.065 325.965 120.657 329.922 117.688 329.922C114.718 329.922 112.311 325.965 112.311 321.084C112.311 316.203 114.718 312.246 117.688 312.246C120.657 312.246 123.065 316.203 123.065 321.084ZM166.566 336.235C172.369 336.017 177.026 329.344 177.026 321.144C177.026 312.945 172.369 306.272 166.566 306.054V306.048H166.348C166.323 306.048 166.298 306.048 166.273 306.048C166.247 306.048 166.222 306.048 166.197 306.048H160.728C160.703 306.048 160.678 306.048 160.652 306.048C154.713 306.048 149.898 312.807 149.898 321.144C149.898 329.482 154.712 336.24 160.652 336.24L166.566 336.24V336.235ZM173.325 321.145C173.325 326.026 170.917 329.983 167.948 329.983C164.978 329.983 162.571 326.026 162.571 321.145C162.571 316.264 164.978 312.308 167.948 312.308C170.917 312.308 173.325 316.264 173.325 321.145Z" fill="black"/>
<path d="M116.306 336.174H114.306V334.248L116.231 334.176L116.306 336.174ZM116.306 305.993L116.231 307.992L114.306 307.919V305.993H116.306ZM116.306 305.988V303.988H118.306V305.988H116.306ZM116.088 305.988V307.988H116.078L116.069 307.988L116.088 305.988ZM115.936 305.988L115.956 307.988L115.946 307.988H115.936V305.988ZM110.468 305.988V307.988H110.458L110.449 307.988L110.468 305.988ZM110.392 336.18L110.392 334.18H110.392L110.392 336.18ZM116.306 336.18H118.306V338.18L116.306 338.18L116.306 336.18ZM166.566 336.235H164.566V334.308L166.491 334.236L166.566 336.235ZM166.566 306.054L166.491 308.052L164.566 307.98V306.054H166.566ZM166.566 306.048V304.048H168.566V306.048H166.566ZM166.348 306.048V308.048H166.339L166.329 308.048L166.348 306.048ZM166.197 306.048L166.216 308.048L166.206 308.048H166.197V306.048ZM160.728 306.048V308.048H160.719L160.709 308.048L160.728 306.048ZM160.652 336.24L160.652 338.24H160.652L160.652 336.24ZM166.566 336.24H168.566V338.241L166.566 338.24L166.566 336.24ZM116.231 334.176C118.339 334.096 120.433 332.837 122.07 330.481C123.702 328.131 124.766 324.822 124.766 321.084H128.766C128.766 325.546 127.502 329.672 125.355 332.763C123.212 335.847 120.076 338.034 116.381 338.173L116.231 334.176ZM124.766 321.084C124.766 317.347 123.702 314.037 122.07 311.687C120.433 309.33 118.339 308.071 116.231 307.992L116.381 303.995C120.076 304.134 123.212 306.32 125.355 309.405C127.502 312.496 128.766 316.622 128.766 321.084H124.766ZM114.306 305.993V305.988H118.306V305.993H114.306ZM116.306 307.988H116.088V303.988H116.306V307.988ZM116.069 307.988C116.05 307.988 116.031 307.988 116.012 307.988V303.988C116.044 303.988 116.076 303.988 116.107 303.988L116.069 307.988ZM116.012 307.988C115.993 307.988 115.975 307.988 115.956 307.988L115.917 303.988C115.949 303.988 115.98 303.988 116.012 303.988V307.988ZM115.936 307.988H110.468V303.988H115.936V307.988ZM110.449 307.988C110.43 307.988 110.411 307.988 110.392 307.988V303.988C110.424 303.988 110.456 303.988 110.488 303.988L110.449 307.988ZM110.392 307.988C108.239 307.988 106.098 309.21 104.417 311.57C102.739 313.926 101.638 317.283 101.638 321.084H97.6384C97.6384 316.548 98.9452 312.357 101.159 309.249C103.37 306.145 106.607 303.988 110.392 303.988V307.988ZM101.638 321.084C101.638 324.885 102.739 328.242 104.417 330.598C106.098 332.958 108.239 334.18 110.392 334.18L110.392 338.18C106.607 338.18 103.37 336.023 101.159 332.919C98.9452 329.811 97.6384 325.62 97.6384 321.084H101.638ZM110.392 334.18L116.306 334.18L116.306 338.18L110.392 338.18L110.392 334.18ZM114.306 336.18V336.174H118.306V336.18H114.306ZM125.065 321.084C125.065 323.83 124.391 326.411 123.198 328.373C122.027 330.298 120.137 331.922 117.688 331.922V327.922C118.208 327.922 119.007 327.567 119.781 326.294C120.534 325.056 121.065 323.219 121.065 321.084H125.065ZM117.688 331.922C115.238 331.922 113.349 330.298 112.177 328.373C110.984 326.411 110.311 323.83 110.311 321.084H114.311C114.311 323.219 114.842 325.056 115.594 326.294C116.369 327.566 117.168 327.922 117.688 327.922V331.922ZM110.311 321.084C110.311 318.339 110.984 315.757 112.177 313.796C113.349 311.87 115.238 310.246 117.688 310.246V314.246C117.168 314.246 116.369 314.602 115.595 315.874C114.842 317.112 114.311 318.949 114.311 321.084H110.311ZM117.688 310.246C120.137 310.246 122.027 311.87 123.198 313.795C124.392 315.757 125.065 318.339 125.065 321.084H121.065C121.065 318.949 120.534 317.112 119.781 315.875C119.007 314.601 118.208 314.246 117.688 314.246V310.246ZM166.491 334.236C168.599 334.157 170.693 332.898 172.33 330.542C173.962 328.192 175.026 324.882 175.026 321.144H179.026C179.026 325.607 177.762 329.733 175.615 332.824C173.472 335.908 170.335 338.094 166.641 338.233L166.491 334.236ZM175.026 321.144C175.026 317.407 173.962 314.097 172.329 311.747C170.693 309.39 168.599 308.131 166.491 308.052L166.641 304.055C170.336 304.194 173.472 306.38 175.615 309.465C177.762 312.556 179.026 316.682 179.026 321.144H175.026ZM164.566 306.054V306.048H168.566V306.054H164.566ZM166.566 308.048H166.348V304.048H166.566V308.048ZM166.329 308.048C166.31 308.048 166.291 308.048 166.273 308.048V304.048C166.304 304.048 166.336 304.048 166.368 304.049L166.329 308.048ZM166.273 308.048C166.254 308.048 166.235 308.048 166.216 308.048L166.177 304.049C166.209 304.048 166.241 304.048 166.273 304.048V308.048ZM166.197 308.048H160.728V304.048H166.197V308.048ZM160.709 308.048C160.69 308.048 160.671 308.048 160.652 308.048V304.048C160.684 304.048 160.716 304.048 160.748 304.049L160.709 308.048ZM160.652 308.048C158.499 308.048 156.358 309.27 154.677 311.63C152.999 313.986 151.898 317.343 151.898 321.144H147.898C147.898 316.608 149.205 312.417 151.419 309.309C153.63 306.205 156.867 304.048 160.652 304.048V308.048ZM151.898 321.144C151.898 324.945 152.999 328.303 154.677 330.658C156.358 333.018 158.498 334.24 160.652 334.24L160.652 338.24C156.866 338.24 153.63 336.083 151.419 332.979C149.205 329.871 147.898 325.681 147.898 321.144H151.898ZM160.652 334.24L166.566 334.24L166.566 338.24L160.652 338.24L160.652 334.24ZM164.566 336.24V336.235H168.566V336.24H164.566ZM175.325 321.145C175.325 323.891 174.651 326.473 173.458 328.434C172.287 330.359 170.397 331.983 167.948 331.983V327.983C168.468 327.983 169.267 327.628 170.041 326.355C170.794 325.117 171.325 323.281 171.325 321.145H175.325ZM167.948 331.983C165.498 331.983 163.609 330.359 162.437 328.434C161.244 326.472 160.571 323.891 160.571 321.145H164.571C164.571 323.281 165.102 325.117 165.854 326.355C166.629 327.628 167.428 327.983 167.948 327.983V331.983ZM160.571 321.145C160.571 318.4 161.244 315.818 162.437 313.857C163.609 311.931 165.498 310.308 167.948 310.308V314.308C167.428 314.308 166.629 314.663 165.854 315.936C165.102 317.173 164.571 319.01 164.571 321.145H160.571ZM167.948 310.308C170.397 310.308 172.287 311.931 173.458 313.857C174.652 315.818 175.325 318.4 175.325 321.145H171.325C171.325 319.01 170.794 317.173 170.041 315.936C169.267 314.663 168.468 314.308 167.948 314.308V310.308Z" fill="black"/>
</g>
<path opacity="0.602888" fill-rule="evenodd" clip-rule="evenodd" d="M173.312 321.204C173.312 326.084 170.905 330.041 167.936 330.041C164.966 330.041 162.559 326.084 162.559 321.204C162.559 316.323 164.966 312.366 167.936 312.366C170.905 312.366 173.312 316.323 173.312 321.204Z" fill="black"/>
<path opacity="0.603864" fill-rule="evenodd" clip-rule="evenodd" d="M123.025 321.082C123.025 325.962 120.617 329.919 117.648 329.919C114.678 329.919 112.271 325.962 112.271 321.082C112.271 316.2 114.678 312.244 117.648 312.244C120.617 312.244 123.025 316.2 123.025 321.082Z" fill="black"/>
<path opacity="0.39588" fill-rule="evenodd" clip-rule="evenodd" d="M145.281 487.031H189.87L182.825 467.217L145.281 487.031Z" fill="black" stroke="black" stroke-width="2"/>
<path opacity="0.39588" fill-rule="evenodd" clip-rule="evenodd" d="M80.7903 487.031H125.38L118.335 467.217L80.7903 487.031Z" fill="black" stroke="black" stroke-width="2"/>
<path d="M52.6046 245.243L65.5995 136.135" stroke="#19141E" stroke-width="27" stroke-linecap="round"/>
<path fill-rule="evenodd" clip-rule="evenodd" d="M173.607 231.778H92.5715L80.2143 216.543H185.964L173.607 231.778Z" fill="#19141E"/>
<path d="M221.801 241.616L208.102 132.62" stroke="#19141E" stroke-width="27" stroke-linecap="round"/>
<path fill-rule="evenodd" clip-rule="evenodd" d="M58.845 194.717V163.954C58.2052 163.812 57.5653 163.637 56.9269 163.428C45.1131 159.56 38.2749 145.456 41.653 131.927C45.0304 118.398 57.3463 110.566 69.1601 114.435C69.6497 114.595 70.1307 114.773 70.6028 114.968C73.7106 113.06 77.2555 111.976 81.0107 111.976H185.167C188.55 111.976 191.761 112.856 194.637 114.424C198.032 112.022 202.032 110.636 206.316 110.636C218.603 110.636 228.564 122.043 228.564 136.114C228.564 149.795 219.148 160.958 207.333 161.567V194.717C207.333 208.678 197.359 220.101 185.167 220.101H81.0107C68.8194 220.101 58.845 208.678 58.845 194.717ZM31.1617 384.808C30.9564 378.84 32.6886 373.299 35.7164 368.981C26.7653 363.227 20.6962 352.228 20.7331 339.7L20.9352 270.693C20.9888 252.313 34.1647 237.326 50.2143 237.388C66.2634 237.45 79.351 252.538 79.2974 270.918L79.0952 339.925C79.0622 351.144 74.1395 361.1 66.6584 367.14C70.0391 371.035 72.2703 376.255 72.6512 382.064C72.7087 382.94 72.7243 383.81 72.7003 384.668C72.5908 388.557 68.2417 390.019 66.3045 386.822C64.0953 383.178 61.0546 380.975 57.7715 381.124C51.4717 381.408 46.6624 390.246 47.0276 400.866L47.029 400.9L47.0296 400.914L47.0304 400.934C47.1455 404.099 44.2404 406.219 41.8246 404.677C35.7058 400.77 31.4577 393.414 31.1617 384.808ZM227.543 369.707C237.725 365.184 245.312 354.263 246.175 341.019L250.659 272.203C251.853 253.874 239.735 237.758 223.73 236.391C207.725 235.023 193.652 248.901 192.458 267.23L187.975 336.046C187.225 347.554 191.722 358.189 199.135 364.849C194.007 369.018 190.568 375.773 190.332 383.393C190.304 384.271 190.319 385.14 190.373 385.997C190.616 389.878 195.011 391.143 196.837 387.862C198.92 384.12 201.882 381.782 205.167 381.782C211.472 381.782 216.582 390.396 216.582 401.025V401.093C216.575 404.26 219.551 406.248 221.913 404.597C227.892 400.418 231.883 392.875 231.883 384.263C231.883 378.78 230.264 373.731 227.543 369.707ZM152.171 231.699V246.408H114.007V231.699H152.171Z" fill="url(#paint1_linear)"/>
<path d="M58.845 163.954L59.1693 162.489L60.345 162.75V163.954H58.845ZM56.9269 163.428L56.4601 164.854H56.4601L56.9269 163.428ZM41.653 131.927L43.1083 132.29L43.1083 132.29L41.653 131.927ZM69.1601 114.435L68.6933 115.861L68.6933 115.861L69.1601 114.435ZM70.6028 114.968L71.3875 116.246L70.7368 116.646L70.0309 116.355L70.6028 114.968ZM194.637 114.424L195.503 115.649L194.74 116.189L193.919 115.741L194.637 114.424ZM207.333 161.567H205.833V160.142L207.256 160.069L207.333 161.567ZM35.7164 368.981L36.5275 367.719L37.8411 368.563L36.9446 369.842L35.7164 368.981ZM31.1617 384.808L32.6609 384.756V384.756L31.1617 384.808ZM20.7331 339.7L22.2331 339.705V339.705L20.7331 339.7ZM20.9352 270.693L22.4352 270.698V270.698L20.9352 270.693ZM50.2143 237.388L50.2201 235.888H50.2201L50.2143 237.388ZM79.2974 270.918L80.7974 270.922V270.922L79.2974 270.918ZM79.0952 339.925L80.5952 339.929V339.929L79.0952 339.925ZM66.6584 367.14L65.5256 368.123L64.5068 366.95L65.7162 365.973L66.6584 367.14ZM72.6512 382.064L71.1544 382.162V382.162L72.6512 382.064ZM72.7003 384.668L74.1997 384.71L74.1997 384.71L72.7003 384.668ZM66.3045 386.822L67.5872 386.045L67.5873 386.045L66.3045 386.822ZM57.7715 381.124L57.8392 382.622L57.7715 381.124ZM47.0276 400.866L45.5289 400.928L45.5285 400.918L47.0276 400.866ZM47.029 400.9L48.5277 400.838L48.5279 400.842L47.029 400.9ZM47.0296 400.914L45.531 400.98L45.5307 400.972L47.0296 400.914ZM47.0304 400.934L48.529 400.868L48.5294 400.88L47.0304 400.934ZM41.8246 404.677L42.6318 403.412L42.6319 403.412L41.8246 404.677ZM246.175 341.019L244.678 340.921L244.678 340.921L246.175 341.019ZM227.543 369.707L226.3 370.547L225.297 369.063L226.934 368.336L227.543 369.707ZM250.659 272.203L249.162 272.105L249.162 272.105L250.659 272.203ZM223.73 236.391L223.602 237.886H223.602L223.73 236.391ZM192.458 267.23L190.961 267.133V267.132L192.458 267.23ZM187.975 336.046L189.472 336.143V336.143L187.975 336.046ZM199.135 364.849L200.137 363.733L201.443 364.906L200.081 366.013L199.135 364.849ZM190.332 383.393L191.831 383.439L191.831 383.439L190.332 383.393ZM190.373 385.997L188.876 386.091L188.876 386.09L190.373 385.997ZM196.837 387.862L195.526 387.132H195.526L196.837 387.862ZM216.582 401.093H218.082L218.082 401.096L216.582 401.093ZM221.913 404.597L222.772 405.827L222.772 405.827L221.913 404.597ZM152.171 246.408H153.671V247.908H152.171V246.408ZM152.171 231.699V230.199H153.671V231.699H152.171ZM114.007 246.408V247.908H112.507V246.408H114.007ZM114.007 231.699H112.507V230.199H114.007V231.699ZM60.345 163.954V194.717H57.345V163.954H60.345ZM57.3937 162.003C57.9855 162.196 58.5778 162.358 59.1693 162.489L58.5208 165.418C57.8326 165.266 57.1451 165.078 56.4601 164.854L57.3937 162.003ZM43.1083 132.29C39.8845 145.202 46.462 158.423 57.3937 162.003L56.4601 164.854C43.7641 160.696 36.6654 145.711 40.1976 131.563L43.1083 132.29ZM68.6933 115.861C57.8737 112.317 46.3198 119.426 43.1083 132.29L40.1976 131.563C43.741 117.37 56.8188 108.815 69.627 113.01L68.6933 115.861ZM70.0309 116.355C69.5931 116.174 69.1471 116.009 68.6933 115.861L69.6269 113.01C70.1522 113.182 70.6682 113.372 71.1746 113.581L70.0309 116.355ZM81.0107 113.476C77.5507 113.476 74.2752 114.474 71.3875 116.246L69.818 113.69C73.1459 111.647 76.9602 110.476 81.0107 110.476V113.476ZM185.167 113.476H81.0107V110.476H185.167V113.476ZM193.919 115.741C191.251 114.286 188.285 113.476 185.167 113.476V110.476C188.815 110.476 192.272 111.425 195.355 113.108L193.919 115.741ZM206.316 112.136C202.365 112.136 198.664 113.412 195.503 115.649L193.77 113.2C197.4 110.632 201.7 109.136 206.316 109.136V112.136ZM227.064 136.114C227.064 122.674 217.59 112.136 206.316 112.136V109.136C219.616 109.136 230.064 121.412 230.064 136.114H227.064ZM207.256 160.069C218.107 159.51 227.064 149.176 227.064 136.114H230.064C230.064 150.415 220.19 162.406 207.41 163.065L207.256 160.069ZM205.833 194.717V161.567H208.833V194.717H205.833ZM185.167 218.601C196.346 218.601 205.833 208.047 205.833 194.717H208.833C208.833 209.309 198.372 221.601 185.167 221.601V218.601ZM81.0107 218.601H185.167V221.601H81.0107V218.601ZM60.345 194.717C60.345 208.047 69.8323 218.601 81.0107 218.601V221.601C67.8064 221.601 57.345 209.309 57.345 194.717H60.345ZM36.9446 369.842C34.1067 373.889 32.4666 379.109 32.6609 384.756L29.6626 384.859C29.4463 378.571 31.2705 372.709 34.4883 368.12L36.9446 369.842ZM22.2331 339.705C22.1976 351.759 28.0386 362.263 36.5275 367.719L34.9054 370.242C25.492 364.192 19.1948 352.697 19.2331 339.696L22.2331 339.705ZM22.4352 270.698L22.2331 339.705L19.2331 339.696L19.4352 270.689L22.4352 270.698ZM50.2086 238.888C35.1726 238.83 22.487 252.949 22.4352 270.698L19.4352 270.689C19.4907 251.678 33.1568 235.822 50.2201 235.888L50.2086 238.888ZM77.7974 270.913C77.8492 253.164 65.2454 238.946 50.2085 238.888L50.2201 235.888C67.2813 235.954 80.8528 251.912 80.7974 270.922L77.7974 270.913ZM77.5952 339.92L77.7974 270.913L80.7974 270.922L80.5952 339.929L77.5952 339.92ZM65.7162 365.973C72.828 360.231 77.5634 350.711 77.5952 339.92L80.5952 339.929C80.5609 351.577 75.4509 361.969 67.6007 368.307L65.7162 365.973ZM71.1544 382.162C70.7946 376.675 68.6881 371.767 65.5256 368.123L67.7913 366.157C71.3902 370.303 73.746 375.835 74.1479 381.966L71.1544 382.162ZM71.2009 384.626C71.2236 383.814 71.2088 382.992 71.1544 382.162L74.1479 381.965C74.2085 382.889 74.225 383.805 74.1997 384.71L71.2009 384.626ZM67.5873 386.045C68.1959 387.049 69.0388 387.206 69.7092 386.981C70.4194 386.742 71.1627 385.982 71.2009 384.626L74.1997 384.71C74.1284 387.242 72.6424 389.159 70.6664 389.824C68.6505 390.503 66.3502 389.792 65.0216 387.6L67.5873 386.045ZM57.7038 379.625C61.7638 379.442 65.2363 382.166 67.5872 386.045L65.0217 387.6C62.9542 384.189 60.3453 382.509 57.8392 382.622L57.7038 379.625ZM45.5285 400.918C45.3383 395.386 46.4903 390.247 48.5826 386.402C50.6561 382.592 53.8169 379.801 57.7038 379.625L57.8392 382.622C55.4263 382.731 53.0326 384.501 51.2177 387.836C49.4218 391.136 48.3518 395.727 48.5267 400.815L45.5285 400.918ZM45.5303 400.961L45.5289 400.928L48.5264 400.805L48.5277 400.838L45.5303 400.961ZM45.5307 400.972L45.5301 400.958L48.5279 400.842L48.5284 400.856L45.5307 400.972ZM45.5319 401L45.531 400.98L48.5281 400.848L48.529 400.868L45.5319 401ZM42.6319 403.412C43.2761 403.824 43.9382 403.759 44.4979 403.355C45.0851 402.93 45.5717 402.097 45.5314 400.989L48.5294 400.88C48.6042 402.936 47.6958 404.745 46.2553 405.786C44.7873 406.847 42.789 407.072 41.0174 405.941L42.6319 403.412ZM32.6609 384.756C32.9412 392.909 36.9618 399.793 42.6318 403.412L41.0175 405.941C34.4498 401.748 29.9742 393.919 29.6626 384.859L32.6609 384.756ZM247.672 341.116C246.777 354.86 238.894 366.306 228.152 371.078L226.934 368.336C236.556 364.062 243.848 353.667 244.678 340.921L247.672 341.116ZM252.156 272.3L247.672 341.116L244.678 340.921L249.162 272.105L252.156 272.3ZM223.857 234.896C240.852 236.348 253.391 253.345 252.156 272.301L249.162 272.105C250.316 254.402 238.617 239.168 223.602 237.886L223.857 234.896ZM190.961 267.132C192.197 248.165 206.828 233.441 223.857 234.896L223.602 237.886C208.622 236.605 195.108 249.636 193.955 267.328L190.961 267.132ZM186.478 335.948L190.961 267.133L193.955 267.328L189.472 336.143L186.478 335.948ZM198.132 365.965C190.363 358.984 185.699 347.895 186.478 335.948L189.472 336.143C188.75 347.212 193.081 357.393 200.137 363.733L198.132 365.965ZM188.833 383.346C189.082 375.311 192.708 368.141 198.189 363.685L200.081 366.013C195.306 369.895 192.055 376.235 191.831 383.439L188.833 383.346ZM188.876 386.09C188.819 385.188 188.804 384.272 188.833 383.346L191.831 383.439C191.805 384.271 191.819 385.093 191.87 385.903L188.876 386.09ZM198.148 388.591C196.903 390.828 194.639 391.645 192.596 391.057C190.589 390.478 189.034 388.621 188.876 386.091L191.87 385.903C191.954 387.254 192.719 387.97 193.427 388.174C194.098 388.367 194.945 388.176 195.526 387.132L198.148 388.591ZM205.167 383.282C202.656 383.282 200.1 385.084 198.148 388.591L195.526 387.132C197.739 383.156 201.109 380.282 205.167 380.282V383.282ZM215.082 401.025C215.082 395.933 213.855 391.396 211.949 388.183C210.023 384.937 207.577 383.282 205.167 383.282V380.282C209.062 380.282 212.323 382.933 214.529 386.652C216.754 390.404 218.082 395.488 218.082 401.025H215.082ZM215.082 401.093V401.025H218.082V401.093H215.082ZM222.772 405.827C221.05 407.031 219.045 406.903 217.532 405.903C216.048 404.922 215.078 403.148 215.082 401.09L218.082 401.096C218.08 402.205 218.593 403.008 219.186 403.401C219.75 403.773 220.414 403.815 221.054 403.368L222.772 405.827ZM233.383 384.263C233.383 393.329 229.182 401.346 222.772 405.827L221.053 403.368C226.602 399.49 230.383 392.422 230.383 384.263H233.383ZM228.785 368.867C231.677 373.142 233.383 378.486 233.383 384.263H230.383C230.383 379.075 228.851 374.319 226.3 370.547L228.785 368.867ZM150.671 246.408V231.699H153.671V246.408H150.671ZM114.007 244.908H152.171V247.908H114.007V244.908ZM115.507 231.699V246.408H112.507V231.699H115.507ZM152.171 233.199H114.007V230.199H152.171V233.199Z" fill="black"/>
<path opacity="0.394764" fill-rule="evenodd" clip-rule="evenodd" d="M190.332 383.393C190.305 384.271 190.319 385.141 190.373 385.997C190.616 389.878 195.011 391.143 196.837 387.862C198.92 384.12 201.882 381.782 205.167 381.782C211.472 381.782 216.582 390.396 216.582 401.025V401.093C216.575 404.26 219.551 406.248 221.913 404.597C227.892 400.418 231.883 392.876 231.883 384.263C231.883 370.878 222.232 360.073 210.458 360.478C199.611 360.851 190.717 370.973 190.332 383.393ZM88.3285 164.179C88.3285 180.486 98.6937 194.019 112.291 196.615C112.487 196.577 112.677 196.538 112.872 196.494C126.185 193.641 136.26 180.256 136.26 164.179C136.26 148.101 126.185 134.716 112.872 131.863C112.677 131.819 112.487 131.78 112.291 131.742C98.6937 134.338 88.3285 147.871 88.3285 164.179ZM133.809 164.222C133.809 174.744 126.361 183.272 117.174 183.272C107.986 183.272 100.539 174.744 100.539 164.222C100.539 153.701 107.986 145.172 117.174 145.172C126.361 145.172 133.809 153.701 133.809 164.222ZM228.682 136.116C228.682 122.045 218.721 110.638 206.433 110.638C194.146 110.638 184.185 122.045 184.185 136.116C184.185 150.188 194.146 161.595 206.433 161.595C218.721 161.595 228.682 150.188 228.682 136.116ZM223.314 131.394C223.314 138.22 218.481 143.754 212.521 143.754C206.56 143.754 201.728 138.22 201.728 131.394C201.728 124.567 206.56 119.033 212.521 119.033C218.481 119.033 223.314 124.567 223.314 131.394ZM70.6427 115.037C70.1706 114.842 69.6896 114.664 69.2 114.504C57.3862 110.635 45.0703 118.466 41.6928 131.995C38.3148 145.525 45.1529 159.628 56.9668 163.497C57.6052 163.706 58.2451 163.881 58.8849 164.023V137.429C58.8849 127.768 63.6609 119.323 70.6427 115.037ZM35.7174 368.856C32.6895 373.175 30.9574 378.716 31.1627 384.683C31.4586 393.289 35.7067 400.646 41.8256 404.552C44.2414 406.095 47.1464 403.975 47.0313 400.81C47.0302 400.787 47.0297 400.765 47.0285 400.742C46.6633 390.122 51.4726 381.284 57.7724 380.999C61.0555 380.851 64.0962 383.053 66.3054 386.698C68.2426 389.895 72.5918 388.432 72.7012 384.543C72.7252 383.685 72.7096 382.816 72.6521 381.939C72.2712 376.131 70.0401 370.911 66.6594 367.016C74.1404 360.976 79.0631 351.02 79.0961 339.8L79.2983 270.793C79.3519 252.413 66.2643 237.325 50.2152 237.263C34.1656 237.202 20.9898 252.189 20.9362 270.569L20.734 339.576C20.6971 352.104 26.7662 363.103 35.7174 368.856ZM151.5 190.562C151.5 186.949 148.942 184.019 145.787 184.019C142.631 184.019 140.073 186.949 140.073 190.562C140.073 194.175 142.631 197.105 145.787 197.105C148.942 197.105 151.5 194.175 151.5 190.562ZM168.013 190.562C168.013 186.949 165.455 184.019 162.3 184.019C159.145 184.019 156.586 186.949 156.586 190.562C156.586 194.175 159.145 197.105 162.3 197.105C165.455 197.105 168.013 194.175 168.013 190.562ZM243.293 277.315C243.537 273.712 241.185 270.565 238.038 270.286C234.892 270.007 232.144 272.701 231.901 276.304C231.656 279.907 234.01 283.053 237.155 283.333C240.302 283.612 243.049 280.917 243.293 277.315ZM242.072 295.364C242.316 291.761 239.963 288.615 236.817 288.335C233.671 288.056 230.923 290.751 230.679 294.353C230.435 297.956 232.788 301.103 235.934 301.382C239.081 301.661 241.828 298.967 242.072 295.364ZM240.821 313.85C241.065 310.248 238.712 307.101 235.566 306.821C232.42 306.542 229.672 309.237 229.429 312.839C229.185 316.442 231.538 319.589 234.683 319.868C237.83 320.147 240.577 317.453 240.821 313.85ZM152.454 246.216V231.507H113.922V246.216H152.454Z" fill="black"/>
<path fill-rule="evenodd" clip-rule="evenodd" d="M112.425 196.657C98.8278 194.061 88.4626 180.528 88.4626 164.221C88.4626 147.913 98.8278 134.381 112.425 131.784C110.884 131.49 109.299 131.336 107.684 131.336C91.825 131.336 78.9691 146.058 78.9691 164.221C78.9691 182.383 91.825 197.105 107.684 197.105C109.299 197.105 110.884 196.951 112.425 196.657Z" fill="#19141E"/>
<path d="M100.703 66.0271H117.716" stroke="#19141E" stroke-width="5" stroke-linecap="round"/>
<path d="M152.635 39.457C155.87 39.457 158.517 42.4877 158.517 46.1925" stroke="white" stroke-width="5" stroke-linecap="round"/>
<path d="M177.85 66.0271H156.924" stroke="#19141E" stroke-width="5" stroke-linecap="round"/>
<path fill-rule="evenodd" clip-rule="evenodd" d="M101.486 102.004C98.3971 102.256 95.9591 105.207 95.9591 108.808V111.875H175.395V108.808C175.395 105.207 172.958 102.256 169.868 102.004V100.79C169.868 96.6377 167.219 93.1602 163.761 92.4634V42.3888C163.761 37.7165 160.423 33.894 156.344 33.894H115.011C110.931 33.894 107.593 37.7165 107.593 42.3888V92.4634C104.135 93.1602 101.486 96.6378 101.486 100.79V102.004ZM88.8768 66.028C88.8768 70.5859 92.1029 74.2811 96.0829 74.2811C100.063 74.2811 103.29 70.5859 103.29 66.028C103.29 61.4702 100.063 57.7757 96.0829 57.7757C92.1029 57.7757 88.8768 61.4702 88.8768 66.028ZM177.637 57.7757C181.617 57.7757 184.844 61.4702 184.844 66.028C184.844 70.5859 181.617 74.2811 177.637 74.2811C173.657 74.2811 170.431 70.5859 170.431 66.028C170.431 61.4702 173.657 57.7757 177.637 57.7757Z" fill="url(#paint2_linear)"/>
<path d="M101.486 102.004H102.986V103.387L101.608 103.499L101.486 102.004ZM95.9591 111.875V113.375H94.4591V111.875H95.9591ZM175.395 111.875H176.895V113.375H175.395V111.875ZM169.868 102.004L169.746 103.499L168.368 103.387V102.004H169.868ZM163.761 92.4634L163.465 93.9338L162.261 93.6913V92.4634H163.761ZM107.593 92.4634H109.093V93.6913L107.889 93.9339L107.593 92.4634ZM94.4591 108.808C94.4591 104.594 97.3395 100.838 101.364 100.509L101.608 103.499C99.4547 103.675 97.4591 105.819 97.4591 108.808H94.4591ZM94.4591 111.875V108.808H97.4591V111.875H94.4591ZM175.395 113.375H95.9591V110.375H175.395V113.375ZM176.895 108.808V111.875H173.895V108.808H176.895ZM169.99 100.509C174.015 100.838 176.895 104.594 176.895 108.808H173.895C173.895 105.819 171.9 103.675 169.746 103.499L169.99 100.509ZM171.368 100.79V102.004H168.368V100.79H171.368ZM164.058 90.9929C168.333 91.8545 171.368 96.0506 171.368 100.79H168.368C168.368 97.2249 166.105 94.4658 163.465 93.9338L164.058 90.9929ZM165.261 42.3888V92.4634H162.261V42.3888H165.261ZM156.344 32.394C161.436 32.394 165.261 37.0854 165.261 42.3888H162.261C162.261 38.3475 159.41 35.394 156.344 35.394V32.394ZM115.011 32.394H156.344V35.394H115.011V32.394ZM106.093 42.3888C106.093 37.0855 109.918 32.394 115.011 32.394V35.394C111.944 35.394 109.093 38.3474 109.093 42.3888H106.093ZM106.093 92.4634V42.3888H109.093V92.4634H106.093ZM99.9863 100.79C99.9863 96.0507 103.021 91.8545 107.296 90.993L107.889 93.9339C105.249 94.4659 102.986 97.2249 102.986 100.79H99.9863ZM99.9863 102.004V100.79H102.986V102.004H99.9863ZM96.0829 75.7811C91.0898 75.7811 87.3768 71.2167 87.3768 66.028H90.3768C90.3768 69.9551 93.116 72.7811 96.0829 72.7811V75.7811ZM104.79 66.028C104.79 71.2169 101.076 75.7811 96.0829 75.7811V72.7811C99.05 72.7811 101.79 69.9549 101.79 66.028H104.79ZM96.0829 56.2757C101.076 56.2757 104.79 60.839 104.79 66.028H101.79C101.79 62.1013 99.0501 59.2757 96.0829 59.2757V56.2757ZM87.3768 66.028C87.3768 60.8392 91.09 56.2757 96.0829 56.2757V59.2757C93.1159 59.2757 90.3768 62.1011 90.3768 66.028H87.3768ZM183.344 66.028C183.344 62.1013 180.604 59.2757 177.637 59.2757V56.2757C182.63 56.2757 186.344 60.839 186.344 66.028H183.344ZM177.637 72.7811C180.604 72.7811 183.344 69.9549 183.344 66.028H186.344C186.344 71.2169 182.63 75.7811 177.637 75.7811V72.7811ZM171.931 66.028C171.931 69.9549 174.67 72.7811 177.637 72.7811V75.7811C172.644 75.7811 168.931 71.2169 168.931 66.028H171.931ZM177.637 59.2757C174.67 59.2757 171.931 62.1013 171.931 66.028H168.931C168.931 60.839 172.644 56.2757 177.637 56.2757V59.2757Z" fill="black"/>
<path opacity="0.395926" fill-rule="evenodd" clip-rule="evenodd" d="M169.868 102.004V99.8975C169.544 96.0769 166.546 92.3365 162.487 92.3365H108.868C104.808 92.3365 101.936 95.7896 101.486 99.6221V102.004C98.3971 102.257 95.9591 105.207 95.9591 108.809V111.875H175.395V108.809C175.395 105.207 172.958 102.257 169.868 102.004ZM88.8768 66.0283C88.8768 70.5861 92.1029 74.2813 96.0829 74.2813C100.063 74.2813 103.29 70.5861 103.29 66.0283C103.29 61.4704 100.063 57.7759 96.0829 57.7759C92.1029 57.7759 88.8768 61.4704 88.8768 66.0283ZM184.844 66.0283C184.844 61.4704 181.617 57.7759 177.637 57.7759C173.657 57.7759 170.431 61.4704 170.431 66.0283C170.431 70.5861 173.657 74.2813 177.637 74.2813C181.617 74.2813 184.844 70.5861 184.844 66.0283Z" fill="black"/>
<path d="M169.397 102.206H101.653" stroke="#19141E" stroke-width="5"/>
<path d="M152.199 79.4866H107.593" stroke="#19141E" stroke-width="7"/>
<path fill-rule="evenodd" clip-rule="evenodd" d="M140.541 55.204C143.685 58.1675 144.136 63.489 141.548 67.0895C138.96 70.69 134.313 71.2061 131.169 68.2425C128.025 65.279 127.574 59.9575 130.162 56.357C132.75 52.7565 137.397 52.2404 140.541 55.204Z" fill="white"/>
<path d="M140.541 55.204C143.685 58.1675 144.136 63.489 141.548 67.0895C138.96 70.69 134.313 71.2061 131.169 68.2425C128.025 65.279 127.574 59.9575 130.162 56.357C132.75 52.7565 137.397 52.2404 140.541 55.204" stroke="black" stroke-width="2"/>
<path fill-rule="evenodd" clip-rule="evenodd" d="M136.601 58.8188C138.045 60.1803 138.252 62.6246 137.063 64.279C135.874 65.9328 133.74 66.1701 132.296 64.8086C130.851 63.447 130.644 61.0028 131.833 59.3483C133.022 57.6945 135.157 57.4573 136.601 58.8188Z" fill="#19141E"/>
<path fill-rule="evenodd" clip-rule="evenodd" d="M121.146 55.204C124.29 58.1675 124.741 63.489 122.153 67.0895C119.565 70.69 114.918 71.2061 111.774 68.2425C108.63 65.279 108.179 59.9575 110.767 56.357C113.355 52.7565 118.002 52.2404 121.146 55.204Z" fill="white"/>
<path d="M121.146 55.204C124.29 58.1675 124.741 63.489 122.153 67.0895C119.565 70.69 114.918 71.2061 111.774 68.2425C108.63 65.279 108.179 59.9575 110.767 56.357C113.355 52.7565 118.002 52.2404 121.146 55.204" stroke="black" stroke-width="2"/>
<path fill-rule="evenodd" clip-rule="evenodd" d="M117.206 58.8188C118.65 60.1803 118.857 62.6246 117.668 64.279C116.48 65.9328 114.345 66.1701 112.901 64.8086C111.456 63.447 111.249 61.0028 112.438 59.3483C113.627 57.6945 115.762 57.4573 117.206 58.8188Z" fill="#19141E"/>
<defs>
<linearGradient id="paint0_linear" x1="189.87" y1="335.238" x2="80.7902" y2="335.238" gradientUnits="userSpaceOnUse">
<stop stop-color="#16B2E3"/>
<stop offset="0.47" stop-color="#30C7EC"/>
<stop offset="1" stop-color="#46AEF7"/>
</linearGradient>
<linearGradient id="paint1_linear" x1="250.74" y1="257.914" x2="20.7329" y2="257.914" gradientUnits="userSpaceOnUse">
<stop stop-color="#16B2E3"/>
<stop offset="0.47" stop-color="#30C7EC"/>
<stop offset="1" stop-color="#46AEF7"/>
</linearGradient>
<linearGradient id="paint2_linear" x1="184.844" y1="72.8845" x2="88.8768" y2="72.8845" gradientUnits="userSpaceOnUse">
<stop stop-color="#16B2E3"/>
<stop offset="0.47" stop-color="#30C7EC"/>
<stop offset="1" stop-color="#46AEF7"/>
</linearGradient>
</defs>
</svg>
