<svg width="142" height="85" viewBox="0 0 142 85" fill="none" xmlns="http://www.w3.org/2000/svg">
<path d="M33.5433 5.59229L40.2855 12.8745C41.6103 14.3054 43.472 15.1188 45.4221 15.1188H102.455H114.759C116.763 15.1188 118.67 14.26 119.999 12.7597L126.346 5.59229" stroke="black" stroke-width="4" stroke-miterlimit="10" stroke-linecap="round" stroke-linejoin="round"/>
<path d="M102.866 32.0548V21.4697" stroke="black" stroke-width="4" stroke-miterlimit="10" stroke-linecap="round" stroke-linejoin="round"/>
<path d="M59.2599 32.0548V21.4697" stroke="black" stroke-width="4" stroke-miterlimit="10" stroke-linecap="round" stroke-linejoin="round"/>
<path opacity="0.3" d="M37.5144 26.1085C37.7555 25.2437 38.5432 24.6455 39.441 24.6455H101.808C102.714 24.6455 103.507 25.2547 103.741 26.1303L111.14 53.8854C111.479 55.1551 110.522 56.4007 109.208 56.4007H31.7046C30.3812 56.4007 29.4227 55.1385 29.7781 53.8637L37.5144 26.1085Z" fill="black"/>
<path opacity="0.3" d="M55.7143 3.21523C56.0747 2.60862 56.7281 2.23682 57.4337 2.23682H99.3362C100.056 2.23682 100.72 2.62317 101.075 3.24862L104.522 9.31441C105.28 10.6477 104.317 12.3026 102.784 12.3026H53.8297C52.279 12.3026 51.3182 10.6142 52.1103 9.28102L55.7143 3.21523Z" fill="black"/>
<path d="M46.4592 34.5763C46.7003 33.7115 47.488 33.1133 48.3858 33.1133H110.753C111.659 33.1133 112.452 33.7225 112.685 34.598L120.085 62.3532C120.424 63.6229 119.467 64.8685 118.153 64.8685H40.6495C39.3261 64.8685 38.3676 63.6062 38.7229 62.3315L46.4592 34.5763Z" stroke="black" stroke-width="4" stroke-miterlimit="10" stroke-linecap="round" stroke-linejoin="round"/>
<path d="M89.4488 51.4674C91.3014 51.4674 92.8031 49.9652 92.8031 48.1121C92.8031 46.259 91.3014 44.7568 89.4488 44.7568C87.5963 44.7568 86.0945 46.259 86.0945 48.1121C86.0945 49.9652 87.5963 51.4674 89.4488 51.4674Z" stroke="black" stroke-width="4" stroke-miterlimit="10" stroke-linecap="round" stroke-linejoin="round"/>
<path d="M102.307 52.5858C104.468 52.5858 106.221 50.8332 106.221 48.6713C106.221 46.5094 104.468 44.7568 102.307 44.7568C100.146 44.7568 98.3938 46.5094 98.3938 48.6713C98.3938 50.8332 100.146 52.5858 102.307 52.5858Z" stroke="black" stroke-width="4" stroke-miterlimit="10" stroke-linecap="round" stroke-linejoin="round"/>
<path d="M80.504 44.7568H53.6693V52.1664H80.504V44.7568Z" stroke="black" stroke-width="4" stroke-miterlimit="10" stroke-linecap="round" stroke-linejoin="round"/>
</svg>
