<svg width="159" height="219" viewBox="0 0 159 219" fill="none" xmlns="http://www.w3.org/2000/svg">
<path opacity="0.71" d="M28.5491 38.6721C27.4445 38.6721 26.5491 39.5676 26.5491 40.6721C26.5491 41.7767 27.4445 42.6721 28.5491 42.6721V38.6721ZM131.993 42.6721C133.097 42.6721 133.993 41.7767 133.993 40.6721C133.993 39.5676 133.097 38.6721 131.993 38.6721V42.6721ZM28.5491 58.875C27.4445 58.875 26.5491 59.7704 26.5491 60.875C26.5491 61.9795 27.4445 62.875 28.5491 62.875V58.875ZM131.993 62.875C133.097 62.875 133.993 61.9795 133.993 60.875C133.993 59.7704 133.097 58.875 131.993 58.875V62.875ZM28.5491 79.0777C27.4445 79.0777 26.5491 79.9731 26.5491 81.0777C26.5491 82.1823 27.4445 83.0777 28.5491 83.0777V79.0777ZM131.993 83.0777C133.097 83.0777 133.993 82.1823 133.993 81.0777C133.993 79.9731 133.097 79.0777 131.993 79.0777V83.0777ZM49.9566 99.2805C48.852 99.2805 47.9566 100.176 47.9566 101.281C47.9566 102.385 48.852 103.281 49.9566 103.281V99.2805ZM110.585 103.281C111.69 103.281 112.585 102.385 112.585 101.281C112.585 100.176 111.69 99.2805 110.585 99.2805V103.281ZM44.99 169.312C43.8854 169.312 42.99 170.208 42.99 171.312C42.99 172.417 43.8854 173.312 44.99 173.312V169.312ZM115.551 173.312C116.656 173.312 117.551 172.417 117.551 171.312C117.551 170.208 116.656 169.312 115.551 169.312V173.312ZM128.129 186.468H32.4123V190.468H128.129V186.468ZM32.4123 186.468C29.7012 186.468 27.4661 184.24 27.4661 181.445H23.4661C23.4661 186.407 27.4507 190.468 32.4123 190.468V186.468ZM27.4661 181.445V161.18H23.4661V181.445H27.4661ZM27.4661 161.18C27.4661 158.385 29.7012 156.157 32.4123 156.157V152.157C27.4507 152.157 23.4661 156.217 23.4661 161.18H27.4661ZM32.4123 156.157H128.129V152.157H32.4123V156.157ZM128.129 156.157C130.84 156.157 133.076 158.385 133.076 161.18H137.076C137.076 156.217 133.091 152.157 128.129 152.157V156.157ZM133.076 161.18V181.445H137.076V161.18H133.076ZM133.076 181.445C133.076 184.24 130.84 186.468 128.129 186.468V190.468C133.091 190.468 137.076 186.407 137.076 181.445H133.076ZM145.61 214.38H13.3899V218.38H145.61V214.38ZM13.3899 214.38C8.22635 214.38 4 210.138 4 204.864H0C0 212.306 5.97577 218.38 13.3899 218.38V214.38ZM4 204.864V13.5161H0V204.864H4ZM4 13.5161C4 8.24132 8.22635 4 13.3899 4V0C5.97577 0 0 6.07385 0 13.5161H4ZM13.3899 4H145.61V0H13.3899V4ZM145.61 4C150.774 4 155 8.24131 155 13.5161H159C159 6.07385 153.024 0 145.61 0V4ZM155 13.5161V204.864H159V13.5161H155ZM155 204.864C155 210.138 150.774 214.38 145.61 214.38V218.38C153.024 218.38 159 212.306 159 204.864H155ZM28.5491 42.6721H131.993V38.6721H28.5491V42.6721ZM28.5491 62.875H131.993V58.875H28.5491V62.875ZM28.5491 83.0777H131.993V79.0777H28.5491V83.0777ZM49.9566 103.281H110.585V99.2805H49.9566V103.281ZM44.99 173.312H115.551V169.312H44.99V173.312Z" fill="#555555"/>
</svg>
