<svg width="49" height="54" viewBox="0 0 49 54" fill="none" xmlns="http://www.w3.org/2000/svg">
<path d="M30.9062 17.0016C31.4591 17.9592 31.1252 19.2053 30.1676 19.7582L15.3731 28.2998C14.4156 28.8526 13.1694 28.5188 12.6166 27.5612L5.49858 15.2324C4.94573 14.2749 5.27963 13.0288 6.23721 12.4759L21.0317 3.9343C21.9893 3.38144 23.2354 3.71533 23.7882 4.6729L30.9062 17.0016Z" fill="white"/>
<path d="M31.6942 18.3657C32.2471 19.3233 33.4335 23.2028 32.4759 23.7556L17.6815 32.2972C16.7239 32.8501 13.9574 29.8829 13.4046 28.9253L10.6742 17.8936C10.1214 16.936 10.4552 15.6899 11.4128 15.1371L20.7252 9.76057C21.6828 9.20772 22.9289 9.5416 23.4817 10.4992L31.6942 18.3657Z" fill="#CA9E67"/>
<path d="M30.9063 17.0016L12.6406 27.5473L5.96485 15.9846C5.412 15.027 5.41175 14.1973 6.06254 13.2789C7.10179 11.8171 8.76171 10.38 13.4778 7.65714C17.6671 5.2384 20.1625 4.3084 21.8385 4.17065C22.9592 4.06622 23.9127 4.88828 24.0924 5.1995L30.9063 17.0016V17.0016Z" stroke="black" stroke-width="3" stroke-miterlimit="10"/>
<path d="M26.442 9.26923L32.9795 20.5925C33.5323 21.5501 33.5326 22.3799 32.8818 23.2982C31.8426 24.76 30.1826 26.1972 25.4666 28.92C21.2772 31.3387 18.7818 32.2687 17.1058 32.4065C15.9851 32.5109 15.0317 31.6888 14.852 31.3776L8.17627 19.8149" stroke="black" stroke-width="3" stroke-miterlimit="10"/>
<path d="M8.54163 30.2329L35.2818 14.7944" stroke="black" stroke-width="3" stroke-miterlimit="10" stroke-linecap="round" stroke-linejoin="round"/>
<path d="M25.6555 28.9702L35.3305 45.7277" stroke="black" stroke-width="3" stroke-miterlimit="10" stroke-linecap="round" stroke-linejoin="round"/>
<path d="M20.6761 31.8453L27.8614 50.0402" stroke="black" stroke-width="3" stroke-miterlimit="10" stroke-linecap="round" stroke-linejoin="round"/>
<path d="M30.6108 26.1094L42.7755 41.4295" stroke="black" stroke-width="3" stroke-miterlimit="10" stroke-linecap="round" stroke-linejoin="round"/>
</svg>
