<svg width="137" height="133" viewBox="0 0 137 133" fill="none" xmlns="http://www.w3.org/2000/svg">
<path d="M80.7446 120.153C71.6109 122.196 60.3457 103.617 49.4225 96.2793C37.8143 88.4715 15.1753 83.7555 13.6781 74.0724C16.9431 53.5452 32.2413 43.3866 50.8245 33.2164C65.5724 32.1744 102.876 56.8811 105.562 70.8261C102.55 91.1071 100.223 109.169 80.7446 120.153Z" fill="#FFBC00"/>
<path d="M81.0976 119.639C71.0227 123.052 61.0125 102.646 50.05 95.3657C38.4026 87.615 14.5478 84.6685 14.0311 73.5584C19.9237 49.207 31.4498 31.3311 52.6605 17.3367C68.7027 14.4111 118.453 47.4176 119.67 63.3782C114.205 87.3514 103.439 104.489 81.0976 119.639Z" stroke="black" stroke-width="8" stroke-miterlimit="10"/>
<path d="M25.066 85.2578L14.6734 100.383" stroke="black" stroke-width="8" stroke-miterlimit="10"/>
<path d="M67.1895 114.201L56.7968 129.326" stroke="black" stroke-width="8" stroke-miterlimit="10"/>
</svg>
