<svg width="112" height="113" viewBox="0 0 112 113" fill="none" xmlns="http://www.w3.org/2000/svg">
<path d="M97.8106 62.435C96.148 69.6939 78.9463 71.4176 69.9348 76.7477C60.3506 82.4083 49.2072 97.0497 41.7407 94.807C28.1187 85.4292 26.0655 70.9628 25.1294 54.1335C29.4342 43.1859 59.9577 24.8633 70.892 27.7124C84.4239 36.8241 96.597 44.6843 97.8106 62.435Z" fill="#E72A00"/>
<path d="M97.5626 62.0056C96.5612 70.4097 78.4779 70.6064 69.4939 75.9842C59.9373 81.6925 49.648 97.8132 41.4927 94.3775C26.0249 81.8025 17.1374 67.4007 14.3554 47.3742C17.7511 34.8519 58.4992 10.4352 70.3776 15.0298C85.7205 27.168 94.3379 40.7714 97.5626 62.0056Z" stroke="black" stroke-width="8" stroke-miterlimit="10" stroke-linecap="round" stroke-linejoin="round"/>
<path d="M53.6749 90.4619L60.9758 103.107" stroke="black" stroke-width="8" stroke-miterlimit="10" stroke-linecap="round" stroke-linejoin="round"/>
<path d="M88.8916 70.1294L96.1925 82.7749" stroke="black" stroke-width="8" stroke-miterlimit="10" stroke-linecap="round" stroke-linejoin="round"/>
</svg>
