<svg width="142" height="85" viewBox="0 0 142 85" fill="none" xmlns="http://www.w3.org/2000/svg"><path d="M33.543 5.592l6.742 7.282a7 7 0 005.137 2.245h69.337a7 7 0 005.24-2.36l6.347-7.167m-23.48 26.463V21.47M59.26 32.055V21.47" stroke="#000" stroke-width="2" stroke-miterlimit="10" stroke-linecap="round" stroke-linejoin="round"/><path opacity=".3" d="M37.514 26.108a2 2 0 011.927-1.463h62.367c.906 0 1.699.61 1.933 1.485l7.399 27.755a2 2 0 01-1.932 2.516H31.705a2 2 0 01-1.927-2.537l7.736-27.755zm18.2-22.893a2 2 0 011.72-.978h41.902c.72 0 1.384.386 1.739 1.012l3.447 6.065c.758 1.334-.205 2.989-1.738 2.989H53.83c-1.551 0-2.512-1.689-1.72-3.022l3.604-6.066z" fill="#000"/><path d="M46.46 34.576a2 2 0 011.926-1.463h62.367a2 2 0 011.932 1.485l7.4 27.755a2 2 0 01-1.932 2.515H40.649a2 2 0 01-1.926-2.536l7.736-27.756z" stroke="#000" stroke-width="2" stroke-miterlimit="10" stroke-linecap="round" stroke-linejoin="round"/><path d="M89.449 51.467a3.355 3.355 0 10-.001-6.71 3.355 3.355 0 000 6.71zm12.858 1.119a3.915 3.915 0 10-.001-7.83 3.915 3.915 0 00.001 7.83zm-21.803-7.829H53.669v7.41h26.835v-7.41z" stroke="#000" stroke-width="2" stroke-miterlimit="10" stroke-linecap="round" stroke-linejoin="round"/></svg>