<svg width="258" height="499" viewBox="0 0 258 499" fill="none" xmlns="http://www.w3.org/2000/svg"><path d="M122.599 197.381l-10.123 122.565m0 11.07l4.209 140.895m46.151-275.422l.558 122.253m0 5.229l15.021 151.903" stroke="#19141E" stroke-width="16" stroke-linecap="round"/><path fill-rule="evenodd" clip-rule="evenodd" d="M167.948 192.232c0 4.759-3.546 8.653-7.88 8.653h-35.503c-4.334 0-7.88-3.894-7.88-8.653s3.546-8.653 7.88-8.653h35.503c4.334 0 7.88 3.894 7.88 8.653zm-7.277 113.844h-.076c-5.939 0-10.753 6.759-10.753 15.096s4.814 15.096 10.753 15.096h5.914v-.006c5.803-.218 10.46-6.89 10.46-15.09s-4.657-14.873-10.46-15.091v-.005h-5.838zm-50.353 0h-.076c-5.939 0-10.754 6.759-10.754 15.096 0 8.338 4.815 15.096 10.754 15.096h5.914v-.006c5.803-.218 10.46-6.89 10.46-15.09 0-8.199-4.657-14.872-10.46-15.091v-.005h-5.838zm34.963 180.821h44.589l-7.045-19.813-37.544 19.813zm-19.901 0H80.79l37.545-19.813 7.045 19.813z" fill="url(#paint0_linear)"/><path opacity=".403" fill-rule="evenodd" clip-rule="evenodd" d="M116.306 336.174c5.803-.218 10.46-6.89 10.46-15.09 0-8.199-4.657-14.872-10.46-15.091v-.005h-5.914c-5.939 0-10.754 6.759-10.754 15.096s4.815 15.096 10.754 15.096h5.914v-.006zm6.759-15.09c0 4.881-2.408 8.838-5.377 8.838-2.97 0-5.377-3.957-5.377-8.838 0-4.881 2.407-8.838 5.377-8.838 2.969 0 5.377 3.957 5.377 8.838zm43.501 15.151c5.803-.218 10.46-6.891 10.46-15.091 0-8.199-4.657-14.872-10.46-15.09v-.006h-5.914c-5.939 0-10.754 6.759-10.754 15.096 0 8.338 4.814 15.096 10.754 15.096h5.914v-.005zm6.759-15.09c0 4.881-2.408 8.838-5.377 8.838-2.97 0-5.377-3.957-5.377-8.838 0-4.881 2.407-8.837 5.377-8.837 2.969 0 5.377 3.956 5.377 8.837z" fill="#000"/><path opacity=".603" fill-rule="evenodd" clip-rule="evenodd" d="M173.312 321.204c0 4.88-2.407 8.837-5.376 8.837-2.97 0-5.377-3.957-5.377-8.837 0-4.881 2.407-8.838 5.377-8.838 2.969 0 5.376 3.957 5.376 8.838z" fill="#000"/><path opacity=".604" fill-rule="evenodd" clip-rule="evenodd" d="M123.025 321.082c0 4.88-2.408 8.837-5.377 8.837-2.97 0-5.377-3.957-5.377-8.837 0-4.882 2.407-8.838 5.377-8.838 2.969 0 5.377 3.956 5.377 8.838z" fill="#000"/><path opacity=".396" fill-rule="evenodd" clip-rule="evenodd" d="M145.281 487.031h44.589l-7.045-19.814-37.544 19.814zm-64.491 0h44.59l-7.045-19.814-37.545 19.814z" fill="#000"/><path d="M52.605 245.243L65.6 136.135" stroke="#19141E" stroke-width="27" stroke-linecap="round"/><path fill-rule="evenodd" clip-rule="evenodd" d="M173.607 231.778H92.572l-12.358-15.235h105.75l-12.357 15.235z" fill="#19141E"/><path d="M221.801 241.616L208.102 132.62" stroke="#19141E" stroke-width="27" stroke-linecap="round"/><path fill-rule="evenodd" clip-rule="evenodd" d="M58.845 194.717v-30.763c-.64-.142-1.28-.317-1.918-.526-11.814-3.868-18.652-17.972-15.274-31.501 3.377-13.529 15.693-21.361 27.507-17.492.49.16.97.338 1.443.533 3.108-1.908 6.653-2.992 10.408-2.992h104.156c3.383 0 6.594.88 9.47 2.448 3.395-2.402 7.395-3.788 11.679-3.788 12.287 0 22.248 11.407 22.248 25.478 0 13.681-9.416 24.844-21.231 25.453v33.15c0 13.961-9.974 25.384-22.166 25.384H81.011c-12.192 0-22.166-11.423-22.166-25.384zM31.162 384.808c-.206-5.968 1.527-11.509 4.554-15.827-8.95-5.754-15.02-16.753-14.983-29.281l.202-69.007c.054-18.38 13.23-33.367 29.28-33.305 16.048.062 29.136 15.15 29.082 33.53l-.202 69.007c-.033 11.219-4.956 21.175-12.437 27.215 3.381 3.895 5.612 9.115 5.993 14.924.058.876.073 1.746.05 2.604-.11 3.889-4.46 5.351-6.396 2.154-2.21-3.644-5.25-5.847-8.534-5.698-6.3.284-11.109 9.122-10.743 19.742l.001.034v.014l.001.02c.115 3.165-2.79 5.285-5.205 3.743-6.12-3.907-10.367-11.263-10.663-19.869zm196.381-15.101c10.182-4.523 17.769-15.444 18.632-28.688l4.484-68.816c1.194-18.329-10.924-34.445-26.929-35.812-16.005-1.368-30.078 12.51-31.272 30.839l-4.483 68.816c-.75 11.508 3.747 22.143 11.16 28.803-5.128 4.169-8.567 10.924-8.803 18.544-.028.878-.013 1.747.041 2.604.243 3.881 4.638 5.146 6.464 1.865 2.083-3.742 5.045-6.08 8.33-6.08 6.305 0 11.415 8.614 11.415 19.243v.068c-.007 3.167 2.969 5.155 5.331 3.504 5.979-4.179 9.97-11.722 9.97-20.334 0-5.483-1.619-10.532-4.34-14.556zm-75.372-138.008v14.709h-38.164v-14.709h38.164z" fill="url(#paint1_linear)"/><path opacity=".395" fill-rule="evenodd" clip-rule="evenodd" d="M190.332 383.393a27.81 27.81 0 00.041 2.604c.243 3.881 4.638 5.146 6.464 1.865 2.083-3.742 5.045-6.08 8.33-6.08 6.305 0 11.415 8.614 11.415 19.243v.068c-.007 3.167 2.969 5.155 5.331 3.504 5.979-4.179 9.97-11.721 9.97-20.334 0-13.385-9.651-24.19-21.425-23.785-10.847.373-19.741 10.495-20.126 22.915zM88.329 164.179c0 16.307 10.365 29.84 23.962 32.436.196-.038.386-.077.581-.121 13.313-2.853 23.388-16.238 23.388-32.315 0-16.078-10.075-29.463-23.388-32.316a19.317 19.317 0 00-.581-.121c-13.597 2.596-23.962 16.129-23.962 32.437zm45.48.043c0 10.522-7.448 19.05-16.635 19.05-9.188 0-16.635-8.528-16.635-19.05 0-10.521 7.447-19.05 16.635-19.05 9.187 0 16.635 8.529 16.635 19.05zm94.873-28.106c0-14.071-9.961-25.478-22.249-25.478-12.287 0-22.248 11.407-22.248 25.478 0 14.072 9.961 25.479 22.248 25.479 12.288 0 22.249-11.407 22.249-25.479zm-5.368-4.722c0 6.826-4.833 12.36-10.793 12.36-5.961 0-10.793-5.534-10.793-12.36 0-6.827 4.832-12.361 10.793-12.361 5.96 0 10.793 5.534 10.793 12.361zM70.643 115.037a20.28 20.28 0 00-1.443-.533c-11.814-3.869-24.13 3.962-27.507 17.491-3.378 13.53 3.46 27.633 15.274 31.502.638.209 1.278.384 1.918.526v-26.594c0-9.661 4.776-18.106 11.758-22.392zM35.717 368.856c-3.027 4.319-4.76 9.86-4.554 15.827.296 8.607 4.544 15.963 10.662 19.869 2.416 1.543 5.321-.577 5.206-3.742l-.002-.068c-.366-10.62 4.444-19.458 10.743-19.743 3.284-.148 6.324 2.054 8.533 5.699 1.938 3.197 6.287 1.734 6.396-2.155.024-.858.009-1.727-.049-2.604-.38-5.808-2.612-11.028-5.993-14.923 7.481-6.04 12.404-15.996 12.437-27.216l.202-69.007c.054-18.38-13.034-33.468-29.083-33.53-16.05-.061-29.225 14.926-29.279 33.306l-.202 69.007c-.037 12.528 6.032 23.527 14.983 29.28zM151.5 190.562c0-3.613-2.558-6.543-5.713-6.543-3.156 0-5.714 2.93-5.714 6.543s2.558 6.543 5.714 6.543c3.155 0 5.713-2.93 5.713-6.543zm16.513 0c0-3.613-2.558-6.543-5.713-6.543-3.155 0-5.714 2.93-5.714 6.543s2.559 6.543 5.714 6.543c3.155 0 5.713-2.93 5.713-6.543zm75.28 86.753c.244-3.603-2.108-6.75-5.255-7.029-3.146-.279-5.894 2.415-6.137 6.018-.245 3.603 2.109 6.749 5.254 7.029 3.147.279 5.894-2.416 6.138-6.018zm-1.221 18.049c.244-3.603-2.109-6.749-5.255-7.029-3.146-.279-5.894 2.416-6.138 6.018-.244 3.603 2.109 6.75 5.255 7.029 3.147.279 5.894-2.415 6.138-6.018zm-1.251 18.486c.244-3.602-2.109-6.749-5.255-7.029-3.146-.279-5.894 2.416-6.137 6.018-.244 3.603 2.109 6.75 5.254 7.029 3.147.279 5.894-2.415 6.138-6.018zm-88.367-67.634v-14.709h-38.532v14.709h38.532z" fill="#000"/><path fill-rule="evenodd" clip-rule="evenodd" d="M112.425 196.657c-13.597-2.596-23.962-16.129-23.962-32.436 0-16.308 10.365-29.84 23.962-32.437a25.281 25.281 0 00-4.741-.448c-15.859 0-28.715 14.722-28.715 32.885 0 18.162 12.856 32.884 28.715 32.884 1.615 0 3.2-.154 4.741-.448z" fill="#19141E"/><path d="M100.703 66.027h17.013" stroke="#19141E" stroke-width="5" stroke-linecap="round"/><path d="M152.635 39.457c3.235 0 5.882 3.03 5.882 6.736" stroke="#fff" stroke-width="5" stroke-linecap="round"/><path d="M177.85 66.027h-20.926" stroke="#19141E" stroke-width="5" stroke-linecap="round"/><path fill-rule="evenodd" clip-rule="evenodd" d="M101.486 102.004c-3.089.252-5.527 3.203-5.527 6.804v3.067h79.436v-3.067c0-3.601-2.437-6.552-5.527-6.804v-1.214c0-4.152-2.649-7.63-6.107-8.327V42.39c0-4.672-3.338-8.495-7.417-8.495h-41.333c-4.08 0-7.418 3.823-7.418 8.495v50.074c-3.458.697-6.107 4.175-6.107 8.327v1.214zm-12.61-35.976c0 4.558 3.227 8.253 7.207 8.253s7.207-3.695 7.207-8.253-3.227-8.252-7.207-8.252-7.206 3.694-7.206 8.252zm88.761-8.252c3.98 0 7.207 3.694 7.207 8.252 0 4.558-3.227 8.253-7.207 8.253s-7.206-3.695-7.206-8.253 3.226-8.252 7.206-8.252z" fill="url(#paint2_linear)"/><path opacity=".396" fill-rule="evenodd" clip-rule="evenodd" d="M169.868 102.004v-2.107c-.324-3.82-3.322-7.56-7.381-7.56h-53.619c-4.06 0-6.932 3.453-7.382 7.285v2.382c-3.089.253-5.527 3.203-5.527 6.805v3.066h79.436v-3.066c0-3.602-2.437-6.552-5.527-6.805zM88.877 66.028c0 4.558 3.226 8.253 7.206 8.253 3.98 0 7.207-3.695 7.207-8.253s-3.227-8.252-7.207-8.252-7.206 3.694-7.206 8.252zm95.967 0c0-4.558-3.227-8.252-7.207-8.252s-7.206 3.694-7.206 8.252c0 4.558 3.226 8.253 7.206 8.253 3.98 0 7.207-3.695 7.207-8.253z" fill="#000"/><path d="M169.397 102.206h-67.744" stroke="#19141E" stroke-width="5"/><path d="M152.199 79.487h-44.606" stroke="#19141E" stroke-width="7"/><path fill-rule="evenodd" clip-rule="evenodd" d="M140.541 55.204c3.144 2.963 3.595 8.285 1.007 11.886-2.588 3.6-7.235 4.116-10.379 1.153-3.144-2.964-3.595-8.285-1.007-11.886 2.588-3.6 7.235-4.117 10.379-1.153z" fill="#fff"/><path fill-rule="evenodd" clip-rule="evenodd" d="M136.601 58.819c1.444 1.361 1.651 3.806.462 5.46s-3.323 1.891-4.767.53c-1.445-1.362-1.652-3.806-.463-5.46 1.189-1.654 3.324-1.892 4.768-.53z" fill="#19141E"/><path fill-rule="evenodd" clip-rule="evenodd" d="M121.146 55.204c3.144 2.963 3.595 8.285 1.007 11.886-2.588 3.6-7.235 4.116-10.379 1.153-3.144-2.964-3.595-8.285-1.007-11.886 2.588-3.6 7.235-4.117 10.379-1.153z" fill="#fff"/><path fill-rule="evenodd" clip-rule="evenodd" d="M117.206 58.819c1.444 1.361 1.651 3.806.462 5.46-1.188 1.654-3.323 1.891-4.767.53-1.445-1.362-1.652-3.806-.463-5.46 1.189-1.654 3.324-1.892 4.768-.53z" fill="#19141E"/><defs><linearGradient id="paint0_linear" x1="189.87" y1="335.238" x2="80.79" y2="335.238" gradientUnits="userSpaceOnUse"><stop stop-color="#16B2E3"/><stop offset=".47" stop-color="#30C7EC"/><stop offset="1" stop-color="#46AEF7"/></linearGradient><linearGradient id="paint1_linear" x1="250.74" y1="257.914" x2="20.733" y2="257.914" gradientUnits="userSpaceOnUse"><stop stop-color="#16B2E3"/><stop offset=".47" stop-color="#30C7EC"/><stop offset="1" stop-color="#46AEF7"/></linearGradient><linearGradient id="paint2_linear" x1="184.844" y1="72.885" x2="88.877" y2="72.885" gradientUnits="userSpaceOnUse"><stop stop-color="#16B2E3"/><stop offset=".47" stop-color="#30C7EC"/><stop offset="1" stop-color="#46AEF7"/></linearGradient></defs></svg>